%TF.GenerationSoftware,KiCad,Pcbnew,(6.0.10)*%
%TF.CreationDate,2023-04-25T21:53:47+02:00*%
%TF.ProjectId,sabvoton-controller,73616276-6f74-46f6-9e2d-636f6e74726f,rev?*%
%TF.SameCoordinates,Original*%
%TF.FileFunction,Paste,Top*%
%TF.FilePolarity,Positive*%
%FSLAX46Y46*%
G04 Gerber Fmt 4.6, Leading zero omitted, Abs format (unit mm)*
G04 Created by KiCad (PCBNEW (6.0.10)) date 2023-04-25 21:53:47*
%MOMM*%
%LPD*%
G01*
G04 APERTURE LIST*
G04 Aperture macros list*
%AMRoundRect*
0 Rectangle with rounded corners*
0 $1 Rounding radius*
0 $2 $3 $4 $5 $6 $7 $8 $9 X,Y pos of 4 corners*
0 Add a 4 corners polygon primitive as box body*
4,1,4,$2,$3,$4,$5,$6,$7,$8,$9,$2,$3,0*
0 Add four circle primitives for the rounded corners*
1,1,$1+$1,$2,$3*
1,1,$1+$1,$4,$5*
1,1,$1+$1,$6,$7*
1,1,$1+$1,$8,$9*
0 Add four rect primitives between the rounded corners*
20,1,$1+$1,$2,$3,$4,$5,0*
20,1,$1+$1,$4,$5,$6,$7,0*
20,1,$1+$1,$6,$7,$8,$9,0*
20,1,$1+$1,$8,$9,$2,$3,0*%
G04 Aperture macros list end*
%ADD10RoundRect,0.250000X0.375000X0.625000X-0.375000X0.625000X-0.375000X-0.625000X0.375000X-0.625000X0*%
%ADD11RoundRect,0.250000X-0.312500X-0.625000X0.312500X-0.625000X0.312500X0.625000X-0.312500X0.625000X0*%
%ADD12RoundRect,0.250000X-0.262500X-0.450000X0.262500X-0.450000X0.262500X0.450000X-0.262500X0.450000X0*%
%ADD13RoundRect,0.250000X-0.650000X0.325000X-0.650000X-0.325000X0.650000X-0.325000X0.650000X0.325000X0*%
%ADD14RoundRect,0.250000X0.650000X-0.325000X0.650000X0.325000X-0.650000X0.325000X-0.650000X-0.325000X0*%
%ADD15RoundRect,0.250000X-0.325000X-0.650000X0.325000X-0.650000X0.325000X0.650000X-0.325000X0.650000X0*%
%ADD16RoundRect,0.250000X0.625000X-0.400000X0.625000X0.400000X-0.625000X0.400000X-0.625000X-0.400000X0*%
%ADD17RoundRect,0.400000X0.600000X-0.400000X0.600000X0.400000X-0.600000X0.400000X-0.600000X-0.400000X0*%
%ADD18R,2.000000X1.600000*%
%ADD19C,1.600000*%
%ADD20RoundRect,0.150000X0.800000X0.150000X-0.800000X0.150000X-0.800000X-0.150000X0.800000X-0.150000X0*%
%ADD21R,1.500000X2.000000*%
%ADD22R,3.800000X2.000000*%
%ADD23RoundRect,0.250000X0.400000X0.625000X-0.400000X0.625000X-0.400000X-0.625000X0.400000X-0.625000X0*%
%ADD24RoundRect,0.150000X0.587500X0.150000X-0.587500X0.150000X-0.587500X-0.150000X0.587500X-0.150000X0*%
%ADD25RoundRect,0.150000X-0.150000X0.587500X-0.150000X-0.587500X0.150000X-0.587500X0.150000X0.587500X0*%
%ADD26RoundRect,0.150000X-0.587500X-0.150000X0.587500X-0.150000X0.587500X0.150000X-0.587500X0.150000X0*%
%ADD27RoundRect,0.400000X-0.400000X-0.600000X0.400000X-0.600000X0.400000X0.600000X-0.400000X0.600000X0*%
%ADD28R,1.600000X2.000000*%
%ADD29RoundRect,0.225000X0.225000X-0.225000X0.225000X0.225000X-0.225000X0.225000X-0.225000X-0.225000X0*%
%ADD30RoundRect,0.062500X0.062500X-0.337500X0.062500X0.337500X-0.062500X0.337500X-0.062500X-0.337500X0*%
%ADD31RoundRect,0.062500X0.337500X-0.062500X0.337500X0.062500X-0.337500X0.062500X-0.337500X-0.062500X0*%
%ADD32RoundRect,0.140000X0.610000X0.560000X-0.610000X0.560000X-0.610000X-0.560000X0.610000X-0.560000X0*%
%ADD33RoundRect,0.140000X-0.610000X-0.560000X0.610000X-0.560000X0.610000X0.560000X-0.610000X0.560000X0*%
%ADD34RoundRect,0.250000X-0.400000X-0.625000X0.400000X-0.625000X0.400000X0.625000X-0.400000X0.625000X0*%
%ADD35R,0.400000X1.350000*%
%ADD36R,1.500000X1.900000*%
%ADD37RoundRect,0.250000X1.100000X-0.412500X1.100000X0.412500X-1.100000X0.412500X-1.100000X-0.412500X0*%
%ADD38RoundRect,0.250000X0.412500X1.100000X-0.412500X1.100000X-0.412500X-1.100000X0.412500X-1.100000X0*%
%ADD39RoundRect,0.250000X0.412500X0.650000X-0.412500X0.650000X-0.412500X-0.650000X0.412500X-0.650000X0*%
%ADD40R,3.050000X2.750000*%
%ADD41R,2.200000X0.800000*%
%ADD42R,2.200000X1.500000*%
%ADD43RoundRect,0.250000X-0.650000X0.412500X-0.650000X-0.412500X0.650000X-0.412500X0.650000X0.412500X0*%
%ADD44R,1.500000X2.200000*%
%ADD45R,1.500000X0.900000*%
%ADD46R,0.900000X1.500000*%
%ADD47R,1.050000X1.050000*%
%ADD48R,2.200000X1.750000*%
%ADD49R,1.750000X2.200000*%
G04 APERTURE END LIST*
D10*
%TO.C,D5*%
X168120000Y-66070000D03*
X165320000Y-66070000D03*
%TD*%
%TO.C,D6*%
X168130000Y-63690000D03*
X165330000Y-63690000D03*
%TD*%
%TO.C,D4*%
X168120000Y-61300000D03*
X165320000Y-61300000D03*
%TD*%
%TO.C,D3*%
X168120000Y-58910000D03*
X165320000Y-58910000D03*
%TD*%
D11*
%TO.C,R_LED_4*%
X170937500Y-63690000D03*
X173862500Y-63690000D03*
%TD*%
%TO.C,R_LED_3*%
X170927500Y-66070000D03*
X173852500Y-66070000D03*
%TD*%
%TO.C,R_LED_2*%
X170957500Y-61310000D03*
X173882500Y-61310000D03*
%TD*%
D12*
%TO.C,R_LED_1*%
X170957500Y-58910000D03*
X172782500Y-58910000D03*
%TD*%
D13*
%TO.C,CSMALL13*%
X152440000Y-83375000D03*
X152440000Y-86325000D03*
%TD*%
%TO.C,CSMALL12*%
X155940000Y-83335000D03*
X155940000Y-86285000D03*
%TD*%
D14*
%TO.C,CSMALL11*%
X122190000Y-66435000D03*
X122190000Y-63485000D03*
%TD*%
D15*
%TO.C,CSMALL10*%
X153515000Y-69020000D03*
X156465000Y-69020000D03*
%TD*%
%TO.C,CSMALL9*%
X153545000Y-66640000D03*
X156495000Y-66640000D03*
%TD*%
%TO.C,CSMALL8*%
X153545000Y-64230000D03*
X156495000Y-64230000D03*
%TD*%
%TO.C,CSMALL7*%
X153545000Y-61900000D03*
X156495000Y-61900000D03*
%TD*%
%TO.C,CSMALL6*%
X153545000Y-59520000D03*
X156495000Y-59520000D03*
%TD*%
D16*
%TO.C,R10*%
X147000000Y-69030000D03*
X147000000Y-65930000D03*
%TD*%
%TO.C,R9*%
X149780000Y-69030000D03*
X149780000Y-65930000D03*
%TD*%
D17*
%TO.C,J4*%
X177430000Y-84330000D03*
X177430000Y-80730000D03*
D18*
X177430000Y-73530000D03*
%TD*%
D19*
%TO.C,J9*%
X103330000Y-113035000D03*
X105705000Y-113035000D03*
X108080000Y-113035000D03*
X110455000Y-113035000D03*
X112830000Y-113035000D03*
%TD*%
D20*
%TO.C,U7*%
X115110000Y-93785000D03*
X115110000Y-92515000D03*
X115110000Y-91245000D03*
X115110000Y-89975000D03*
X122110000Y-89975000D03*
X122110000Y-91245000D03*
X122110000Y-92515000D03*
X122110000Y-93785000D03*
%TD*%
D21*
%TO.C,U6*%
X98590000Y-97450000D03*
D22*
X96290000Y-103750000D03*
D21*
X96290000Y-97450000D03*
X93990000Y-97450000D03*
%TD*%
D23*
%TO.C,R15*%
X117310000Y-65980000D03*
X114210000Y-65980000D03*
%TD*%
%TO.C,R14*%
X115630000Y-63430000D03*
X112530000Y-63430000D03*
%TD*%
D16*
%TO.C,R11*%
X122350000Y-71800000D03*
X122350000Y-68700000D03*
%TD*%
%TO.C,R8*%
X124790000Y-94180000D03*
X124790000Y-91080000D03*
%TD*%
%TO.C,R7*%
X127180000Y-94180000D03*
X127180000Y-91080000D03*
%TD*%
D23*
%TO.C,R6*%
X127420000Y-88980000D03*
X124320000Y-88980000D03*
%TD*%
%TO.C,R5*%
X164960000Y-110600000D03*
X161860000Y-110600000D03*
%TD*%
D24*
%TO.C,Q4*%
X121207500Y-114590000D03*
X121207500Y-112690000D03*
X119332500Y-113640000D03*
%TD*%
D25*
%TO.C,Q3*%
X131950000Y-91092500D03*
X130050000Y-91092500D03*
X131000000Y-92967500D03*
%TD*%
%TO.C,Q2*%
X137130000Y-91172500D03*
X135230000Y-91172500D03*
X136180000Y-93047500D03*
%TD*%
D26*
%TO.C,Q1*%
X95242500Y-107340000D03*
X95242500Y-109240000D03*
X97117500Y-108290000D03*
%TD*%
D27*
%TO.C,J5*%
X112020000Y-60850000D03*
X115620000Y-60850000D03*
D28*
X122820000Y-60850000D03*
%TD*%
D29*
%TO.C,U8*%
X150400000Y-106600000D03*
X149280000Y-107720000D03*
X150400000Y-105480000D03*
X151520000Y-107720000D03*
X151520000Y-105480000D03*
X150400000Y-107720000D03*
X149280000Y-106600000D03*
X151520000Y-106600000D03*
X149280000Y-105480000D03*
D30*
X148900000Y-109050000D03*
X149400000Y-109050000D03*
X149900000Y-109050000D03*
X150400000Y-109050000D03*
X150900000Y-109050000D03*
X151400000Y-109050000D03*
X151900000Y-109050000D03*
D31*
X152850000Y-108100000D03*
X152850000Y-107600000D03*
X152850000Y-107100000D03*
X152850000Y-106600000D03*
X152850000Y-106100000D03*
X152850000Y-105600000D03*
X152850000Y-105100000D03*
D30*
X151900000Y-104150000D03*
X151400000Y-104150000D03*
X150900000Y-104150000D03*
X150400000Y-104150000D03*
X149900000Y-104150000D03*
X149400000Y-104150000D03*
X148900000Y-104150000D03*
D31*
X147950000Y-105100000D03*
X147950000Y-105600000D03*
X147950000Y-106100000D03*
X147950000Y-106600000D03*
X147950000Y-107100000D03*
X147950000Y-107600000D03*
X147950000Y-108100000D03*
%TD*%
D32*
%TO.C,SW2*%
X164900000Y-113400000D03*
X157100000Y-113400000D03*
%TD*%
D33*
%TO.C,SW1*%
X136720000Y-113830000D03*
X144520000Y-113830000D03*
%TD*%
D23*
%TO.C,R13*%
X149250000Y-98300000D03*
X146150000Y-98300000D03*
%TD*%
D34*
%TO.C,R12*%
X151150000Y-98300000D03*
X154250000Y-98300000D03*
%TD*%
D24*
%TO.C,Q6*%
X153337500Y-102350000D03*
X153337500Y-100450000D03*
X151462500Y-101400000D03*
%TD*%
D26*
%TO.C,Q5*%
X146862500Y-100450000D03*
X146862500Y-102350000D03*
X148737500Y-101400000D03*
%TD*%
D13*
%TO.C,CSMALL1*%
X110700000Y-91125000D03*
X110700000Y-94075000D03*
%TD*%
D35*
%TO.C,J8*%
X149400000Y-111837500D03*
X150050000Y-111837500D03*
X150700000Y-111837500D03*
X151350000Y-111837500D03*
X152000000Y-111837500D03*
D36*
X149700000Y-114537500D03*
X151700000Y-114537500D03*
%TD*%
D16*
%TO.C,RB2*%
X104600000Y-94250000D03*
X104600000Y-91150000D03*
%TD*%
D37*
%TO.C,COUT1*%
X98400000Y-75562500D03*
X98400000Y-72437500D03*
%TD*%
D38*
%TO.C,COUT2*%
X109162500Y-66700000D03*
X106037500Y-66700000D03*
%TD*%
D39*
%TO.C,CFF1*%
X96362500Y-77900000D03*
X93237500Y-77900000D03*
%TD*%
D40*
%TO.C,U2*%
X93625000Y-87325000D03*
X93625000Y-84275000D03*
X96975000Y-87325000D03*
X96975000Y-84275000D03*
D41*
X101600000Y-88080000D03*
X101600000Y-86940000D03*
X101600000Y-85800000D03*
X101600000Y-84660000D03*
X101600000Y-83520000D03*
%TD*%
D42*
%TO.C,L1*%
X107300000Y-85700000D03*
X107300000Y-79300000D03*
%TD*%
D21*
%TO.C,U5*%
X117500000Y-79350000D03*
D22*
X115200000Y-85650000D03*
D21*
X115200000Y-79350000D03*
X112900000Y-79350000D03*
%TD*%
D37*
%TO.C,CIN1*%
X94000000Y-93862500D03*
X94000000Y-90737500D03*
%TD*%
D43*
%TO.C,CFF2*%
X108600000Y-57437500D03*
X108600000Y-60562500D03*
%TD*%
D44*
%TO.C,L2*%
X97200000Y-60400000D03*
X103600000Y-60400000D03*
%TD*%
D45*
%TO.C,U1*%
X125870000Y-67950000D03*
X125870000Y-69220000D03*
X125870000Y-70490000D03*
X125870000Y-71760000D03*
X125870000Y-73030000D03*
X125870000Y-74300000D03*
X125870000Y-75570000D03*
X125870000Y-76840000D03*
X125870000Y-78110000D03*
X125870000Y-79380000D03*
X125870000Y-80650000D03*
X125870000Y-81920000D03*
X125870000Y-83190000D03*
X125870000Y-84460000D03*
D46*
X128910000Y-85710000D03*
X130180000Y-85710000D03*
X131450000Y-85710000D03*
X132720000Y-85710000D03*
X133990000Y-85710000D03*
X135260000Y-85710000D03*
X136530000Y-85710000D03*
X137800000Y-85710000D03*
X139070000Y-85710000D03*
X140340000Y-85710000D03*
D45*
X143370000Y-84460000D03*
X143370000Y-83190000D03*
X143370000Y-81920000D03*
X143370000Y-80650000D03*
X143370000Y-79380000D03*
X143370000Y-78110000D03*
X143370000Y-76840000D03*
X143370000Y-75570000D03*
X143370000Y-74300000D03*
X143370000Y-73030000D03*
X143370000Y-71760000D03*
X143370000Y-70490000D03*
X143370000Y-69220000D03*
X143370000Y-67950000D03*
D47*
X133940000Y-73765000D03*
X135465000Y-76815000D03*
X132415000Y-75290000D03*
X132415000Y-76815000D03*
X135465000Y-75290000D03*
X133940000Y-75290000D03*
X133940000Y-76815000D03*
X132415000Y-73765000D03*
X135465000Y-73765000D03*
%TD*%
D34*
%TO.C,R1*%
X93250000Y-80500000D03*
X96350000Y-80500000D03*
%TD*%
%TO.C,R4*%
X102350000Y-75200000D03*
X105450000Y-75200000D03*
%TD*%
D37*
%TO.C,COUT3*%
X93900000Y-75562500D03*
X93900000Y-72437500D03*
%TD*%
D40*
%TO.C,U3*%
X97175000Y-66175000D03*
X97175000Y-69225000D03*
X93825000Y-66175000D03*
X93825000Y-69225000D03*
D41*
X101800000Y-69980000D03*
X101800000Y-68840000D03*
X101800000Y-67700000D03*
X101800000Y-66560000D03*
X101800000Y-65420000D03*
%TD*%
D16*
%TO.C,RB1*%
X108200000Y-94250000D03*
X108200000Y-91150000D03*
%TD*%
D21*
%TO.C,U4*%
X112900000Y-70050000D03*
X110600000Y-70050000D03*
D22*
X110600000Y-76350000D03*
D21*
X108300000Y-70050000D03*
%TD*%
D34*
%TO.C,R2*%
X99050000Y-80500000D03*
X102150000Y-80500000D03*
%TD*%
D48*
%TO.C,D2*%
X93800000Y-62700000D03*
X93800000Y-58300000D03*
%TD*%
D37*
%TO.C,CIN3*%
X100520000Y-93882500D03*
X100520000Y-90757500D03*
%TD*%
D38*
%TO.C,COUT4*%
X109162500Y-63400000D03*
X106037500Y-63400000D03*
%TD*%
D16*
%TO.C,R3*%
X106200000Y-60550000D03*
X106200000Y-57450000D03*
%TD*%
D49*
%TO.C,D1*%
X104800000Y-88500000D03*
X109200000Y-88500000D03*
%TD*%
D37*
%TO.C,CIN2*%
X97260000Y-93872500D03*
X97260000Y-90747500D03*
%TD*%
M02*
