%TF.GenerationSoftware,KiCad,Pcbnew,(6.0.10)*%
%TF.CreationDate,2023-04-25T21:53:47+02:00*%
%TF.ProjectId,sabvoton-controller,73616276-6f74-46f6-9e2d-636f6e74726f,rev?*%
%TF.SameCoordinates,Original*%
%TF.FileFunction,Copper,L2,Bot*%
%TF.FilePolarity,Positive*%
%FSLAX46Y46*%
G04 Gerber Fmt 4.6, Leading zero omitted, Abs format (unit mm)*
G04 Created by KiCad (PCBNEW (6.0.10)) date 2023-04-25 21:53:47*
%MOMM*%
%LPD*%
G01*
G04 APERTURE LIST*
G04 Aperture macros list*
%AMRoundRect*
0 Rectangle with rounded corners*
0 $1 Rounding radius*
0 $2 $3 $4 $5 $6 $7 $8 $9 X,Y pos of 4 corners*
0 Add a 4 corners polygon primitive as box body*
4,1,4,$2,$3,$4,$5,$6,$7,$8,$9,$2,$3,0*
0 Add four circle primitives for the rounded corners*
1,1,$1+$1,$2,$3*
1,1,$1+$1,$4,$5*
1,1,$1+$1,$6,$7*
1,1,$1+$1,$8,$9*
0 Add four rect primitives between the rounded corners*
20,1,$1+$1,$2,$3,$4,$5,0*
20,1,$1+$1,$4,$5,$6,$7,0*
20,1,$1+$1,$6,$7,$8,$9,0*
20,1,$1+$1,$8,$9,$2,$3,0*%
G04 Aperture macros list end*
%TA.AperFunction,ComponentPad*%
%ADD10RoundRect,0.250000X0.675000X-0.675000X0.675000X0.675000X-0.675000X0.675000X-0.675000X-0.675000X0*%
%TD*%
%TA.AperFunction,ComponentPad*%
%ADD11C,1.850000*%
%TD*%
%TA.AperFunction,ComponentPad*%
%ADD12O,1.200000X1.900000*%
%TD*%
%TA.AperFunction,ComponentPad*%
%ADD13C,1.450000*%
%TD*%
%TA.AperFunction,ComponentPad*%
%ADD14RoundRect,0.250001X-0.899999X0.899999X-0.899999X-0.899999X0.899999X-0.899999X0.899999X0.899999X0*%
%TD*%
%TA.AperFunction,ComponentPad*%
%ADD15C,2.300000*%
%TD*%
%TA.AperFunction,ComponentPad*%
%ADD16C,3.000000*%
%TD*%
%TA.AperFunction,HeatsinkPad*%
%ADD17C,0.475000*%
%TD*%
%TA.AperFunction,ViaPad*%
%ADD18C,0.800000*%
%TD*%
%TA.AperFunction,ViaPad*%
%ADD19C,0.500000*%
%TD*%
%TA.AperFunction,Conductor*%
%ADD20C,0.250000*%
%TD*%
%TA.AperFunction,Conductor*%
%ADD21C,0.150000*%
%TD*%
%TA.AperFunction,Conductor*%
%ADD22C,0.200000*%
%TD*%
G04 APERTURE END LIST*
D10*
%TO.P,J7,1,Pin_1*%
%TO.N,BATTERY_TEMP*%
X146650000Y-63030000D03*
D11*
%TO.P,J7,2,Pin_2*%
%TO.N,B-*%
X146650000Y-58830000D03*
%TD*%
D10*
%TO.P,J6,1,Pin_1*%
%TO.N,CONTROLLER_TEMP*%
X150100000Y-63000000D03*
D11*
%TO.P,J6,2,Pin_2*%
%TO.N,B-*%
X150100000Y-58800000D03*
%TD*%
D12*
%TO.P,J8,6,Shield*%
%TO.N,B-*%
X154200000Y-114537500D03*
D13*
X148200000Y-111837500D03*
D12*
X147200000Y-114537500D03*
D13*
X153200000Y-111837500D03*
%TD*%
D14*
%TO.P,J3,1,Pin_1*%
%TO.N,Net-(J1-Pad1)*%
X177600000Y-88600000D03*
D15*
%TO.P,J3,2,Pin_2*%
%TO.N,Net-(J1-Pad2)*%
X177600000Y-93400000D03*
%TO.P,J3,3,Pin_3*%
%TO.N,Net-(J1-Pad3)*%
X177600000Y-98200000D03*
%TO.P,J3,4,Pin_4*%
%TO.N,Net-(J1-Pad4)*%
X177600000Y-103000000D03*
%TO.P,J3,5,Pin_5*%
%TO.N,ENGINE_SENSOR*%
X177600000Y-107800000D03*
%TO.P,J3,6,Pin_6*%
%TO.N,Net-(J1-Pad6)*%
X177600000Y-112600000D03*
%TD*%
D16*
%TO.P,J1,1,Pin_1*%
%TO.N,Net-(J1-Pad1)*%
X160500000Y-102150000D03*
%TO.P,J1,2,Pin_2*%
%TO.N,Net-(J1-Pad2)*%
X165000000Y-102150000D03*
%TO.P,J1,3,Pin_3*%
%TO.N,Net-(J1-Pad3)*%
X169500000Y-102150000D03*
%TO.P,J1,4,Pin_4*%
%TO.N,Net-(J1-Pad4)*%
X160500000Y-106650000D03*
%TO.P,J1,5,Pin_5*%
%TO.N,ENGINE_SENSOR*%
X165000000Y-106650000D03*
%TO.P,J1,6,Pin_6*%
%TO.N,Net-(J1-Pad6)*%
X169500000Y-106650000D03*
%TD*%
D17*
%TO.P,U1,39,GND*%
%TO.N,B-*%
X133177500Y-75290000D03*
X134702500Y-75290000D03*
X133940000Y-74527500D03*
X133940000Y-76052500D03*
X132415000Y-74527500D03*
X135465000Y-76052500D03*
X133177500Y-76815000D03*
X133177500Y-73765000D03*
X134702500Y-73765000D03*
X132415000Y-76052500D03*
X135465000Y-74527500D03*
X134702500Y-76815000D03*
%TD*%
D16*
%TO.P,J2,1,Pin_1*%
%TO.N,unconnected-(J2-Pad1)*%
X104375000Y-99375000D03*
%TO.P,J2,2,Pin_2*%
%TO.N,PROGRAMMING_BB*%
X108500000Y-99375000D03*
%TO.P,J2,3,Pin_3*%
%TO.N,GEAR_LOW*%
X112625000Y-99375000D03*
%TO.P,J2,4,Pin_4*%
%TO.N,GEAR_HIGH*%
X116750000Y-99375000D03*
%TO.P,J2,5,Pin_5*%
%TO.N,unconnected-(J2-Pad5)*%
X120875000Y-99375000D03*
%TO.P,J2,6,Pin_6*%
%TO.N,unconnected-(J2-Pad6)*%
X125000000Y-99375000D03*
%TO.P,J2,7,Pin_7*%
%TO.N,unconnected-(J2-Pad7)*%
X129125000Y-99375000D03*
%TO.P,J2,8,Pin_8*%
%TO.N,unconnected-(J2-Pad8)*%
X133250000Y-99375000D03*
%TO.P,J2,9,Pin_9*%
%TO.N,unconnected-(J2-Pad9)*%
X137375000Y-99375000D03*
%TO.P,J2,10,Pin_10*%
%TO.N,unconnected-(J2-Pad10)*%
X141500000Y-99375000D03*
%TO.P,J2,11,Pin_11*%
%TO.N,B+*%
X104375000Y-103500000D03*
%TO.P,J2,12,Pin_12*%
%TO.N,PROGRAMMING_BY*%
X108500000Y-103500000D03*
%TO.P,J2,13,Pin_13*%
%TO.N,PROGRAMMING_GB*%
X112625000Y-103500000D03*
%TO.P,J2,14,Pin_14*%
%TO.N,PROGRAMMING_RB*%
X116750000Y-103500000D03*
%TO.P,J2,15,Pin_15*%
%TO.N,unconnected-(J2-Pad15)*%
X120875000Y-103500000D03*
%TO.P,J2,16,Pin_16*%
%TO.N,unconnected-(J2-Pad16)*%
X125000000Y-103500000D03*
%TO.P,J2,17,Pin_17*%
%TO.N,B-*%
X129125000Y-103500000D03*
%TO.P,J2,18,Pin_18*%
X133250000Y-103500000D03*
%TO.P,J2,19,Pin_19*%
%TO.N,THROTTLE*%
X137375000Y-103500000D03*
%TO.P,J2,20,Pin_20*%
%TO.N,IGNITION*%
X141500000Y-103500000D03*
%TO.P,J2,21,Pin_21*%
%TO.N,unconnected-(J2-Pad21)*%
X104375000Y-107625000D03*
%TO.P,J2,22,Pin_22*%
%TO.N,unconnected-(J2-Pad22)*%
X108500000Y-107625000D03*
%TO.P,J2,23,Pin_23*%
%TO.N,unconnected-(J2-Pad23)*%
X112625000Y-107625000D03*
%TO.P,J2,24,Pin_24*%
%TO.N,SOFT_START_A*%
X116750000Y-107625000D03*
%TO.P,J2,25,Pin_25*%
%TO.N,unconnected-(J2-Pad25)*%
X120875000Y-107625000D03*
%TO.P,J2,26,Pin_26*%
%TO.N,SOFT_START_B*%
X125000000Y-107625000D03*
%TO.P,J2,27,Pin_27*%
%TO.N,B-*%
X129125000Y-107625000D03*
%TO.P,J2,28,Pin_28*%
X133250000Y-107625000D03*
%TO.P,J2,29,Pin_29*%
%TO.N,unconnected-(J2-Pad29)*%
X137375000Y-107625000D03*
%TO.P,J2,30,Pin_30*%
%TO.N,unconnected-(J2-Pad30)*%
X141500000Y-107625000D03*
%TD*%
D18*
%TO.N,5V*%
X145500000Y-76760000D03*
%TO.N,12V*%
X161080000Y-60490000D03*
%TO.N,3.3V*%
X160480000Y-70890000D03*
X156000000Y-71230000D03*
%TO.N,BATTERY_TEMP*%
X127925000Y-75325000D03*
X131480000Y-71770000D03*
%TO.N,3.3V*%
X145550000Y-68260000D03*
%TO.N,5V*%
X150470000Y-87480000D03*
X146451091Y-86208909D03*
X177420000Y-84470000D03*
%TO.N,PROGRAMMING_RB*%
X114485000Y-110605000D03*
X103690000Y-112990000D03*
%TO.N,SWITCH_LOW*%
X128750000Y-83850000D03*
X131950000Y-91092500D03*
%TO.N,B-*%
X95410000Y-85950000D03*
%TO.N,GEAR_HIGH*%
X136180000Y-93180000D03*
X133630000Y-95820000D03*
X131550000Y-96740000D03*
X119440000Y-96640000D03*
%TO.N,GEAR_LOW*%
X116150000Y-95850000D03*
X127970000Y-95800000D03*
%TO.N,SWITCH_SOFT_START*%
X141360000Y-110340000D03*
X121207500Y-114590000D03*
%TO.N,IGNITION*%
X94000000Y-97490000D03*
%TO.N,POWER_SWITCH*%
X143290000Y-83190000D03*
X99790000Y-106570000D03*
%TO.N,THROTTLE_OUTPUT*%
X127900000Y-81100000D03*
X127420000Y-88980000D03*
%TO.N,Net-(Q1-Pad3)*%
X97130000Y-108300000D03*
X98580000Y-97500000D03*
%TO.N,THROTTLE*%
X124755000Y-94145000D03*
%TO.N,5V*%
X113280000Y-93330000D03*
%TO.N,ENGINE_SENSOR*%
X157530000Y-102140000D03*
D19*
X131230000Y-68110000D03*
X129400000Y-71450000D03*
D18*
%TO.N,3.3V*%
X161920000Y-110660000D03*
%TO.N,12V*%
X112040000Y-60830000D03*
X105200000Y-69980000D03*
%TO.N,5V*%
X115320000Y-70240000D03*
D19*
%TO.N,EN*%
X125880000Y-70500000D03*
X146240000Y-85220000D03*
X148150000Y-86850000D03*
X148720000Y-101450000D03*
X146670000Y-109770000D03*
%TO.N,BOOT*%
X151070000Y-101400000D03*
X148290000Y-85290000D03*
%TO.N,Net-(Q6-Pad1)*%
X149260000Y-98370000D03*
X153330000Y-102360000D03*
%TO.N,Net-(Q6-Pad2)*%
X154440000Y-101090000D03*
X147920000Y-109050000D03*
%TO.N,RXD*%
X146695501Y-106066255D03*
%TO.N,TXD*%
X146130000Y-106490000D03*
X143450000Y-73050000D03*
%TO.N,RXD*%
X143500000Y-71800000D03*
%TO.N,Net-(J8-Pad2)*%
X150949500Y-109950000D03*
X149997824Y-110774440D03*
%TO.N,5V*%
X151910000Y-109990000D03*
X149400000Y-112920000D03*
D18*
%TO.N,ENGINE_SENSOR*%
X125900000Y-74300000D03*
%TO.N,Net-(CFF2-Pad1)*%
X102800000Y-73500000D03*
X104000000Y-66600000D03*
X110200000Y-58300000D03*
%TO.N,3.3V*%
X110600000Y-74900000D03*
X125870000Y-69220000D03*
X110600000Y-71600000D03*
%TO.N,BATTERY_VOLTAGE*%
X108200000Y-94250000D03*
X125900000Y-75600000D03*
%TO.N,1.8V*%
X115200000Y-79400000D03*
X115200000Y-85100000D03*
X125870000Y-80650000D03*
%TD*%
D20*
%TO.N,12V*%
X150177767Y-60490000D02*
X161080000Y-60490000D01*
X149837767Y-60830000D02*
X150177767Y-60490000D01*
X112040000Y-60830000D02*
X149837767Y-60830000D01*
D21*
%TO.N,3.3V*%
X160140000Y-71230000D02*
X160480000Y-70890000D01*
X156000000Y-71230000D02*
X160140000Y-71230000D01*
%TO.N,BATTERY_TEMP*%
X127925000Y-75325000D02*
X131480000Y-71770000D01*
%TO.N,3.3V*%
X131350000Y-67420000D02*
X129820000Y-67420000D01*
X141690000Y-69220000D02*
X128020000Y-69220000D01*
X132190000Y-68260000D02*
X131350000Y-67420000D01*
X128020000Y-69220000D02*
X125870000Y-69220000D01*
X145550000Y-68260000D02*
X132190000Y-68260000D01*
X129820000Y-67420000D02*
X128020000Y-69220000D01*
D22*
%TO.N,5V*%
X174410000Y-87480000D02*
X177420000Y-84470000D01*
X150470000Y-87480000D02*
X174410000Y-87480000D01*
X146451091Y-86208909D02*
X145690000Y-85447818D01*
D21*
%TO.N,PROGRAMMING_RB*%
X112100000Y-112990000D02*
X114485000Y-110605000D01*
X103690000Y-112990000D02*
X112100000Y-112990000D01*
%TO.N,SWITCH_LOW*%
X131950000Y-87050000D02*
X128750000Y-83850000D01*
X131950000Y-91092500D02*
X131950000Y-87050000D01*
%TO.N,B-*%
X127350000Y-101725000D02*
X129125000Y-103500000D01*
X112464770Y-101725000D02*
X127350000Y-101725000D01*
X110275000Y-99535230D02*
X112464770Y-101725000D01*
X110275000Y-98639770D02*
X110275000Y-99535230D01*
X97585230Y-85950000D02*
X110275000Y-98639770D01*
X95410000Y-85950000D02*
X97585230Y-85950000D01*
%TO.N,GEAR_HIGH*%
X136180000Y-93270000D02*
X136180000Y-93180000D01*
X133630000Y-95820000D02*
X136180000Y-93270000D01*
X119540000Y-96740000D02*
X119440000Y-96640000D01*
X131550000Y-96740000D02*
X119540000Y-96740000D01*
%TO.N,GEAR_LOW*%
X116200000Y-95800000D02*
X127970000Y-95800000D01*
X116150000Y-95850000D02*
X116200000Y-95800000D01*
%TO.N,SWITCH_SOFT_START*%
X137110000Y-114590000D02*
X141360000Y-110340000D01*
X121207500Y-114590000D02*
X137110000Y-114590000D01*
%TO.N,IGNITION*%
X139725000Y-107865000D02*
X139725000Y-105275000D01*
X139725000Y-105275000D02*
X141500000Y-103500000D01*
X138190000Y-109400000D02*
X139725000Y-107865000D01*
X97275405Y-109400000D02*
X138190000Y-109400000D01*
X94000000Y-106124595D02*
X97275405Y-109400000D01*
X94000000Y-97490000D02*
X94000000Y-106124595D01*
%TO.N,POWER_SWITCH*%
X139150000Y-87330000D02*
X143290000Y-83190000D01*
X139150000Y-104235230D02*
X139150000Y-87330000D01*
X138110230Y-105275000D02*
X139150000Y-104235230D01*
X101085000Y-105275000D02*
X138110230Y-105275000D01*
X99790000Y-106570000D02*
X101085000Y-105275000D01*
%TO.N,THROTTLE_OUTPUT*%
X127900000Y-81100000D02*
X127900000Y-88500000D01*
X127900000Y-88500000D02*
X127420000Y-88980000D01*
%TO.N,Net-(Q1-Pad3)*%
X97130000Y-108300000D02*
X98580000Y-106850000D01*
X98580000Y-106850000D02*
X98580000Y-97500000D01*
%TO.N,THROTTLE*%
X135600000Y-99214770D02*
X135600000Y-101725000D01*
X130530230Y-94145000D02*
X135600000Y-99214770D01*
X135600000Y-101725000D02*
X137375000Y-103500000D01*
X124755000Y-94145000D02*
X130530230Y-94145000D01*
%TO.N,5V*%
X113280000Y-72280000D02*
X115320000Y-70240000D01*
X113280000Y-93330000D02*
X113280000Y-72280000D01*
%TO.N,ENGINE_SENSOR*%
X151120000Y-95730000D02*
X157530000Y-102140000D01*
X150440000Y-95730000D02*
X151120000Y-95730000D01*
X149510000Y-95730000D02*
X150440000Y-95730000D01*
X149450000Y-83040000D02*
X149450000Y-95670000D01*
X148260000Y-75295026D02*
X148260000Y-75530000D01*
X149450000Y-95670000D02*
X149510000Y-95730000D01*
X149220000Y-82810000D02*
X149450000Y-83040000D01*
X141834974Y-68870000D02*
X148260000Y-75295026D01*
X141800000Y-68870000D02*
X141834974Y-68870000D01*
X148260000Y-81850000D02*
X149220000Y-82810000D01*
X131990000Y-68870000D02*
X141800000Y-68870000D01*
X148260000Y-75530000D02*
X148260000Y-81850000D01*
X131230000Y-68110000D02*
X131990000Y-68870000D01*
X128750000Y-71450000D02*
X129400000Y-71450000D01*
X125900000Y-74300000D02*
X128750000Y-71450000D01*
%TO.N,3.3V*%
X147910000Y-75440000D02*
X141690000Y-69220000D01*
X147910000Y-82000000D02*
X147910000Y-75440000D01*
X149080000Y-83170000D02*
X147910000Y-82000000D01*
X149080000Y-96080000D02*
X149080000Y-83170000D01*
X150172463Y-96080000D02*
X149080000Y-96080000D01*
X158725000Y-104632537D02*
X150172463Y-96080000D01*
X158725000Y-107465000D02*
X158725000Y-104632537D01*
X161920000Y-110660000D02*
X158725000Y-107465000D01*
D20*
%TO.N,12V*%
X105200000Y-67670000D02*
X112040000Y-60830000D01*
X105200000Y-69980000D02*
X105200000Y-67670000D01*
D22*
%TO.N,5V*%
X116320000Y-71240000D02*
X115320000Y-70240000D01*
X127090000Y-71240000D02*
X116320000Y-71240000D01*
X127455000Y-70875000D02*
X127090000Y-71240000D01*
X139654670Y-70875000D02*
X127455000Y-70875000D01*
X146485000Y-77705330D02*
X139654670Y-70875000D01*
X146485000Y-83800000D02*
X146485000Y-77705330D01*
X145690000Y-84595000D02*
X146485000Y-83800000D01*
X145690000Y-85447818D02*
X145690000Y-84595000D01*
X146602182Y-86360000D02*
X146451091Y-86208909D01*
X146835000Y-100170000D02*
X146835000Y-86360000D01*
X146935000Y-100270000D02*
X146835000Y-100170000D01*
X145580000Y-101625000D02*
X146935000Y-100270000D01*
X146835000Y-86360000D02*
X146602182Y-86360000D01*
X147832931Y-112920000D02*
X145580000Y-110667069D01*
X149400000Y-112920000D02*
X147832931Y-112920000D01*
X145580000Y-110667069D02*
X145580000Y-101625000D01*
D21*
%TO.N,EN*%
X139810000Y-70500000D02*
X125880000Y-70500000D01*
X143070000Y-73760000D02*
X139810000Y-70500000D01*
X146860000Y-83957715D02*
X146860000Y-77010000D01*
X143610000Y-73760000D02*
X143070000Y-73760000D01*
X146240000Y-84577715D02*
X146860000Y-83957715D01*
X146860000Y-77010000D02*
X143610000Y-73760000D01*
X146240000Y-85220000D02*
X146240000Y-84577715D01*
X148150000Y-87990000D02*
X148220000Y-88060000D01*
X148150000Y-86850000D02*
X148150000Y-87990000D01*
%TO.N,RXD*%
X147560000Y-97875025D02*
X147560000Y-75860000D01*
X147660000Y-97975025D02*
X147560000Y-97875025D01*
X147660000Y-100584974D02*
X147660000Y-97975025D01*
X147560000Y-75860000D02*
X143500000Y-71800000D01*
X146895000Y-105619975D02*
X146895000Y-101349974D01*
X146695501Y-105819474D02*
X146895000Y-105619975D01*
X146895000Y-101349974D02*
X147660000Y-100584974D01*
X146695501Y-106066255D02*
X146695501Y-105819474D01*
%TO.N,TXD*%
X147210000Y-76810000D02*
X143450000Y-73050000D01*
X147210000Y-98020000D02*
X147210000Y-76810000D01*
X146545000Y-101205000D02*
X147310000Y-100440000D01*
X146545000Y-105475000D02*
X146545000Y-101205000D01*
X147310000Y-98120000D02*
X147210000Y-98020000D01*
X146130000Y-105890000D02*
X146545000Y-105475000D01*
X146130000Y-106490000D02*
X146130000Y-105890000D01*
X147310000Y-100440000D02*
X147310000Y-98120000D01*
%TO.N,EN*%
X148220000Y-100950000D02*
X148220000Y-88060000D01*
X148720000Y-101450000D02*
X148220000Y-100950000D01*
%TO.N,BOOT*%
X151070000Y-100922463D02*
X151070000Y-101400000D01*
X148730000Y-98582463D02*
X151070000Y-100922463D01*
X148730000Y-85730000D02*
X148730000Y-98582463D01*
X148290000Y-85290000D02*
X148730000Y-85730000D01*
%TO.N,EN*%
X148680000Y-105410000D02*
X148720000Y-105370000D01*
X148720000Y-105370000D02*
X148720000Y-101450000D01*
X146670000Y-107420000D02*
X148680000Y-105410000D01*
X146670000Y-109770000D02*
X146670000Y-107420000D01*
%TO.N,Net-(Q6-Pad1)*%
X153330000Y-102360000D02*
X153250000Y-102360000D01*
X153250000Y-102360000D02*
X149260000Y-98370000D01*
%TO.N,Net-(Q6-Pad2)*%
X154440000Y-102530000D02*
X154440000Y-101090000D01*
X147920000Y-109050000D02*
X154440000Y-102530000D01*
D22*
%TO.N,Net-(J8-Pad2)*%
X150125060Y-110774440D02*
X150949500Y-109950000D01*
X149997824Y-110774440D02*
X150125060Y-110774440D01*
%TO.N,5V*%
X151900000Y-110000000D02*
X151910000Y-109990000D01*
X151900000Y-112500000D02*
X151900000Y-110000000D01*
X149420000Y-112900000D02*
X151500000Y-112900000D01*
X151500000Y-112900000D02*
X151900000Y-112500000D01*
X149400000Y-112920000D02*
X149420000Y-112900000D01*
D20*
%TO.N,Net-(J1-Pad4)*%
X163000000Y-104150000D02*
X160500000Y-106650000D01*
X176450000Y-104150000D02*
X163000000Y-104150000D01*
X177600000Y-103000000D02*
X176450000Y-104150000D01*
%TO.N,ENGINE_SENSOR*%
X174625000Y-104825000D02*
X177600000Y-107800000D01*
X166825000Y-104825000D02*
X174625000Y-104825000D01*
X165000000Y-106650000D02*
X166825000Y-104825000D01*
%TO.N,Net-(J1-Pad6)*%
X169500000Y-106650000D02*
X171650000Y-106650000D01*
X171650000Y-106650000D02*
X177600000Y-112600000D01*
%TO.N,Net-(J1-Pad3)*%
X173650000Y-102150000D02*
X177600000Y-98200000D01*
X169500000Y-102150000D02*
X173650000Y-102150000D01*
%TO.N,Net-(J1-Pad2)*%
X165000000Y-102150000D02*
X173750000Y-93400000D01*
X173750000Y-93400000D02*
X177600000Y-93400000D01*
%TO.N,Net-(J1-Pad1)*%
X174050000Y-88600000D02*
X177600000Y-88600000D01*
X160500000Y-102150000D02*
X174050000Y-88600000D01*
%TO.N,Net-(CFF2-Pad1)*%
X110200000Y-60400000D02*
X110200000Y-58300000D01*
X104000000Y-66600000D02*
X110200000Y-60400000D01*
X104000000Y-72300000D02*
X102800000Y-73500000D01*
X104000000Y-66600000D02*
X104000000Y-72300000D01*
%TO.N,3.3V*%
X110600000Y-71600000D02*
X110600000Y-74900000D01*
X110600000Y-71600000D02*
X112980000Y-69220000D01*
X112980000Y-69220000D02*
X125870000Y-69220000D01*
%TO.N,BATTERY_VOLTAGE*%
X118550000Y-94250000D02*
X127100000Y-85700000D01*
X127100000Y-85700000D02*
X127100000Y-76800000D01*
X127100000Y-76800000D02*
X125900000Y-75600000D01*
X108200000Y-94250000D02*
X118550000Y-94250000D01*
%TO.N,1.8V*%
X123300000Y-80600000D02*
X123400000Y-80700000D01*
X115200000Y-85100000D02*
X115200000Y-79400000D01*
X123400000Y-80700000D02*
X125900000Y-80700000D01*
X122100000Y-79400000D02*
X123300000Y-80600000D01*
X115200000Y-79400000D02*
X122100000Y-79400000D01*
%TD*%
M02*
