%TF.GenerationSoftware,KiCad,Pcbnew,(6.0.10)*%
%TF.CreationDate,2023-04-25T21:53:47+02:00*%
%TF.ProjectId,sabvoton-controller,73616276-6f74-46f6-9e2d-636f6e74726f,rev?*%
%TF.SameCoordinates,Original*%
%TF.FileFunction,Legend,Top*%
%TF.FilePolarity,Positive*%
%FSLAX46Y46*%
G04 Gerber Fmt 4.6, Leading zero omitted, Abs format (unit mm)*
G04 Created by KiCad (PCBNEW (6.0.10)) date 2023-04-25 21:53:47*
%MOMM*%
%LPD*%
G01*
G04 APERTURE LIST*
%ADD10C,0.150000*%
%ADD11C,0.100000*%
%ADD12C,0.120000*%
G04 APERTURE END LIST*
D10*
%TO.C,D5*%
X165981904Y-68342380D02*
X165981904Y-67342380D01*
X166220000Y-67342380D01*
X166362857Y-67390000D01*
X166458095Y-67485238D01*
X166505714Y-67580476D01*
X166553333Y-67770952D01*
X166553333Y-67913809D01*
X166505714Y-68104285D01*
X166458095Y-68199523D01*
X166362857Y-68294761D01*
X166220000Y-68342380D01*
X165981904Y-68342380D01*
X167458095Y-67342380D02*
X166981904Y-67342380D01*
X166934285Y-67818571D01*
X166981904Y-67770952D01*
X167077142Y-67723333D01*
X167315238Y-67723333D01*
X167410476Y-67770952D01*
X167458095Y-67818571D01*
X167505714Y-67913809D01*
X167505714Y-68151904D01*
X167458095Y-68247142D01*
X167410476Y-68294761D01*
X167315238Y-68342380D01*
X167077142Y-68342380D01*
X166981904Y-68294761D01*
X166934285Y-68247142D01*
%TO.C,D6*%
X165991904Y-65962380D02*
X165991904Y-64962380D01*
X166230000Y-64962380D01*
X166372857Y-65010000D01*
X166468095Y-65105238D01*
X166515714Y-65200476D01*
X166563333Y-65390952D01*
X166563333Y-65533809D01*
X166515714Y-65724285D01*
X166468095Y-65819523D01*
X166372857Y-65914761D01*
X166230000Y-65962380D01*
X165991904Y-65962380D01*
X167420476Y-64962380D02*
X167230000Y-64962380D01*
X167134761Y-65010000D01*
X167087142Y-65057619D01*
X166991904Y-65200476D01*
X166944285Y-65390952D01*
X166944285Y-65771904D01*
X166991904Y-65867142D01*
X167039523Y-65914761D01*
X167134761Y-65962380D01*
X167325238Y-65962380D01*
X167420476Y-65914761D01*
X167468095Y-65867142D01*
X167515714Y-65771904D01*
X167515714Y-65533809D01*
X167468095Y-65438571D01*
X167420476Y-65390952D01*
X167325238Y-65343333D01*
X167134761Y-65343333D01*
X167039523Y-65390952D01*
X166991904Y-65438571D01*
X166944285Y-65533809D01*
%TO.C,D4*%
X165981904Y-63572380D02*
X165981904Y-62572380D01*
X166220000Y-62572380D01*
X166362857Y-62620000D01*
X166458095Y-62715238D01*
X166505714Y-62810476D01*
X166553333Y-63000952D01*
X166553333Y-63143809D01*
X166505714Y-63334285D01*
X166458095Y-63429523D01*
X166362857Y-63524761D01*
X166220000Y-63572380D01*
X165981904Y-63572380D01*
X167410476Y-62905714D02*
X167410476Y-63572380D01*
X167172380Y-62524761D02*
X166934285Y-63239047D01*
X167553333Y-63239047D01*
%TO.C,D3*%
X165981904Y-61182380D02*
X165981904Y-60182380D01*
X166220000Y-60182380D01*
X166362857Y-60230000D01*
X166458095Y-60325238D01*
X166505714Y-60420476D01*
X166553333Y-60610952D01*
X166553333Y-60753809D01*
X166505714Y-60944285D01*
X166458095Y-61039523D01*
X166362857Y-61134761D01*
X166220000Y-61182380D01*
X165981904Y-61182380D01*
X166886666Y-60182380D02*
X167505714Y-60182380D01*
X167172380Y-60563333D01*
X167315238Y-60563333D01*
X167410476Y-60610952D01*
X167458095Y-60658571D01*
X167505714Y-60753809D01*
X167505714Y-60991904D01*
X167458095Y-61087142D01*
X167410476Y-61134761D01*
X167315238Y-61182380D01*
X167029523Y-61182380D01*
X166934285Y-61134761D01*
X166886666Y-61087142D01*
%TO.C,R_LED_4*%
X170114285Y-62322380D02*
X169780952Y-61846190D01*
X169542857Y-62322380D02*
X169542857Y-61322380D01*
X169923809Y-61322380D01*
X170019047Y-61370000D01*
X170066666Y-61417619D01*
X170114285Y-61512857D01*
X170114285Y-61655714D01*
X170066666Y-61750952D01*
X170019047Y-61798571D01*
X169923809Y-61846190D01*
X169542857Y-61846190D01*
X170304761Y-62417619D02*
X171066666Y-62417619D01*
X171780952Y-62322380D02*
X171304761Y-62322380D01*
X171304761Y-61322380D01*
X172114285Y-61798571D02*
X172447619Y-61798571D01*
X172590476Y-62322380D02*
X172114285Y-62322380D01*
X172114285Y-61322380D01*
X172590476Y-61322380D01*
X173019047Y-62322380D02*
X173019047Y-61322380D01*
X173257142Y-61322380D01*
X173400000Y-61370000D01*
X173495238Y-61465238D01*
X173542857Y-61560476D01*
X173590476Y-61750952D01*
X173590476Y-61893809D01*
X173542857Y-62084285D01*
X173495238Y-62179523D01*
X173400000Y-62274761D01*
X173257142Y-62322380D01*
X173019047Y-62322380D01*
X173780952Y-62417619D02*
X174542857Y-62417619D01*
X175209523Y-61655714D02*
X175209523Y-62322380D01*
X174971428Y-61274761D02*
X174733333Y-61989047D01*
X175352380Y-61989047D01*
%TO.C,R_LED_3*%
X170104285Y-64702380D02*
X169770952Y-64226190D01*
X169532857Y-64702380D02*
X169532857Y-63702380D01*
X169913809Y-63702380D01*
X170009047Y-63750000D01*
X170056666Y-63797619D01*
X170104285Y-63892857D01*
X170104285Y-64035714D01*
X170056666Y-64130952D01*
X170009047Y-64178571D01*
X169913809Y-64226190D01*
X169532857Y-64226190D01*
X170294761Y-64797619D02*
X171056666Y-64797619D01*
X171770952Y-64702380D02*
X171294761Y-64702380D01*
X171294761Y-63702380D01*
X172104285Y-64178571D02*
X172437619Y-64178571D01*
X172580476Y-64702380D02*
X172104285Y-64702380D01*
X172104285Y-63702380D01*
X172580476Y-63702380D01*
X173009047Y-64702380D02*
X173009047Y-63702380D01*
X173247142Y-63702380D01*
X173390000Y-63750000D01*
X173485238Y-63845238D01*
X173532857Y-63940476D01*
X173580476Y-64130952D01*
X173580476Y-64273809D01*
X173532857Y-64464285D01*
X173485238Y-64559523D01*
X173390000Y-64654761D01*
X173247142Y-64702380D01*
X173009047Y-64702380D01*
X173770952Y-64797619D02*
X174532857Y-64797619D01*
X174675714Y-63702380D02*
X175294761Y-63702380D01*
X174961428Y-64083333D01*
X175104285Y-64083333D01*
X175199523Y-64130952D01*
X175247142Y-64178571D01*
X175294761Y-64273809D01*
X175294761Y-64511904D01*
X175247142Y-64607142D01*
X175199523Y-64654761D01*
X175104285Y-64702380D01*
X174818571Y-64702380D01*
X174723333Y-64654761D01*
X174675714Y-64607142D01*
%TO.C,R_LED_2*%
X170134285Y-59942380D02*
X169800952Y-59466190D01*
X169562857Y-59942380D02*
X169562857Y-58942380D01*
X169943809Y-58942380D01*
X170039047Y-58990000D01*
X170086666Y-59037619D01*
X170134285Y-59132857D01*
X170134285Y-59275714D01*
X170086666Y-59370952D01*
X170039047Y-59418571D01*
X169943809Y-59466190D01*
X169562857Y-59466190D01*
X170324761Y-60037619D02*
X171086666Y-60037619D01*
X171800952Y-59942380D02*
X171324761Y-59942380D01*
X171324761Y-58942380D01*
X172134285Y-59418571D02*
X172467619Y-59418571D01*
X172610476Y-59942380D02*
X172134285Y-59942380D01*
X172134285Y-58942380D01*
X172610476Y-58942380D01*
X173039047Y-59942380D02*
X173039047Y-58942380D01*
X173277142Y-58942380D01*
X173420000Y-58990000D01*
X173515238Y-59085238D01*
X173562857Y-59180476D01*
X173610476Y-59370952D01*
X173610476Y-59513809D01*
X173562857Y-59704285D01*
X173515238Y-59799523D01*
X173420000Y-59894761D01*
X173277142Y-59942380D01*
X173039047Y-59942380D01*
X173800952Y-60037619D02*
X174562857Y-60037619D01*
X174753333Y-59037619D02*
X174800952Y-58990000D01*
X174896190Y-58942380D01*
X175134285Y-58942380D01*
X175229523Y-58990000D01*
X175277142Y-59037619D01*
X175324761Y-59132857D01*
X175324761Y-59228095D01*
X175277142Y-59370952D01*
X174705714Y-59942380D01*
X175324761Y-59942380D01*
%TO.C,R_LED_1*%
X169584285Y-57712380D02*
X169250952Y-57236190D01*
X169012857Y-57712380D02*
X169012857Y-56712380D01*
X169393809Y-56712380D01*
X169489047Y-56760000D01*
X169536666Y-56807619D01*
X169584285Y-56902857D01*
X169584285Y-57045714D01*
X169536666Y-57140952D01*
X169489047Y-57188571D01*
X169393809Y-57236190D01*
X169012857Y-57236190D01*
X169774761Y-57807619D02*
X170536666Y-57807619D01*
X171250952Y-57712380D02*
X170774761Y-57712380D01*
X170774761Y-56712380D01*
X171584285Y-57188571D02*
X171917619Y-57188571D01*
X172060476Y-57712380D02*
X171584285Y-57712380D01*
X171584285Y-56712380D01*
X172060476Y-56712380D01*
X172489047Y-57712380D02*
X172489047Y-56712380D01*
X172727142Y-56712380D01*
X172870000Y-56760000D01*
X172965238Y-56855238D01*
X173012857Y-56950476D01*
X173060476Y-57140952D01*
X173060476Y-57283809D01*
X173012857Y-57474285D01*
X172965238Y-57569523D01*
X172870000Y-57664761D01*
X172727142Y-57712380D01*
X172489047Y-57712380D01*
X173250952Y-57807619D02*
X174012857Y-57807619D01*
X174774761Y-57712380D02*
X174203333Y-57712380D01*
X174489047Y-57712380D02*
X174489047Y-56712380D01*
X174393809Y-56855238D01*
X174298571Y-56950476D01*
X174203333Y-56998095D01*
%TO.C,CSMALL13*%
X154647142Y-87778571D02*
X154694761Y-87826190D01*
X154742380Y-87969047D01*
X154742380Y-88064285D01*
X154694761Y-88207142D01*
X154599523Y-88302380D01*
X154504285Y-88350000D01*
X154313809Y-88397619D01*
X154170952Y-88397619D01*
X153980476Y-88350000D01*
X153885238Y-88302380D01*
X153790000Y-88207142D01*
X153742380Y-88064285D01*
X153742380Y-87969047D01*
X153790000Y-87826190D01*
X153837619Y-87778571D01*
X154694761Y-87397619D02*
X154742380Y-87254761D01*
X154742380Y-87016666D01*
X154694761Y-86921428D01*
X154647142Y-86873809D01*
X154551904Y-86826190D01*
X154456666Y-86826190D01*
X154361428Y-86873809D01*
X154313809Y-86921428D01*
X154266190Y-87016666D01*
X154218571Y-87207142D01*
X154170952Y-87302380D01*
X154123333Y-87350000D01*
X154028095Y-87397619D01*
X153932857Y-87397619D01*
X153837619Y-87350000D01*
X153790000Y-87302380D01*
X153742380Y-87207142D01*
X153742380Y-86969047D01*
X153790000Y-86826190D01*
X154742380Y-86397619D02*
X153742380Y-86397619D01*
X154456666Y-86064285D01*
X153742380Y-85730952D01*
X154742380Y-85730952D01*
X154456666Y-85302380D02*
X154456666Y-84826190D01*
X154742380Y-85397619D02*
X153742380Y-85064285D01*
X154742380Y-84730952D01*
X154742380Y-83921428D02*
X154742380Y-84397619D01*
X153742380Y-84397619D01*
X154742380Y-83111904D02*
X154742380Y-83588095D01*
X153742380Y-83588095D01*
X154742380Y-82254761D02*
X154742380Y-82826190D01*
X154742380Y-82540476D02*
X153742380Y-82540476D01*
X153885238Y-82635714D01*
X153980476Y-82730952D01*
X154028095Y-82826190D01*
X153742380Y-81921428D02*
X153742380Y-81302380D01*
X154123333Y-81635714D01*
X154123333Y-81492857D01*
X154170952Y-81397619D01*
X154218571Y-81350000D01*
X154313809Y-81302380D01*
X154551904Y-81302380D01*
X154647142Y-81350000D01*
X154694761Y-81397619D01*
X154742380Y-81492857D01*
X154742380Y-81778571D01*
X154694761Y-81873809D01*
X154647142Y-81921428D01*
%TO.C,CSMALL12*%
X158147142Y-87738571D02*
X158194761Y-87786190D01*
X158242380Y-87929047D01*
X158242380Y-88024285D01*
X158194761Y-88167142D01*
X158099523Y-88262380D01*
X158004285Y-88310000D01*
X157813809Y-88357619D01*
X157670952Y-88357619D01*
X157480476Y-88310000D01*
X157385238Y-88262380D01*
X157290000Y-88167142D01*
X157242380Y-88024285D01*
X157242380Y-87929047D01*
X157290000Y-87786190D01*
X157337619Y-87738571D01*
X158194761Y-87357619D02*
X158242380Y-87214761D01*
X158242380Y-86976666D01*
X158194761Y-86881428D01*
X158147142Y-86833809D01*
X158051904Y-86786190D01*
X157956666Y-86786190D01*
X157861428Y-86833809D01*
X157813809Y-86881428D01*
X157766190Y-86976666D01*
X157718571Y-87167142D01*
X157670952Y-87262380D01*
X157623333Y-87310000D01*
X157528095Y-87357619D01*
X157432857Y-87357619D01*
X157337619Y-87310000D01*
X157290000Y-87262380D01*
X157242380Y-87167142D01*
X157242380Y-86929047D01*
X157290000Y-86786190D01*
X158242380Y-86357619D02*
X157242380Y-86357619D01*
X157956666Y-86024285D01*
X157242380Y-85690952D01*
X158242380Y-85690952D01*
X157956666Y-85262380D02*
X157956666Y-84786190D01*
X158242380Y-85357619D02*
X157242380Y-85024285D01*
X158242380Y-84690952D01*
X158242380Y-83881428D02*
X158242380Y-84357619D01*
X157242380Y-84357619D01*
X158242380Y-83071904D02*
X158242380Y-83548095D01*
X157242380Y-83548095D01*
X158242380Y-82214761D02*
X158242380Y-82786190D01*
X158242380Y-82500476D02*
X157242380Y-82500476D01*
X157385238Y-82595714D01*
X157480476Y-82690952D01*
X157528095Y-82786190D01*
X157337619Y-81833809D02*
X157290000Y-81786190D01*
X157242380Y-81690952D01*
X157242380Y-81452857D01*
X157290000Y-81357619D01*
X157337619Y-81310000D01*
X157432857Y-81262380D01*
X157528095Y-81262380D01*
X157670952Y-81310000D01*
X158242380Y-81881428D01*
X158242380Y-81262380D01*
%TO.C,CSMALL11*%
X120697142Y-67888571D02*
X120744761Y-67936190D01*
X120792380Y-68079047D01*
X120792380Y-68174285D01*
X120744761Y-68317142D01*
X120649523Y-68412380D01*
X120554285Y-68460000D01*
X120363809Y-68507619D01*
X120220952Y-68507619D01*
X120030476Y-68460000D01*
X119935238Y-68412380D01*
X119840000Y-68317142D01*
X119792380Y-68174285D01*
X119792380Y-68079047D01*
X119840000Y-67936190D01*
X119887619Y-67888571D01*
X120744761Y-67507619D02*
X120792380Y-67364761D01*
X120792380Y-67126666D01*
X120744761Y-67031428D01*
X120697142Y-66983809D01*
X120601904Y-66936190D01*
X120506666Y-66936190D01*
X120411428Y-66983809D01*
X120363809Y-67031428D01*
X120316190Y-67126666D01*
X120268571Y-67317142D01*
X120220952Y-67412380D01*
X120173333Y-67460000D01*
X120078095Y-67507619D01*
X119982857Y-67507619D01*
X119887619Y-67460000D01*
X119840000Y-67412380D01*
X119792380Y-67317142D01*
X119792380Y-67079047D01*
X119840000Y-66936190D01*
X120792380Y-66507619D02*
X119792380Y-66507619D01*
X120506666Y-66174285D01*
X119792380Y-65840952D01*
X120792380Y-65840952D01*
X120506666Y-65412380D02*
X120506666Y-64936190D01*
X120792380Y-65507619D02*
X119792380Y-65174285D01*
X120792380Y-64840952D01*
X120792380Y-64031428D02*
X120792380Y-64507619D01*
X119792380Y-64507619D01*
X120792380Y-63221904D02*
X120792380Y-63698095D01*
X119792380Y-63698095D01*
X120792380Y-62364761D02*
X120792380Y-62936190D01*
X120792380Y-62650476D02*
X119792380Y-62650476D01*
X119935238Y-62745714D01*
X120030476Y-62840952D01*
X120078095Y-62936190D01*
X120792380Y-61412380D02*
X120792380Y-61983809D01*
X120792380Y-61698095D02*
X119792380Y-61698095D01*
X119935238Y-61793333D01*
X120030476Y-61888571D01*
X120078095Y-61983809D01*
%TO.C,CSMALL10*%
X152061428Y-67527142D02*
X152013809Y-67574761D01*
X151870952Y-67622380D01*
X151775714Y-67622380D01*
X151632857Y-67574761D01*
X151537619Y-67479523D01*
X151490000Y-67384285D01*
X151442380Y-67193809D01*
X151442380Y-67050952D01*
X151490000Y-66860476D01*
X151537619Y-66765238D01*
X151632857Y-66670000D01*
X151775714Y-66622380D01*
X151870952Y-66622380D01*
X152013809Y-66670000D01*
X152061428Y-66717619D01*
X152442380Y-67574761D02*
X152585238Y-67622380D01*
X152823333Y-67622380D01*
X152918571Y-67574761D01*
X152966190Y-67527142D01*
X153013809Y-67431904D01*
X153013809Y-67336666D01*
X152966190Y-67241428D01*
X152918571Y-67193809D01*
X152823333Y-67146190D01*
X152632857Y-67098571D01*
X152537619Y-67050952D01*
X152490000Y-67003333D01*
X152442380Y-66908095D01*
X152442380Y-66812857D01*
X152490000Y-66717619D01*
X152537619Y-66670000D01*
X152632857Y-66622380D01*
X152870952Y-66622380D01*
X153013809Y-66670000D01*
X153442380Y-67622380D02*
X153442380Y-66622380D01*
X153775714Y-67336666D01*
X154109047Y-66622380D01*
X154109047Y-67622380D01*
X154537619Y-67336666D02*
X155013809Y-67336666D01*
X154442380Y-67622380D02*
X154775714Y-66622380D01*
X155109047Y-67622380D01*
X155918571Y-67622380D02*
X155442380Y-67622380D01*
X155442380Y-66622380D01*
X156728095Y-67622380D02*
X156251904Y-67622380D01*
X156251904Y-66622380D01*
X157585238Y-67622380D02*
X157013809Y-67622380D01*
X157299523Y-67622380D02*
X157299523Y-66622380D01*
X157204285Y-66765238D01*
X157109047Y-66860476D01*
X157013809Y-66908095D01*
X158204285Y-66622380D02*
X158299523Y-66622380D01*
X158394761Y-66670000D01*
X158442380Y-66717619D01*
X158490000Y-66812857D01*
X158537619Y-67003333D01*
X158537619Y-67241428D01*
X158490000Y-67431904D01*
X158442380Y-67527142D01*
X158394761Y-67574761D01*
X158299523Y-67622380D01*
X158204285Y-67622380D01*
X158109047Y-67574761D01*
X158061428Y-67527142D01*
X158013809Y-67431904D01*
X157966190Y-67241428D01*
X157966190Y-67003333D01*
X158013809Y-66812857D01*
X158061428Y-66717619D01*
X158109047Y-66670000D01*
X158204285Y-66622380D01*
%TO.C,CSMALL9*%
X152567619Y-65147142D02*
X152520000Y-65194761D01*
X152377142Y-65242380D01*
X152281904Y-65242380D01*
X152139047Y-65194761D01*
X152043809Y-65099523D01*
X151996190Y-65004285D01*
X151948571Y-64813809D01*
X151948571Y-64670952D01*
X151996190Y-64480476D01*
X152043809Y-64385238D01*
X152139047Y-64290000D01*
X152281904Y-64242380D01*
X152377142Y-64242380D01*
X152520000Y-64290000D01*
X152567619Y-64337619D01*
X152948571Y-65194761D02*
X153091428Y-65242380D01*
X153329523Y-65242380D01*
X153424761Y-65194761D01*
X153472380Y-65147142D01*
X153520000Y-65051904D01*
X153520000Y-64956666D01*
X153472380Y-64861428D01*
X153424761Y-64813809D01*
X153329523Y-64766190D01*
X153139047Y-64718571D01*
X153043809Y-64670952D01*
X152996190Y-64623333D01*
X152948571Y-64528095D01*
X152948571Y-64432857D01*
X152996190Y-64337619D01*
X153043809Y-64290000D01*
X153139047Y-64242380D01*
X153377142Y-64242380D01*
X153520000Y-64290000D01*
X153948571Y-65242380D02*
X153948571Y-64242380D01*
X154281904Y-64956666D01*
X154615238Y-64242380D01*
X154615238Y-65242380D01*
X155043809Y-64956666D02*
X155520000Y-64956666D01*
X154948571Y-65242380D02*
X155281904Y-64242380D01*
X155615238Y-65242380D01*
X156424761Y-65242380D02*
X155948571Y-65242380D01*
X155948571Y-64242380D01*
X157234285Y-65242380D02*
X156758095Y-65242380D01*
X156758095Y-64242380D01*
X157615238Y-65242380D02*
X157805714Y-65242380D01*
X157900952Y-65194761D01*
X157948571Y-65147142D01*
X158043809Y-65004285D01*
X158091428Y-64813809D01*
X158091428Y-64432857D01*
X158043809Y-64337619D01*
X157996190Y-64290000D01*
X157900952Y-64242380D01*
X157710476Y-64242380D01*
X157615238Y-64290000D01*
X157567619Y-64337619D01*
X157520000Y-64432857D01*
X157520000Y-64670952D01*
X157567619Y-64766190D01*
X157615238Y-64813809D01*
X157710476Y-64861428D01*
X157900952Y-64861428D01*
X157996190Y-64813809D01*
X158043809Y-64766190D01*
X158091428Y-64670952D01*
%TO.C,CSMALL8*%
X152567619Y-62737142D02*
X152520000Y-62784761D01*
X152377142Y-62832380D01*
X152281904Y-62832380D01*
X152139047Y-62784761D01*
X152043809Y-62689523D01*
X151996190Y-62594285D01*
X151948571Y-62403809D01*
X151948571Y-62260952D01*
X151996190Y-62070476D01*
X152043809Y-61975238D01*
X152139047Y-61880000D01*
X152281904Y-61832380D01*
X152377142Y-61832380D01*
X152520000Y-61880000D01*
X152567619Y-61927619D01*
X152948571Y-62784761D02*
X153091428Y-62832380D01*
X153329523Y-62832380D01*
X153424761Y-62784761D01*
X153472380Y-62737142D01*
X153520000Y-62641904D01*
X153520000Y-62546666D01*
X153472380Y-62451428D01*
X153424761Y-62403809D01*
X153329523Y-62356190D01*
X153139047Y-62308571D01*
X153043809Y-62260952D01*
X152996190Y-62213333D01*
X152948571Y-62118095D01*
X152948571Y-62022857D01*
X152996190Y-61927619D01*
X153043809Y-61880000D01*
X153139047Y-61832380D01*
X153377142Y-61832380D01*
X153520000Y-61880000D01*
X153948571Y-62832380D02*
X153948571Y-61832380D01*
X154281904Y-62546666D01*
X154615238Y-61832380D01*
X154615238Y-62832380D01*
X155043809Y-62546666D02*
X155520000Y-62546666D01*
X154948571Y-62832380D02*
X155281904Y-61832380D01*
X155615238Y-62832380D01*
X156424761Y-62832380D02*
X155948571Y-62832380D01*
X155948571Y-61832380D01*
X157234285Y-62832380D02*
X156758095Y-62832380D01*
X156758095Y-61832380D01*
X157710476Y-62260952D02*
X157615238Y-62213333D01*
X157567619Y-62165714D01*
X157520000Y-62070476D01*
X157520000Y-62022857D01*
X157567619Y-61927619D01*
X157615238Y-61880000D01*
X157710476Y-61832380D01*
X157900952Y-61832380D01*
X157996190Y-61880000D01*
X158043809Y-61927619D01*
X158091428Y-62022857D01*
X158091428Y-62070476D01*
X158043809Y-62165714D01*
X157996190Y-62213333D01*
X157900952Y-62260952D01*
X157710476Y-62260952D01*
X157615238Y-62308571D01*
X157567619Y-62356190D01*
X157520000Y-62451428D01*
X157520000Y-62641904D01*
X157567619Y-62737142D01*
X157615238Y-62784761D01*
X157710476Y-62832380D01*
X157900952Y-62832380D01*
X157996190Y-62784761D01*
X158043809Y-62737142D01*
X158091428Y-62641904D01*
X158091428Y-62451428D01*
X158043809Y-62356190D01*
X157996190Y-62308571D01*
X157900952Y-62260952D01*
%TO.C,CSMALL7*%
X152567619Y-60407142D02*
X152520000Y-60454761D01*
X152377142Y-60502380D01*
X152281904Y-60502380D01*
X152139047Y-60454761D01*
X152043809Y-60359523D01*
X151996190Y-60264285D01*
X151948571Y-60073809D01*
X151948571Y-59930952D01*
X151996190Y-59740476D01*
X152043809Y-59645238D01*
X152139047Y-59550000D01*
X152281904Y-59502380D01*
X152377142Y-59502380D01*
X152520000Y-59550000D01*
X152567619Y-59597619D01*
X152948571Y-60454761D02*
X153091428Y-60502380D01*
X153329523Y-60502380D01*
X153424761Y-60454761D01*
X153472380Y-60407142D01*
X153520000Y-60311904D01*
X153520000Y-60216666D01*
X153472380Y-60121428D01*
X153424761Y-60073809D01*
X153329523Y-60026190D01*
X153139047Y-59978571D01*
X153043809Y-59930952D01*
X152996190Y-59883333D01*
X152948571Y-59788095D01*
X152948571Y-59692857D01*
X152996190Y-59597619D01*
X153043809Y-59550000D01*
X153139047Y-59502380D01*
X153377142Y-59502380D01*
X153520000Y-59550000D01*
X153948571Y-60502380D02*
X153948571Y-59502380D01*
X154281904Y-60216666D01*
X154615238Y-59502380D01*
X154615238Y-60502380D01*
X155043809Y-60216666D02*
X155520000Y-60216666D01*
X154948571Y-60502380D02*
X155281904Y-59502380D01*
X155615238Y-60502380D01*
X156424761Y-60502380D02*
X155948571Y-60502380D01*
X155948571Y-59502380D01*
X157234285Y-60502380D02*
X156758095Y-60502380D01*
X156758095Y-59502380D01*
X157472380Y-59502380D02*
X158139047Y-59502380D01*
X157710476Y-60502380D01*
%TO.C,CSMALL6*%
X152567619Y-58027142D02*
X152520000Y-58074761D01*
X152377142Y-58122380D01*
X152281904Y-58122380D01*
X152139047Y-58074761D01*
X152043809Y-57979523D01*
X151996190Y-57884285D01*
X151948571Y-57693809D01*
X151948571Y-57550952D01*
X151996190Y-57360476D01*
X152043809Y-57265238D01*
X152139047Y-57170000D01*
X152281904Y-57122380D01*
X152377142Y-57122380D01*
X152520000Y-57170000D01*
X152567619Y-57217619D01*
X152948571Y-58074761D02*
X153091428Y-58122380D01*
X153329523Y-58122380D01*
X153424761Y-58074761D01*
X153472380Y-58027142D01*
X153520000Y-57931904D01*
X153520000Y-57836666D01*
X153472380Y-57741428D01*
X153424761Y-57693809D01*
X153329523Y-57646190D01*
X153139047Y-57598571D01*
X153043809Y-57550952D01*
X152996190Y-57503333D01*
X152948571Y-57408095D01*
X152948571Y-57312857D01*
X152996190Y-57217619D01*
X153043809Y-57170000D01*
X153139047Y-57122380D01*
X153377142Y-57122380D01*
X153520000Y-57170000D01*
X153948571Y-58122380D02*
X153948571Y-57122380D01*
X154281904Y-57836666D01*
X154615238Y-57122380D01*
X154615238Y-58122380D01*
X155043809Y-57836666D02*
X155520000Y-57836666D01*
X154948571Y-58122380D02*
X155281904Y-57122380D01*
X155615238Y-58122380D01*
X156424761Y-58122380D02*
X155948571Y-58122380D01*
X155948571Y-57122380D01*
X157234285Y-58122380D02*
X156758095Y-58122380D01*
X156758095Y-57122380D01*
X157996190Y-57122380D02*
X157805714Y-57122380D01*
X157710476Y-57170000D01*
X157662857Y-57217619D01*
X157567619Y-57360476D01*
X157520000Y-57550952D01*
X157520000Y-57931904D01*
X157567619Y-58027142D01*
X157615238Y-58074761D01*
X157710476Y-58122380D01*
X157900952Y-58122380D01*
X157996190Y-58074761D01*
X158043809Y-58027142D01*
X158091428Y-57931904D01*
X158091428Y-57693809D01*
X158043809Y-57598571D01*
X157996190Y-57550952D01*
X157900952Y-57503333D01*
X157710476Y-57503333D01*
X157615238Y-57550952D01*
X157567619Y-57598571D01*
X157520000Y-57693809D01*
%TO.C,R10*%
X145632380Y-68122857D02*
X145156190Y-68456190D01*
X145632380Y-68694285D02*
X144632380Y-68694285D01*
X144632380Y-68313333D01*
X144680000Y-68218095D01*
X144727619Y-68170476D01*
X144822857Y-68122857D01*
X144965714Y-68122857D01*
X145060952Y-68170476D01*
X145108571Y-68218095D01*
X145156190Y-68313333D01*
X145156190Y-68694285D01*
X145632380Y-67170476D02*
X145632380Y-67741904D01*
X145632380Y-67456190D02*
X144632380Y-67456190D01*
X144775238Y-67551428D01*
X144870476Y-67646666D01*
X144918095Y-67741904D01*
X144632380Y-66551428D02*
X144632380Y-66456190D01*
X144680000Y-66360952D01*
X144727619Y-66313333D01*
X144822857Y-66265714D01*
X145013333Y-66218095D01*
X145251428Y-66218095D01*
X145441904Y-66265714D01*
X145537142Y-66313333D01*
X145584761Y-66360952D01*
X145632380Y-66456190D01*
X145632380Y-66551428D01*
X145584761Y-66646666D01*
X145537142Y-66694285D01*
X145441904Y-66741904D01*
X145251428Y-66789523D01*
X145013333Y-66789523D01*
X144822857Y-66741904D01*
X144727619Y-66694285D01*
X144680000Y-66646666D01*
X144632380Y-66551428D01*
%TO.C,R9*%
X148412380Y-67646666D02*
X147936190Y-67980000D01*
X148412380Y-68218095D02*
X147412380Y-68218095D01*
X147412380Y-67837142D01*
X147460000Y-67741904D01*
X147507619Y-67694285D01*
X147602857Y-67646666D01*
X147745714Y-67646666D01*
X147840952Y-67694285D01*
X147888571Y-67741904D01*
X147936190Y-67837142D01*
X147936190Y-68218095D01*
X148412380Y-67170476D02*
X148412380Y-66980000D01*
X148364761Y-66884761D01*
X148317142Y-66837142D01*
X148174285Y-66741904D01*
X147983809Y-66694285D01*
X147602857Y-66694285D01*
X147507619Y-66741904D01*
X147460000Y-66789523D01*
X147412380Y-66884761D01*
X147412380Y-67075238D01*
X147460000Y-67170476D01*
X147507619Y-67218095D01*
X147602857Y-67265714D01*
X147840952Y-67265714D01*
X147936190Y-67218095D01*
X147983809Y-67170476D01*
X148031428Y-67075238D01*
X148031428Y-66884761D01*
X147983809Y-66789523D01*
X147936190Y-66741904D01*
X147840952Y-66694285D01*
%TO.C,J7*%
X143982380Y-61263333D02*
X144696666Y-61263333D01*
X144839523Y-61310952D01*
X144934761Y-61406190D01*
X144982380Y-61549047D01*
X144982380Y-61644285D01*
X143982380Y-60882380D02*
X143982380Y-60215714D01*
X144982380Y-60644285D01*
%TO.C,J6*%
X147432380Y-61233333D02*
X148146666Y-61233333D01*
X148289523Y-61280952D01*
X148384761Y-61376190D01*
X148432380Y-61519047D01*
X148432380Y-61614285D01*
X147432380Y-60328571D02*
X147432380Y-60519047D01*
X147480000Y-60614285D01*
X147527619Y-60661904D01*
X147670476Y-60757142D01*
X147860952Y-60804761D01*
X148241904Y-60804761D01*
X148337142Y-60757142D01*
X148384761Y-60709523D01*
X148432380Y-60614285D01*
X148432380Y-60423809D01*
X148384761Y-60328571D01*
X148337142Y-60280952D01*
X148241904Y-60233333D01*
X148003809Y-60233333D01*
X147908571Y-60280952D01*
X147860952Y-60328571D01*
X147813333Y-60423809D01*
X147813333Y-60614285D01*
X147860952Y-60709523D01*
X147908571Y-60757142D01*
X148003809Y-60804761D01*
%TO.C,J4*%
X173002380Y-79233333D02*
X173716666Y-79233333D01*
X173859523Y-79280952D01*
X173954761Y-79376190D01*
X174002380Y-79519047D01*
X174002380Y-79614285D01*
X173335714Y-78328571D02*
X174002380Y-78328571D01*
X172954761Y-78566666D02*
X173669047Y-78804761D01*
X173669047Y-78185714D01*
D11*
X174890714Y-80944285D02*
X174855000Y-80908571D01*
X174819285Y-80837142D01*
X174819285Y-80658571D01*
X174855000Y-80587142D01*
X174890714Y-80551428D01*
X174962142Y-80515714D01*
X175033571Y-80515714D01*
X175140714Y-80551428D01*
X175569285Y-80980000D01*
X175569285Y-80515714D01*
X174855000Y-74101428D02*
X174819285Y-74172857D01*
X174819285Y-74280000D01*
X174855000Y-74387142D01*
X174926428Y-74458571D01*
X174997857Y-74494285D01*
X175140714Y-74530000D01*
X175247857Y-74530000D01*
X175390714Y-74494285D01*
X175462142Y-74458571D01*
X175533571Y-74387142D01*
X175569285Y-74280000D01*
X175569285Y-74208571D01*
X175533571Y-74101428D01*
X175497857Y-74065714D01*
X175247857Y-74065714D01*
X175247857Y-74208571D01*
X175569285Y-73744285D02*
X174819285Y-73744285D01*
X175569285Y-73315714D01*
X174819285Y-73315714D01*
X175569285Y-72958571D02*
X174819285Y-72958571D01*
X174819285Y-72780000D01*
X174855000Y-72672857D01*
X174926428Y-72601428D01*
X174997857Y-72565714D01*
X175140714Y-72530000D01*
X175247857Y-72530000D01*
X175390714Y-72565714D01*
X175462142Y-72601428D01*
X175533571Y-72672857D01*
X175569285Y-72780000D01*
X175569285Y-72958571D01*
X174819285Y-77380000D02*
X174819285Y-76915714D01*
X175105000Y-77165714D01*
X175105000Y-77058571D01*
X175140714Y-76987142D01*
X175176428Y-76951428D01*
X175247857Y-76915714D01*
X175426428Y-76915714D01*
X175497857Y-76951428D01*
X175533571Y-76987142D01*
X175569285Y-77058571D01*
X175569285Y-77272857D01*
X175533571Y-77344285D01*
X175497857Y-77380000D01*
X175569285Y-84115714D02*
X175569285Y-84544285D01*
X175569285Y-84330000D02*
X174819285Y-84330000D01*
X174926428Y-84401428D01*
X174997857Y-84472857D01*
X175033571Y-84544285D01*
D10*
%TO.C,J9*%
X107746666Y-103737380D02*
X107746666Y-104451666D01*
X107699047Y-104594523D01*
X107603809Y-104689761D01*
X107460952Y-104737380D01*
X107365714Y-104737380D01*
X108270476Y-104737380D02*
X108460952Y-104737380D01*
X108556190Y-104689761D01*
X108603809Y-104642142D01*
X108699047Y-104499285D01*
X108746666Y-104308809D01*
X108746666Y-103927857D01*
X108699047Y-103832619D01*
X108651428Y-103785000D01*
X108556190Y-103737380D01*
X108365714Y-103737380D01*
X108270476Y-103785000D01*
X108222857Y-103832619D01*
X108175238Y-103927857D01*
X108175238Y-104165952D01*
X108222857Y-104261190D01*
X108270476Y-104308809D01*
X108365714Y-104356428D01*
X108556190Y-104356428D01*
X108651428Y-104308809D01*
X108699047Y-104261190D01*
X108746666Y-104165952D01*
%TO.C,U7*%
X117848095Y-95382380D02*
X117848095Y-96191904D01*
X117895714Y-96287142D01*
X117943333Y-96334761D01*
X118038571Y-96382380D01*
X118229047Y-96382380D01*
X118324285Y-96334761D01*
X118371904Y-96287142D01*
X118419523Y-96191904D01*
X118419523Y-95382380D01*
X118800476Y-95382380D02*
X119467142Y-95382380D01*
X119038571Y-96382380D01*
%TO.C,U6*%
X100242380Y-101361904D02*
X101051904Y-101361904D01*
X101147142Y-101314285D01*
X101194761Y-101266666D01*
X101242380Y-101171428D01*
X101242380Y-100980952D01*
X101194761Y-100885714D01*
X101147142Y-100838095D01*
X101051904Y-100790476D01*
X100242380Y-100790476D01*
X100242380Y-99885714D02*
X100242380Y-100076190D01*
X100290000Y-100171428D01*
X100337619Y-100219047D01*
X100480476Y-100314285D01*
X100670952Y-100361904D01*
X101051904Y-100361904D01*
X101147142Y-100314285D01*
X101194761Y-100266666D01*
X101242380Y-100171428D01*
X101242380Y-99980952D01*
X101194761Y-99885714D01*
X101147142Y-99838095D01*
X101051904Y-99790476D01*
X100813809Y-99790476D01*
X100718571Y-99838095D01*
X100670952Y-99885714D01*
X100623333Y-99980952D01*
X100623333Y-100171428D01*
X100670952Y-100266666D01*
X100718571Y-100314285D01*
X100813809Y-100361904D01*
%TO.C,R15*%
X115117142Y-68252380D02*
X114783809Y-67776190D01*
X114545714Y-68252380D02*
X114545714Y-67252380D01*
X114926666Y-67252380D01*
X115021904Y-67300000D01*
X115069523Y-67347619D01*
X115117142Y-67442857D01*
X115117142Y-67585714D01*
X115069523Y-67680952D01*
X115021904Y-67728571D01*
X114926666Y-67776190D01*
X114545714Y-67776190D01*
X116069523Y-68252380D02*
X115498095Y-68252380D01*
X115783809Y-68252380D02*
X115783809Y-67252380D01*
X115688571Y-67395238D01*
X115593333Y-67490476D01*
X115498095Y-67538095D01*
X116974285Y-67252380D02*
X116498095Y-67252380D01*
X116450476Y-67728571D01*
X116498095Y-67680952D01*
X116593333Y-67633333D01*
X116831428Y-67633333D01*
X116926666Y-67680952D01*
X116974285Y-67728571D01*
X117021904Y-67823809D01*
X117021904Y-68061904D01*
X116974285Y-68157142D01*
X116926666Y-68204761D01*
X116831428Y-68252380D01*
X116593333Y-68252380D01*
X116498095Y-68204761D01*
X116450476Y-68157142D01*
%TO.C,R14*%
X113437142Y-65702380D02*
X113103809Y-65226190D01*
X112865714Y-65702380D02*
X112865714Y-64702380D01*
X113246666Y-64702380D01*
X113341904Y-64750000D01*
X113389523Y-64797619D01*
X113437142Y-64892857D01*
X113437142Y-65035714D01*
X113389523Y-65130952D01*
X113341904Y-65178571D01*
X113246666Y-65226190D01*
X112865714Y-65226190D01*
X114389523Y-65702380D02*
X113818095Y-65702380D01*
X114103809Y-65702380D02*
X114103809Y-64702380D01*
X114008571Y-64845238D01*
X113913333Y-64940476D01*
X113818095Y-64988095D01*
X115246666Y-65035714D02*
X115246666Y-65702380D01*
X115008571Y-64654761D02*
X114770476Y-65369047D01*
X115389523Y-65369047D01*
%TO.C,R11*%
X120982380Y-70892857D02*
X120506190Y-71226190D01*
X120982380Y-71464285D02*
X119982380Y-71464285D01*
X119982380Y-71083333D01*
X120030000Y-70988095D01*
X120077619Y-70940476D01*
X120172857Y-70892857D01*
X120315714Y-70892857D01*
X120410952Y-70940476D01*
X120458571Y-70988095D01*
X120506190Y-71083333D01*
X120506190Y-71464285D01*
X120982380Y-69940476D02*
X120982380Y-70511904D01*
X120982380Y-70226190D02*
X119982380Y-70226190D01*
X120125238Y-70321428D01*
X120220476Y-70416666D01*
X120268095Y-70511904D01*
X120982380Y-68988095D02*
X120982380Y-69559523D01*
X120982380Y-69273809D02*
X119982380Y-69273809D01*
X120125238Y-69369047D01*
X120220476Y-69464285D01*
X120268095Y-69559523D01*
%TO.C,R8*%
X123422380Y-92796666D02*
X122946190Y-93130000D01*
X123422380Y-93368095D02*
X122422380Y-93368095D01*
X122422380Y-92987142D01*
X122470000Y-92891904D01*
X122517619Y-92844285D01*
X122612857Y-92796666D01*
X122755714Y-92796666D01*
X122850952Y-92844285D01*
X122898571Y-92891904D01*
X122946190Y-92987142D01*
X122946190Y-93368095D01*
X122850952Y-92225238D02*
X122803333Y-92320476D01*
X122755714Y-92368095D01*
X122660476Y-92415714D01*
X122612857Y-92415714D01*
X122517619Y-92368095D01*
X122470000Y-92320476D01*
X122422380Y-92225238D01*
X122422380Y-92034761D01*
X122470000Y-91939523D01*
X122517619Y-91891904D01*
X122612857Y-91844285D01*
X122660476Y-91844285D01*
X122755714Y-91891904D01*
X122803333Y-91939523D01*
X122850952Y-92034761D01*
X122850952Y-92225238D01*
X122898571Y-92320476D01*
X122946190Y-92368095D01*
X123041428Y-92415714D01*
X123231904Y-92415714D01*
X123327142Y-92368095D01*
X123374761Y-92320476D01*
X123422380Y-92225238D01*
X123422380Y-92034761D01*
X123374761Y-91939523D01*
X123327142Y-91891904D01*
X123231904Y-91844285D01*
X123041428Y-91844285D01*
X122946190Y-91891904D01*
X122898571Y-91939523D01*
X122850952Y-92034761D01*
%TO.C,R7*%
X125812380Y-92796666D02*
X125336190Y-93130000D01*
X125812380Y-93368095D02*
X124812380Y-93368095D01*
X124812380Y-92987142D01*
X124860000Y-92891904D01*
X124907619Y-92844285D01*
X125002857Y-92796666D01*
X125145714Y-92796666D01*
X125240952Y-92844285D01*
X125288571Y-92891904D01*
X125336190Y-92987142D01*
X125336190Y-93368095D01*
X124812380Y-92463333D02*
X124812380Y-91796666D01*
X125812380Y-92225238D01*
%TO.C,R6*%
X125703333Y-91252380D02*
X125370000Y-90776190D01*
X125131904Y-91252380D02*
X125131904Y-90252380D01*
X125512857Y-90252380D01*
X125608095Y-90300000D01*
X125655714Y-90347619D01*
X125703333Y-90442857D01*
X125703333Y-90585714D01*
X125655714Y-90680952D01*
X125608095Y-90728571D01*
X125512857Y-90776190D01*
X125131904Y-90776190D01*
X126560476Y-90252380D02*
X126370000Y-90252380D01*
X126274761Y-90300000D01*
X126227142Y-90347619D01*
X126131904Y-90490476D01*
X126084285Y-90680952D01*
X126084285Y-91061904D01*
X126131904Y-91157142D01*
X126179523Y-91204761D01*
X126274761Y-91252380D01*
X126465238Y-91252380D01*
X126560476Y-91204761D01*
X126608095Y-91157142D01*
X126655714Y-91061904D01*
X126655714Y-90823809D01*
X126608095Y-90728571D01*
X126560476Y-90680952D01*
X126465238Y-90633333D01*
X126274761Y-90633333D01*
X126179523Y-90680952D01*
X126131904Y-90728571D01*
X126084285Y-90823809D01*
%TO.C,R5*%
X163243333Y-112872380D02*
X162910000Y-112396190D01*
X162671904Y-112872380D02*
X162671904Y-111872380D01*
X163052857Y-111872380D01*
X163148095Y-111920000D01*
X163195714Y-111967619D01*
X163243333Y-112062857D01*
X163243333Y-112205714D01*
X163195714Y-112300952D01*
X163148095Y-112348571D01*
X163052857Y-112396190D01*
X162671904Y-112396190D01*
X164148095Y-111872380D02*
X163671904Y-111872380D01*
X163624285Y-112348571D01*
X163671904Y-112300952D01*
X163767142Y-112253333D01*
X164005238Y-112253333D01*
X164100476Y-112300952D01*
X164148095Y-112348571D01*
X164195714Y-112443809D01*
X164195714Y-112681904D01*
X164148095Y-112777142D01*
X164100476Y-112824761D01*
X164005238Y-112872380D01*
X163767142Y-112872380D01*
X163671904Y-112824761D01*
X163624285Y-112777142D01*
%TO.C,Q4*%
X120174761Y-116587619D02*
X120079523Y-116540000D01*
X119984285Y-116444761D01*
X119841428Y-116301904D01*
X119746190Y-116254285D01*
X119650952Y-116254285D01*
X119698571Y-116492380D02*
X119603333Y-116444761D01*
X119508095Y-116349523D01*
X119460476Y-116159047D01*
X119460476Y-115825714D01*
X119508095Y-115635238D01*
X119603333Y-115540000D01*
X119698571Y-115492380D01*
X119889047Y-115492380D01*
X119984285Y-115540000D01*
X120079523Y-115635238D01*
X120127142Y-115825714D01*
X120127142Y-116159047D01*
X120079523Y-116349523D01*
X119984285Y-116444761D01*
X119889047Y-116492380D01*
X119698571Y-116492380D01*
X120984285Y-115825714D02*
X120984285Y-116492380D01*
X120746190Y-115444761D02*
X120508095Y-116159047D01*
X121127142Y-116159047D01*
%TO.C,Q3*%
X133947619Y-92125238D02*
X133900000Y-92220476D01*
X133804761Y-92315714D01*
X133661904Y-92458571D01*
X133614285Y-92553809D01*
X133614285Y-92649047D01*
X133852380Y-92601428D02*
X133804761Y-92696666D01*
X133709523Y-92791904D01*
X133519047Y-92839523D01*
X133185714Y-92839523D01*
X132995238Y-92791904D01*
X132900000Y-92696666D01*
X132852380Y-92601428D01*
X132852380Y-92410952D01*
X132900000Y-92315714D01*
X132995238Y-92220476D01*
X133185714Y-92172857D01*
X133519047Y-92172857D01*
X133709523Y-92220476D01*
X133804761Y-92315714D01*
X133852380Y-92410952D01*
X133852380Y-92601428D01*
X132852380Y-91839523D02*
X132852380Y-91220476D01*
X133233333Y-91553809D01*
X133233333Y-91410952D01*
X133280952Y-91315714D01*
X133328571Y-91268095D01*
X133423809Y-91220476D01*
X133661904Y-91220476D01*
X133757142Y-91268095D01*
X133804761Y-91315714D01*
X133852380Y-91410952D01*
X133852380Y-91696666D01*
X133804761Y-91791904D01*
X133757142Y-91839523D01*
%TO.C,Q2*%
X139127619Y-92205238D02*
X139080000Y-92300476D01*
X138984761Y-92395714D01*
X138841904Y-92538571D01*
X138794285Y-92633809D01*
X138794285Y-92729047D01*
X139032380Y-92681428D02*
X138984761Y-92776666D01*
X138889523Y-92871904D01*
X138699047Y-92919523D01*
X138365714Y-92919523D01*
X138175238Y-92871904D01*
X138080000Y-92776666D01*
X138032380Y-92681428D01*
X138032380Y-92490952D01*
X138080000Y-92395714D01*
X138175238Y-92300476D01*
X138365714Y-92252857D01*
X138699047Y-92252857D01*
X138889523Y-92300476D01*
X138984761Y-92395714D01*
X139032380Y-92490952D01*
X139032380Y-92681428D01*
X138127619Y-91871904D02*
X138080000Y-91824285D01*
X138032380Y-91729047D01*
X138032380Y-91490952D01*
X138080000Y-91395714D01*
X138127619Y-91348095D01*
X138222857Y-91300476D01*
X138318095Y-91300476D01*
X138460952Y-91348095D01*
X139032380Y-91919523D01*
X139032380Y-91300476D01*
%TO.C,Q1*%
X96084761Y-106437619D02*
X95989523Y-106390000D01*
X95894285Y-106294761D01*
X95751428Y-106151904D01*
X95656190Y-106104285D01*
X95560952Y-106104285D01*
X95608571Y-106342380D02*
X95513333Y-106294761D01*
X95418095Y-106199523D01*
X95370476Y-106009047D01*
X95370476Y-105675714D01*
X95418095Y-105485238D01*
X95513333Y-105390000D01*
X95608571Y-105342380D01*
X95799047Y-105342380D01*
X95894285Y-105390000D01*
X95989523Y-105485238D01*
X96037142Y-105675714D01*
X96037142Y-106009047D01*
X95989523Y-106199523D01*
X95894285Y-106294761D01*
X95799047Y-106342380D01*
X95608571Y-106342380D01*
X96989523Y-106342380D02*
X96418095Y-106342380D01*
X96703809Y-106342380D02*
X96703809Y-105342380D01*
X96608571Y-105485238D01*
X96513333Y-105580476D01*
X96418095Y-105628095D01*
%TO.C,J5*%
X117116666Y-56422380D02*
X117116666Y-57136666D01*
X117069047Y-57279523D01*
X116973809Y-57374761D01*
X116830952Y-57422380D01*
X116735714Y-57422380D01*
X118069047Y-56422380D02*
X117592857Y-56422380D01*
X117545238Y-56898571D01*
X117592857Y-56850952D01*
X117688095Y-56803333D01*
X117926190Y-56803333D01*
X118021428Y-56850952D01*
X118069047Y-56898571D01*
X118116666Y-56993809D01*
X118116666Y-57231904D01*
X118069047Y-57327142D01*
X118021428Y-57374761D01*
X117926190Y-57422380D01*
X117688095Y-57422380D01*
X117592857Y-57374761D01*
X117545238Y-57327142D01*
D11*
X115405714Y-58310714D02*
X115441428Y-58275000D01*
X115512857Y-58239285D01*
X115691428Y-58239285D01*
X115762857Y-58275000D01*
X115798571Y-58310714D01*
X115834285Y-58382142D01*
X115834285Y-58453571D01*
X115798571Y-58560714D01*
X115370000Y-58989285D01*
X115834285Y-58989285D01*
X122248571Y-58275000D02*
X122177142Y-58239285D01*
X122070000Y-58239285D01*
X121962857Y-58275000D01*
X121891428Y-58346428D01*
X121855714Y-58417857D01*
X121820000Y-58560714D01*
X121820000Y-58667857D01*
X121855714Y-58810714D01*
X121891428Y-58882142D01*
X121962857Y-58953571D01*
X122070000Y-58989285D01*
X122141428Y-58989285D01*
X122248571Y-58953571D01*
X122284285Y-58917857D01*
X122284285Y-58667857D01*
X122141428Y-58667857D01*
X122605714Y-58989285D02*
X122605714Y-58239285D01*
X123034285Y-58989285D01*
X123034285Y-58239285D01*
X123391428Y-58989285D02*
X123391428Y-58239285D01*
X123570000Y-58239285D01*
X123677142Y-58275000D01*
X123748571Y-58346428D01*
X123784285Y-58417857D01*
X123820000Y-58560714D01*
X123820000Y-58667857D01*
X123784285Y-58810714D01*
X123748571Y-58882142D01*
X123677142Y-58953571D01*
X123570000Y-58989285D01*
X123391428Y-58989285D01*
X118970000Y-58239285D02*
X119434285Y-58239285D01*
X119184285Y-58525000D01*
X119291428Y-58525000D01*
X119362857Y-58560714D01*
X119398571Y-58596428D01*
X119434285Y-58667857D01*
X119434285Y-58846428D01*
X119398571Y-58917857D01*
X119362857Y-58953571D01*
X119291428Y-58989285D01*
X119077142Y-58989285D01*
X119005714Y-58953571D01*
X118970000Y-58917857D01*
X112234285Y-58989285D02*
X111805714Y-58989285D01*
X112020000Y-58989285D02*
X112020000Y-58239285D01*
X111948571Y-58346428D01*
X111877142Y-58417857D01*
X111805714Y-58453571D01*
D10*
%TO.C,U8*%
X146052380Y-107361904D02*
X146861904Y-107361904D01*
X146957142Y-107314285D01*
X147004761Y-107266666D01*
X147052380Y-107171428D01*
X147052380Y-106980952D01*
X147004761Y-106885714D01*
X146957142Y-106838095D01*
X146861904Y-106790476D01*
X146052380Y-106790476D01*
X146480952Y-106171428D02*
X146433333Y-106266666D01*
X146385714Y-106314285D01*
X146290476Y-106361904D01*
X146242857Y-106361904D01*
X146147619Y-106314285D01*
X146100000Y-106266666D01*
X146052380Y-106171428D01*
X146052380Y-105980952D01*
X146100000Y-105885714D01*
X146147619Y-105838095D01*
X146242857Y-105790476D01*
X146290476Y-105790476D01*
X146385714Y-105838095D01*
X146433333Y-105885714D01*
X146480952Y-105980952D01*
X146480952Y-106171428D01*
X146528571Y-106266666D01*
X146576190Y-106314285D01*
X146671428Y-106361904D01*
X146861904Y-106361904D01*
X146957142Y-106314285D01*
X147004761Y-106266666D01*
X147052380Y-106171428D01*
X147052380Y-105980952D01*
X147004761Y-105885714D01*
X146957142Y-105838095D01*
X146861904Y-105790476D01*
X146671428Y-105790476D01*
X146576190Y-105838095D01*
X146528571Y-105885714D01*
X146480952Y-105980952D01*
%TO.C,SW2*%
X162333333Y-119395238D02*
X162190476Y-119347619D01*
X161952380Y-119347619D01*
X161857142Y-119395238D01*
X161809523Y-119442857D01*
X161761904Y-119538095D01*
X161761904Y-119633333D01*
X161809523Y-119728571D01*
X161857142Y-119776190D01*
X161952380Y-119823809D01*
X162142857Y-119871428D01*
X162238095Y-119919047D01*
X162285714Y-119966666D01*
X162333333Y-120061904D01*
X162333333Y-120157142D01*
X162285714Y-120252380D01*
X162238095Y-120300000D01*
X162142857Y-120347619D01*
X161904761Y-120347619D01*
X161761904Y-120300000D01*
X161428571Y-120347619D02*
X161190476Y-119347619D01*
X161000000Y-120061904D01*
X160809523Y-119347619D01*
X160571428Y-120347619D01*
X160238095Y-120252380D02*
X160190476Y-120300000D01*
X160095238Y-120347619D01*
X159857142Y-120347619D01*
X159761904Y-120300000D01*
X159714285Y-120252380D01*
X159666666Y-120157142D01*
X159666666Y-120061904D01*
X159714285Y-119919047D01*
X160285714Y-119347619D01*
X159666666Y-119347619D01*
%TO.C,SW1*%
X139286666Y-107834761D02*
X139429523Y-107882380D01*
X139667619Y-107882380D01*
X139762857Y-107834761D01*
X139810476Y-107787142D01*
X139858095Y-107691904D01*
X139858095Y-107596666D01*
X139810476Y-107501428D01*
X139762857Y-107453809D01*
X139667619Y-107406190D01*
X139477142Y-107358571D01*
X139381904Y-107310952D01*
X139334285Y-107263333D01*
X139286666Y-107168095D01*
X139286666Y-107072857D01*
X139334285Y-106977619D01*
X139381904Y-106930000D01*
X139477142Y-106882380D01*
X139715238Y-106882380D01*
X139858095Y-106930000D01*
X140191428Y-106882380D02*
X140429523Y-107882380D01*
X140620000Y-107168095D01*
X140810476Y-107882380D01*
X141048571Y-106882380D01*
X141953333Y-107882380D02*
X141381904Y-107882380D01*
X141667619Y-107882380D02*
X141667619Y-106882380D01*
X141572380Y-107025238D01*
X141477142Y-107120476D01*
X141381904Y-107168095D01*
%TO.C,R13*%
X147057142Y-100572380D02*
X146723809Y-100096190D01*
X146485714Y-100572380D02*
X146485714Y-99572380D01*
X146866666Y-99572380D01*
X146961904Y-99620000D01*
X147009523Y-99667619D01*
X147057142Y-99762857D01*
X147057142Y-99905714D01*
X147009523Y-100000952D01*
X146961904Y-100048571D01*
X146866666Y-100096190D01*
X146485714Y-100096190D01*
X148009523Y-100572380D02*
X147438095Y-100572380D01*
X147723809Y-100572380D02*
X147723809Y-99572380D01*
X147628571Y-99715238D01*
X147533333Y-99810476D01*
X147438095Y-99858095D01*
X148342857Y-99572380D02*
X148961904Y-99572380D01*
X148628571Y-99953333D01*
X148771428Y-99953333D01*
X148866666Y-100000952D01*
X148914285Y-100048571D01*
X148961904Y-100143809D01*
X148961904Y-100381904D01*
X148914285Y-100477142D01*
X148866666Y-100524761D01*
X148771428Y-100572380D01*
X148485714Y-100572380D01*
X148390476Y-100524761D01*
X148342857Y-100477142D01*
%TO.C,R12*%
X152057142Y-96932380D02*
X151723809Y-96456190D01*
X151485714Y-96932380D02*
X151485714Y-95932380D01*
X151866666Y-95932380D01*
X151961904Y-95980000D01*
X152009523Y-96027619D01*
X152057142Y-96122857D01*
X152057142Y-96265714D01*
X152009523Y-96360952D01*
X151961904Y-96408571D01*
X151866666Y-96456190D01*
X151485714Y-96456190D01*
X153009523Y-96932380D02*
X152438095Y-96932380D01*
X152723809Y-96932380D02*
X152723809Y-95932380D01*
X152628571Y-96075238D01*
X152533333Y-96170476D01*
X152438095Y-96218095D01*
X153390476Y-96027619D02*
X153438095Y-95980000D01*
X153533333Y-95932380D01*
X153771428Y-95932380D01*
X153866666Y-95980000D01*
X153914285Y-96027619D01*
X153961904Y-96122857D01*
X153961904Y-96218095D01*
X153914285Y-96360952D01*
X153342857Y-96932380D01*
X153961904Y-96932380D01*
%TO.C,Q6*%
X152304761Y-104347619D02*
X152209523Y-104300000D01*
X152114285Y-104204761D01*
X151971428Y-104061904D01*
X151876190Y-104014285D01*
X151780952Y-104014285D01*
X151828571Y-104252380D02*
X151733333Y-104204761D01*
X151638095Y-104109523D01*
X151590476Y-103919047D01*
X151590476Y-103585714D01*
X151638095Y-103395238D01*
X151733333Y-103300000D01*
X151828571Y-103252380D01*
X152019047Y-103252380D01*
X152114285Y-103300000D01*
X152209523Y-103395238D01*
X152257142Y-103585714D01*
X152257142Y-103919047D01*
X152209523Y-104109523D01*
X152114285Y-104204761D01*
X152019047Y-104252380D01*
X151828571Y-104252380D01*
X153114285Y-103252380D02*
X152923809Y-103252380D01*
X152828571Y-103300000D01*
X152780952Y-103347619D01*
X152685714Y-103490476D01*
X152638095Y-103680952D01*
X152638095Y-104061904D01*
X152685714Y-104157142D01*
X152733333Y-104204761D01*
X152828571Y-104252380D01*
X153019047Y-104252380D01*
X153114285Y-104204761D01*
X153161904Y-104157142D01*
X153209523Y-104061904D01*
X153209523Y-103823809D01*
X153161904Y-103728571D01*
X153114285Y-103680952D01*
X153019047Y-103633333D01*
X152828571Y-103633333D01*
X152733333Y-103680952D01*
X152685714Y-103728571D01*
X152638095Y-103823809D01*
%TO.C,Q5*%
X147704761Y-99547619D02*
X147609523Y-99500000D01*
X147514285Y-99404761D01*
X147371428Y-99261904D01*
X147276190Y-99214285D01*
X147180952Y-99214285D01*
X147228571Y-99452380D02*
X147133333Y-99404761D01*
X147038095Y-99309523D01*
X146990476Y-99119047D01*
X146990476Y-98785714D01*
X147038095Y-98595238D01*
X147133333Y-98500000D01*
X147228571Y-98452380D01*
X147419047Y-98452380D01*
X147514285Y-98500000D01*
X147609523Y-98595238D01*
X147657142Y-98785714D01*
X147657142Y-99119047D01*
X147609523Y-99309523D01*
X147514285Y-99404761D01*
X147419047Y-99452380D01*
X147228571Y-99452380D01*
X148561904Y-98452380D02*
X148085714Y-98452380D01*
X148038095Y-98928571D01*
X148085714Y-98880952D01*
X148180952Y-98833333D01*
X148419047Y-98833333D01*
X148514285Y-98880952D01*
X148561904Y-98928571D01*
X148609523Y-99023809D01*
X148609523Y-99261904D01*
X148561904Y-99357142D01*
X148514285Y-99404761D01*
X148419047Y-99452380D01*
X148180952Y-99452380D01*
X148085714Y-99404761D01*
X148038095Y-99357142D01*
%TO.C,CSMALL1*%
X112907142Y-95052380D02*
X112954761Y-95100000D01*
X113002380Y-95242857D01*
X113002380Y-95338095D01*
X112954761Y-95480952D01*
X112859523Y-95576190D01*
X112764285Y-95623809D01*
X112573809Y-95671428D01*
X112430952Y-95671428D01*
X112240476Y-95623809D01*
X112145238Y-95576190D01*
X112050000Y-95480952D01*
X112002380Y-95338095D01*
X112002380Y-95242857D01*
X112050000Y-95100000D01*
X112097619Y-95052380D01*
X112954761Y-94671428D02*
X113002380Y-94528571D01*
X113002380Y-94290476D01*
X112954761Y-94195238D01*
X112907142Y-94147619D01*
X112811904Y-94100000D01*
X112716666Y-94100000D01*
X112621428Y-94147619D01*
X112573809Y-94195238D01*
X112526190Y-94290476D01*
X112478571Y-94480952D01*
X112430952Y-94576190D01*
X112383333Y-94623809D01*
X112288095Y-94671428D01*
X112192857Y-94671428D01*
X112097619Y-94623809D01*
X112050000Y-94576190D01*
X112002380Y-94480952D01*
X112002380Y-94242857D01*
X112050000Y-94100000D01*
X113002380Y-93671428D02*
X112002380Y-93671428D01*
X112716666Y-93338095D01*
X112002380Y-93004761D01*
X113002380Y-93004761D01*
X112716666Y-92576190D02*
X112716666Y-92100000D01*
X113002380Y-92671428D02*
X112002380Y-92338095D01*
X113002380Y-92004761D01*
X113002380Y-91195238D02*
X113002380Y-91671428D01*
X112002380Y-91671428D01*
X113002380Y-90385714D02*
X113002380Y-90861904D01*
X112002380Y-90861904D01*
X113002380Y-89528571D02*
X113002380Y-90100000D01*
X113002380Y-89814285D02*
X112002380Y-89814285D01*
X112145238Y-89909523D01*
X112240476Y-90004761D01*
X112288095Y-90100000D01*
%TO.C,J8*%
X150366666Y-109639880D02*
X150366666Y-110354166D01*
X150319047Y-110497023D01*
X150223809Y-110592261D01*
X150080952Y-110639880D01*
X149985714Y-110639880D01*
X150985714Y-110068452D02*
X150890476Y-110020833D01*
X150842857Y-109973214D01*
X150795238Y-109877976D01*
X150795238Y-109830357D01*
X150842857Y-109735119D01*
X150890476Y-109687500D01*
X150985714Y-109639880D01*
X151176190Y-109639880D01*
X151271428Y-109687500D01*
X151319047Y-109735119D01*
X151366666Y-109830357D01*
X151366666Y-109877976D01*
X151319047Y-109973214D01*
X151271428Y-110020833D01*
X151176190Y-110068452D01*
X150985714Y-110068452D01*
X150890476Y-110116071D01*
X150842857Y-110163690D01*
X150795238Y-110258928D01*
X150795238Y-110449404D01*
X150842857Y-110544642D01*
X150890476Y-110592261D01*
X150985714Y-110639880D01*
X151176190Y-110639880D01*
X151271428Y-110592261D01*
X151319047Y-110544642D01*
X151366666Y-110449404D01*
X151366666Y-110258928D01*
X151319047Y-110163690D01*
X151271428Y-110116071D01*
X151176190Y-110068452D01*
%TO.C,J3*%
X179402380Y-100933333D02*
X180116666Y-100933333D01*
X180259523Y-100980952D01*
X180354761Y-101076190D01*
X180402380Y-101219047D01*
X180402380Y-101314285D01*
X179402380Y-100552380D02*
X179402380Y-99933333D01*
X179783333Y-100266666D01*
X179783333Y-100123809D01*
X179830952Y-100028571D01*
X179878571Y-99980952D01*
X179973809Y-99933333D01*
X180211904Y-99933333D01*
X180307142Y-99980952D01*
X180354761Y-100028571D01*
X180402380Y-100123809D01*
X180402380Y-100409523D01*
X180354761Y-100504761D01*
X180307142Y-100552380D01*
%TO.C,RB2*%
X103232380Y-93366666D02*
X102756190Y-93700000D01*
X103232380Y-93938095D02*
X102232380Y-93938095D01*
X102232380Y-93557142D01*
X102280000Y-93461904D01*
X102327619Y-93414285D01*
X102422857Y-93366666D01*
X102565714Y-93366666D01*
X102660952Y-93414285D01*
X102708571Y-93461904D01*
X102756190Y-93557142D01*
X102756190Y-93938095D01*
X102708571Y-92604761D02*
X102756190Y-92461904D01*
X102803809Y-92414285D01*
X102899047Y-92366666D01*
X103041904Y-92366666D01*
X103137142Y-92414285D01*
X103184761Y-92461904D01*
X103232380Y-92557142D01*
X103232380Y-92938095D01*
X102232380Y-92938095D01*
X102232380Y-92604761D01*
X102280000Y-92509523D01*
X102327619Y-92461904D01*
X102422857Y-92414285D01*
X102518095Y-92414285D01*
X102613333Y-92461904D01*
X102660952Y-92509523D01*
X102708571Y-92604761D01*
X102708571Y-92938095D01*
X102327619Y-91985714D02*
X102280000Y-91938095D01*
X102232380Y-91842857D01*
X102232380Y-91604761D01*
X102280000Y-91509523D01*
X102327619Y-91461904D01*
X102422857Y-91414285D01*
X102518095Y-91414285D01*
X102660952Y-91461904D01*
X103232380Y-92033333D01*
X103232380Y-91414285D01*
%TO.C,COUT1*%
X96457142Y-75595238D02*
X96504761Y-75642857D01*
X96552380Y-75785714D01*
X96552380Y-75880952D01*
X96504761Y-76023809D01*
X96409523Y-76119047D01*
X96314285Y-76166666D01*
X96123809Y-76214285D01*
X95980952Y-76214285D01*
X95790476Y-76166666D01*
X95695238Y-76119047D01*
X95600000Y-76023809D01*
X95552380Y-75880952D01*
X95552380Y-75785714D01*
X95600000Y-75642857D01*
X95647619Y-75595238D01*
X95552380Y-74976190D02*
X95552380Y-74785714D01*
X95600000Y-74690476D01*
X95695238Y-74595238D01*
X95885714Y-74547619D01*
X96219047Y-74547619D01*
X96409523Y-74595238D01*
X96504761Y-74690476D01*
X96552380Y-74785714D01*
X96552380Y-74976190D01*
X96504761Y-75071428D01*
X96409523Y-75166666D01*
X96219047Y-75214285D01*
X95885714Y-75214285D01*
X95695238Y-75166666D01*
X95600000Y-75071428D01*
X95552380Y-74976190D01*
X95552380Y-74119047D02*
X96361904Y-74119047D01*
X96457142Y-74071428D01*
X96504761Y-74023809D01*
X96552380Y-73928571D01*
X96552380Y-73738095D01*
X96504761Y-73642857D01*
X96457142Y-73595238D01*
X96361904Y-73547619D01*
X95552380Y-73547619D01*
X95552380Y-73214285D02*
X95552380Y-72642857D01*
X96552380Y-72928571D02*
X95552380Y-72928571D01*
X96552380Y-71785714D02*
X96552380Y-72357142D01*
X96552380Y-72071428D02*
X95552380Y-72071428D01*
X95695238Y-72166666D01*
X95790476Y-72261904D01*
X95838095Y-72357142D01*
%TO.C,COUT2*%
X106004761Y-69357142D02*
X105957142Y-69404761D01*
X105814285Y-69452380D01*
X105719047Y-69452380D01*
X105576190Y-69404761D01*
X105480952Y-69309523D01*
X105433333Y-69214285D01*
X105385714Y-69023809D01*
X105385714Y-68880952D01*
X105433333Y-68690476D01*
X105480952Y-68595238D01*
X105576190Y-68500000D01*
X105719047Y-68452380D01*
X105814285Y-68452380D01*
X105957142Y-68500000D01*
X106004761Y-68547619D01*
X106623809Y-68452380D02*
X106814285Y-68452380D01*
X106909523Y-68500000D01*
X107004761Y-68595238D01*
X107052380Y-68785714D01*
X107052380Y-69119047D01*
X107004761Y-69309523D01*
X106909523Y-69404761D01*
X106814285Y-69452380D01*
X106623809Y-69452380D01*
X106528571Y-69404761D01*
X106433333Y-69309523D01*
X106385714Y-69119047D01*
X106385714Y-68785714D01*
X106433333Y-68595238D01*
X106528571Y-68500000D01*
X106623809Y-68452380D01*
X107480952Y-68452380D02*
X107480952Y-69261904D01*
X107528571Y-69357142D01*
X107576190Y-69404761D01*
X107671428Y-69452380D01*
X107861904Y-69452380D01*
X107957142Y-69404761D01*
X108004761Y-69357142D01*
X108052380Y-69261904D01*
X108052380Y-68452380D01*
X108385714Y-68452380D02*
X108957142Y-68452380D01*
X108671428Y-69452380D02*
X108671428Y-68452380D01*
X109242857Y-68547619D02*
X109290476Y-68500000D01*
X109385714Y-68452380D01*
X109623809Y-68452380D01*
X109719047Y-68500000D01*
X109766666Y-68547619D01*
X109814285Y-68642857D01*
X109814285Y-68738095D01*
X109766666Y-68880952D01*
X109195238Y-69452380D01*
X109814285Y-69452380D01*
%TO.C,CFF1*%
X93776190Y-80107142D02*
X93728571Y-80154761D01*
X93585714Y-80202380D01*
X93490476Y-80202380D01*
X93347619Y-80154761D01*
X93252380Y-80059523D01*
X93204761Y-79964285D01*
X93157142Y-79773809D01*
X93157142Y-79630952D01*
X93204761Y-79440476D01*
X93252380Y-79345238D01*
X93347619Y-79250000D01*
X93490476Y-79202380D01*
X93585714Y-79202380D01*
X93728571Y-79250000D01*
X93776190Y-79297619D01*
X94538095Y-79678571D02*
X94204761Y-79678571D01*
X94204761Y-80202380D02*
X94204761Y-79202380D01*
X94680952Y-79202380D01*
X95395238Y-79678571D02*
X95061904Y-79678571D01*
X95061904Y-80202380D02*
X95061904Y-79202380D01*
X95538095Y-79202380D01*
X96442857Y-80202380D02*
X95871428Y-80202380D01*
X96157142Y-80202380D02*
X96157142Y-79202380D01*
X96061904Y-79345238D01*
X95966666Y-79440476D01*
X95871428Y-79488095D01*
%TO.C,U2*%
X96638095Y-89752380D02*
X96638095Y-90561904D01*
X96685714Y-90657142D01*
X96733333Y-90704761D01*
X96828571Y-90752380D01*
X97019047Y-90752380D01*
X97114285Y-90704761D01*
X97161904Y-90657142D01*
X97209523Y-90561904D01*
X97209523Y-89752380D01*
X97638095Y-89847619D02*
X97685714Y-89800000D01*
X97780952Y-89752380D01*
X98019047Y-89752380D01*
X98114285Y-89800000D01*
X98161904Y-89847619D01*
X98209523Y-89942857D01*
X98209523Y-90038095D01*
X98161904Y-90180952D01*
X97590476Y-90752380D01*
X98209523Y-90752380D01*
%TO.C,L1*%
X103302380Y-82666666D02*
X103302380Y-83142857D01*
X102302380Y-83142857D01*
X103302380Y-81809523D02*
X103302380Y-82380952D01*
X103302380Y-82095238D02*
X102302380Y-82095238D01*
X102445238Y-82190476D01*
X102540476Y-82285714D01*
X102588095Y-82380952D01*
%TO.C,U5*%
X119152380Y-83261904D02*
X119961904Y-83261904D01*
X120057142Y-83214285D01*
X120104761Y-83166666D01*
X120152380Y-83071428D01*
X120152380Y-82880952D01*
X120104761Y-82785714D01*
X120057142Y-82738095D01*
X119961904Y-82690476D01*
X119152380Y-82690476D01*
X119152380Y-81738095D02*
X119152380Y-82214285D01*
X119628571Y-82261904D01*
X119580952Y-82214285D01*
X119533333Y-82119047D01*
X119533333Y-81880952D01*
X119580952Y-81785714D01*
X119628571Y-81738095D01*
X119723809Y-81690476D01*
X119961904Y-81690476D01*
X120057142Y-81738095D01*
X120104761Y-81785714D01*
X120152380Y-81880952D01*
X120152380Y-82119047D01*
X120104761Y-82214285D01*
X120057142Y-82261904D01*
%TO.C,CIN1*%
X92057142Y-93228571D02*
X92104761Y-93276190D01*
X92152380Y-93419047D01*
X92152380Y-93514285D01*
X92104761Y-93657142D01*
X92009523Y-93752380D01*
X91914285Y-93800000D01*
X91723809Y-93847619D01*
X91580952Y-93847619D01*
X91390476Y-93800000D01*
X91295238Y-93752380D01*
X91200000Y-93657142D01*
X91152380Y-93514285D01*
X91152380Y-93419047D01*
X91200000Y-93276190D01*
X91247619Y-93228571D01*
X92152380Y-92800000D02*
X91152380Y-92800000D01*
X92152380Y-92323809D02*
X91152380Y-92323809D01*
X92152380Y-91752380D01*
X91152380Y-91752380D01*
X92152380Y-90752380D02*
X92152380Y-91323809D01*
X92152380Y-91038095D02*
X91152380Y-91038095D01*
X91295238Y-91133333D01*
X91390476Y-91228571D01*
X91438095Y-91323809D01*
%TO.C,J1*%
X164766666Y-111352380D02*
X164766666Y-112066666D01*
X164719047Y-112209523D01*
X164623809Y-112304761D01*
X164480952Y-112352380D01*
X164385714Y-112352380D01*
X165766666Y-112352380D02*
X165195238Y-112352380D01*
X165480952Y-112352380D02*
X165480952Y-111352380D01*
X165385714Y-111495238D01*
X165290476Y-111590476D01*
X165195238Y-111638095D01*
%TO.C,CFF2*%
X110807142Y-60023809D02*
X110854761Y-60071428D01*
X110902380Y-60214285D01*
X110902380Y-60309523D01*
X110854761Y-60452380D01*
X110759523Y-60547619D01*
X110664285Y-60595238D01*
X110473809Y-60642857D01*
X110330952Y-60642857D01*
X110140476Y-60595238D01*
X110045238Y-60547619D01*
X109950000Y-60452380D01*
X109902380Y-60309523D01*
X109902380Y-60214285D01*
X109950000Y-60071428D01*
X109997619Y-60023809D01*
X110378571Y-59261904D02*
X110378571Y-59595238D01*
X110902380Y-59595238D02*
X109902380Y-59595238D01*
X109902380Y-59119047D01*
X110378571Y-58404761D02*
X110378571Y-58738095D01*
X110902380Y-58738095D02*
X109902380Y-58738095D01*
X109902380Y-58261904D01*
X109997619Y-57928571D02*
X109950000Y-57880952D01*
X109902380Y-57785714D01*
X109902380Y-57547619D01*
X109950000Y-57452380D01*
X109997619Y-57404761D01*
X110092857Y-57357142D01*
X110188095Y-57357142D01*
X110330952Y-57404761D01*
X110902380Y-57976190D01*
X110902380Y-57357142D01*
%TO.C,L2*%
X100233333Y-56402380D02*
X99757142Y-56402380D01*
X99757142Y-55402380D01*
X100519047Y-55497619D02*
X100566666Y-55450000D01*
X100661904Y-55402380D01*
X100900000Y-55402380D01*
X100995238Y-55450000D01*
X101042857Y-55497619D01*
X101090476Y-55592857D01*
X101090476Y-55688095D01*
X101042857Y-55830952D01*
X100471428Y-56402380D01*
X101090476Y-56402380D01*
%TO.C,U1*%
X123462380Y-85391904D02*
X124271904Y-85391904D01*
X124367142Y-85344285D01*
X124414761Y-85296666D01*
X124462380Y-85201428D01*
X124462380Y-85010952D01*
X124414761Y-84915714D01*
X124367142Y-84868095D01*
X124271904Y-84820476D01*
X123462380Y-84820476D01*
X124462380Y-83820476D02*
X124462380Y-84391904D01*
X124462380Y-84106190D02*
X123462380Y-84106190D01*
X123605238Y-84201428D01*
X123700476Y-84296666D01*
X123748095Y-84391904D01*
%TO.C,R1*%
X94633333Y-79132380D02*
X94300000Y-78656190D01*
X94061904Y-79132380D02*
X94061904Y-78132380D01*
X94442857Y-78132380D01*
X94538095Y-78180000D01*
X94585714Y-78227619D01*
X94633333Y-78322857D01*
X94633333Y-78465714D01*
X94585714Y-78560952D01*
X94538095Y-78608571D01*
X94442857Y-78656190D01*
X94061904Y-78656190D01*
X95585714Y-79132380D02*
X95014285Y-79132380D01*
X95300000Y-79132380D02*
X95300000Y-78132380D01*
X95204761Y-78275238D01*
X95109523Y-78370476D01*
X95014285Y-78418095D01*
%TO.C,R4*%
X103733333Y-73832380D02*
X103400000Y-73356190D01*
X103161904Y-73832380D02*
X103161904Y-72832380D01*
X103542857Y-72832380D01*
X103638095Y-72880000D01*
X103685714Y-72927619D01*
X103733333Y-73022857D01*
X103733333Y-73165714D01*
X103685714Y-73260952D01*
X103638095Y-73308571D01*
X103542857Y-73356190D01*
X103161904Y-73356190D01*
X104590476Y-73165714D02*
X104590476Y-73832380D01*
X104352380Y-72784761D02*
X104114285Y-73499047D01*
X104733333Y-73499047D01*
%TO.C,COUT3*%
X91957142Y-75595238D02*
X92004761Y-75642857D01*
X92052380Y-75785714D01*
X92052380Y-75880952D01*
X92004761Y-76023809D01*
X91909523Y-76119047D01*
X91814285Y-76166666D01*
X91623809Y-76214285D01*
X91480952Y-76214285D01*
X91290476Y-76166666D01*
X91195238Y-76119047D01*
X91100000Y-76023809D01*
X91052380Y-75880952D01*
X91052380Y-75785714D01*
X91100000Y-75642857D01*
X91147619Y-75595238D01*
X91052380Y-74976190D02*
X91052380Y-74785714D01*
X91100000Y-74690476D01*
X91195238Y-74595238D01*
X91385714Y-74547619D01*
X91719047Y-74547619D01*
X91909523Y-74595238D01*
X92004761Y-74690476D01*
X92052380Y-74785714D01*
X92052380Y-74976190D01*
X92004761Y-75071428D01*
X91909523Y-75166666D01*
X91719047Y-75214285D01*
X91385714Y-75214285D01*
X91195238Y-75166666D01*
X91100000Y-75071428D01*
X91052380Y-74976190D01*
X91052380Y-74119047D02*
X91861904Y-74119047D01*
X91957142Y-74071428D01*
X92004761Y-74023809D01*
X92052380Y-73928571D01*
X92052380Y-73738095D01*
X92004761Y-73642857D01*
X91957142Y-73595238D01*
X91861904Y-73547619D01*
X91052380Y-73547619D01*
X91052380Y-73214285D02*
X91052380Y-72642857D01*
X92052380Y-72928571D02*
X91052380Y-72928571D01*
X91052380Y-72404761D02*
X91052380Y-71785714D01*
X91433333Y-72119047D01*
X91433333Y-71976190D01*
X91480952Y-71880952D01*
X91528571Y-71833333D01*
X91623809Y-71785714D01*
X91861904Y-71785714D01*
X91957142Y-71833333D01*
X92004761Y-71880952D01*
X92052380Y-71976190D01*
X92052380Y-72261904D01*
X92004761Y-72357142D01*
X91957142Y-72404761D01*
%TO.C,U3*%
X96838095Y-71652380D02*
X96838095Y-72461904D01*
X96885714Y-72557142D01*
X96933333Y-72604761D01*
X97028571Y-72652380D01*
X97219047Y-72652380D01*
X97314285Y-72604761D01*
X97361904Y-72557142D01*
X97409523Y-72461904D01*
X97409523Y-71652380D01*
X97790476Y-71652380D02*
X98409523Y-71652380D01*
X98076190Y-72033333D01*
X98219047Y-72033333D01*
X98314285Y-72080952D01*
X98361904Y-72128571D01*
X98409523Y-72223809D01*
X98409523Y-72461904D01*
X98361904Y-72557142D01*
X98314285Y-72604761D01*
X98219047Y-72652380D01*
X97933333Y-72652380D01*
X97838095Y-72604761D01*
X97790476Y-72557142D01*
%TO.C,RB1*%
X106832380Y-93366666D02*
X106356190Y-93700000D01*
X106832380Y-93938095D02*
X105832380Y-93938095D01*
X105832380Y-93557142D01*
X105880000Y-93461904D01*
X105927619Y-93414285D01*
X106022857Y-93366666D01*
X106165714Y-93366666D01*
X106260952Y-93414285D01*
X106308571Y-93461904D01*
X106356190Y-93557142D01*
X106356190Y-93938095D01*
X106308571Y-92604761D02*
X106356190Y-92461904D01*
X106403809Y-92414285D01*
X106499047Y-92366666D01*
X106641904Y-92366666D01*
X106737142Y-92414285D01*
X106784761Y-92461904D01*
X106832380Y-92557142D01*
X106832380Y-92938095D01*
X105832380Y-92938095D01*
X105832380Y-92604761D01*
X105880000Y-92509523D01*
X105927619Y-92461904D01*
X106022857Y-92414285D01*
X106118095Y-92414285D01*
X106213333Y-92461904D01*
X106260952Y-92509523D01*
X106308571Y-92604761D01*
X106308571Y-92938095D01*
X106832380Y-91414285D02*
X106832380Y-91985714D01*
X106832380Y-91700000D02*
X105832380Y-91700000D01*
X105975238Y-91795238D01*
X106070476Y-91890476D01*
X106118095Y-91985714D01*
%TO.C,U4*%
X114552380Y-73961904D02*
X115361904Y-73961904D01*
X115457142Y-73914285D01*
X115504761Y-73866666D01*
X115552380Y-73771428D01*
X115552380Y-73580952D01*
X115504761Y-73485714D01*
X115457142Y-73438095D01*
X115361904Y-73390476D01*
X114552380Y-73390476D01*
X114885714Y-72485714D02*
X115552380Y-72485714D01*
X114504761Y-72723809D02*
X115219047Y-72961904D01*
X115219047Y-72342857D01*
%TO.C,R2*%
X100433333Y-79132380D02*
X100100000Y-78656190D01*
X99861904Y-79132380D02*
X99861904Y-78132380D01*
X100242857Y-78132380D01*
X100338095Y-78180000D01*
X100385714Y-78227619D01*
X100433333Y-78322857D01*
X100433333Y-78465714D01*
X100385714Y-78560952D01*
X100338095Y-78608571D01*
X100242857Y-78656190D01*
X99861904Y-78656190D01*
X100814285Y-78227619D02*
X100861904Y-78180000D01*
X100957142Y-78132380D01*
X101195238Y-78132380D01*
X101290476Y-78180000D01*
X101338095Y-78227619D01*
X101385714Y-78322857D01*
X101385714Y-78418095D01*
X101338095Y-78560952D01*
X100766666Y-79132380D01*
X101385714Y-79132380D01*
%TO.C,D2*%
X97647619Y-59761904D02*
X98647619Y-59761904D01*
X98647619Y-60000000D01*
X98600000Y-60142857D01*
X98504761Y-60238095D01*
X98409523Y-60285714D01*
X98219047Y-60333333D01*
X98076190Y-60333333D01*
X97885714Y-60285714D01*
X97790476Y-60238095D01*
X97695238Y-60142857D01*
X97647619Y-60000000D01*
X97647619Y-59761904D01*
X98552380Y-60714285D02*
X98600000Y-60761904D01*
X98647619Y-60857142D01*
X98647619Y-61095238D01*
X98600000Y-61190476D01*
X98552380Y-61238095D01*
X98457142Y-61285714D01*
X98361904Y-61285714D01*
X98219047Y-61238095D01*
X97647619Y-60666666D01*
X97647619Y-61285714D01*
%TO.C,CIN3*%
X98577142Y-93248571D02*
X98624761Y-93296190D01*
X98672380Y-93439047D01*
X98672380Y-93534285D01*
X98624761Y-93677142D01*
X98529523Y-93772380D01*
X98434285Y-93820000D01*
X98243809Y-93867619D01*
X98100952Y-93867619D01*
X97910476Y-93820000D01*
X97815238Y-93772380D01*
X97720000Y-93677142D01*
X97672380Y-93534285D01*
X97672380Y-93439047D01*
X97720000Y-93296190D01*
X97767619Y-93248571D01*
X98672380Y-92820000D02*
X97672380Y-92820000D01*
X98672380Y-92343809D02*
X97672380Y-92343809D01*
X98672380Y-91772380D01*
X97672380Y-91772380D01*
X97672380Y-91391428D02*
X97672380Y-90772380D01*
X98053333Y-91105714D01*
X98053333Y-90962857D01*
X98100952Y-90867619D01*
X98148571Y-90820000D01*
X98243809Y-90772380D01*
X98481904Y-90772380D01*
X98577142Y-90820000D01*
X98624761Y-90867619D01*
X98672380Y-90962857D01*
X98672380Y-91248571D01*
X98624761Y-91343809D01*
X98577142Y-91391428D01*
%TO.C,J2*%
X124666666Y-112152380D02*
X124666666Y-112866666D01*
X124619047Y-113009523D01*
X124523809Y-113104761D01*
X124380952Y-113152380D01*
X124285714Y-113152380D01*
X125095238Y-112247619D02*
X125142857Y-112200000D01*
X125238095Y-112152380D01*
X125476190Y-112152380D01*
X125571428Y-112200000D01*
X125619047Y-112247619D01*
X125666666Y-112342857D01*
X125666666Y-112438095D01*
X125619047Y-112580952D01*
X125047619Y-113152380D01*
X125666666Y-113152380D01*
%TO.C,COUT4*%
X106004761Y-66057142D02*
X105957142Y-66104761D01*
X105814285Y-66152380D01*
X105719047Y-66152380D01*
X105576190Y-66104761D01*
X105480952Y-66009523D01*
X105433333Y-65914285D01*
X105385714Y-65723809D01*
X105385714Y-65580952D01*
X105433333Y-65390476D01*
X105480952Y-65295238D01*
X105576190Y-65200000D01*
X105719047Y-65152380D01*
X105814285Y-65152380D01*
X105957142Y-65200000D01*
X106004761Y-65247619D01*
X106623809Y-65152380D02*
X106814285Y-65152380D01*
X106909523Y-65200000D01*
X107004761Y-65295238D01*
X107052380Y-65485714D01*
X107052380Y-65819047D01*
X107004761Y-66009523D01*
X106909523Y-66104761D01*
X106814285Y-66152380D01*
X106623809Y-66152380D01*
X106528571Y-66104761D01*
X106433333Y-66009523D01*
X106385714Y-65819047D01*
X106385714Y-65485714D01*
X106433333Y-65295238D01*
X106528571Y-65200000D01*
X106623809Y-65152380D01*
X107480952Y-65152380D02*
X107480952Y-65961904D01*
X107528571Y-66057142D01*
X107576190Y-66104761D01*
X107671428Y-66152380D01*
X107861904Y-66152380D01*
X107957142Y-66104761D01*
X108004761Y-66057142D01*
X108052380Y-65961904D01*
X108052380Y-65152380D01*
X108385714Y-65152380D02*
X108957142Y-65152380D01*
X108671428Y-66152380D02*
X108671428Y-65152380D01*
X109719047Y-65485714D02*
X109719047Y-66152380D01*
X109480952Y-65104761D02*
X109242857Y-65819047D01*
X109861904Y-65819047D01*
%TO.C,R3*%
X104832380Y-59166666D02*
X104356190Y-59500000D01*
X104832380Y-59738095D02*
X103832380Y-59738095D01*
X103832380Y-59357142D01*
X103880000Y-59261904D01*
X103927619Y-59214285D01*
X104022857Y-59166666D01*
X104165714Y-59166666D01*
X104260952Y-59214285D01*
X104308571Y-59261904D01*
X104356190Y-59357142D01*
X104356190Y-59738095D01*
X103832380Y-58833333D02*
X103832380Y-58214285D01*
X104213333Y-58547619D01*
X104213333Y-58404761D01*
X104260952Y-58309523D01*
X104308571Y-58261904D01*
X104403809Y-58214285D01*
X104641904Y-58214285D01*
X104737142Y-58261904D01*
X104784761Y-58309523D01*
X104832380Y-58404761D01*
X104832380Y-58690476D01*
X104784761Y-58785714D01*
X104737142Y-58833333D01*
%TO.C,D1*%
X107738095Y-92347619D02*
X107738095Y-93347619D01*
X107500000Y-93347619D01*
X107357142Y-93300000D01*
X107261904Y-93204761D01*
X107214285Y-93109523D01*
X107166666Y-92919047D01*
X107166666Y-92776190D01*
X107214285Y-92585714D01*
X107261904Y-92490476D01*
X107357142Y-92395238D01*
X107500000Y-92347619D01*
X107738095Y-92347619D01*
X106214285Y-92347619D02*
X106785714Y-92347619D01*
X106500000Y-92347619D02*
X106500000Y-93347619D01*
X106595238Y-93204761D01*
X106690476Y-93109523D01*
X106785714Y-93061904D01*
%TO.C,CIN2*%
X95317142Y-93238571D02*
X95364761Y-93286190D01*
X95412380Y-93429047D01*
X95412380Y-93524285D01*
X95364761Y-93667142D01*
X95269523Y-93762380D01*
X95174285Y-93810000D01*
X94983809Y-93857619D01*
X94840952Y-93857619D01*
X94650476Y-93810000D01*
X94555238Y-93762380D01*
X94460000Y-93667142D01*
X94412380Y-93524285D01*
X94412380Y-93429047D01*
X94460000Y-93286190D01*
X94507619Y-93238571D01*
X95412380Y-92810000D02*
X94412380Y-92810000D01*
X95412380Y-92333809D02*
X94412380Y-92333809D01*
X95412380Y-91762380D01*
X94412380Y-91762380D01*
X94507619Y-91333809D02*
X94460000Y-91286190D01*
X94412380Y-91190952D01*
X94412380Y-90952857D01*
X94460000Y-90857619D01*
X94507619Y-90810000D01*
X94602857Y-90762380D01*
X94698095Y-90762380D01*
X94840952Y-90810000D01*
X95412380Y-91381428D01*
X95412380Y-90762380D01*
D12*
%TO.C,D5*%
X169005000Y-67205000D02*
X169005000Y-64935000D01*
X165120000Y-67205000D02*
X169005000Y-67205000D01*
X169005000Y-64935000D02*
X165120000Y-64935000D01*
%TO.C,D6*%
X169015000Y-64825000D02*
X169015000Y-62555000D01*
X165130000Y-64825000D02*
X169015000Y-64825000D01*
X169015000Y-62555000D02*
X165130000Y-62555000D01*
%TO.C,D4*%
X169005000Y-62435000D02*
X169005000Y-60165000D01*
X165120000Y-62435000D02*
X169005000Y-62435000D01*
X169005000Y-60165000D02*
X165120000Y-60165000D01*
%TO.C,D3*%
X169005000Y-60045000D02*
X169005000Y-57775000D01*
X165120000Y-60045000D02*
X169005000Y-60045000D01*
X169005000Y-57775000D02*
X165120000Y-57775000D01*
%TO.C,R_LED_4*%
X171672936Y-64600000D02*
X173127064Y-64600000D01*
X171672936Y-62780000D02*
X173127064Y-62780000D01*
%TO.C,R_LED_3*%
X171662936Y-66980000D02*
X173117064Y-66980000D01*
X171662936Y-65160000D02*
X173117064Y-65160000D01*
%TO.C,R_LED_2*%
X171692936Y-62220000D02*
X173147064Y-62220000D01*
X171692936Y-60400000D02*
X173147064Y-60400000D01*
%TO.C,R_LED_1*%
X171642936Y-58175000D02*
X172097064Y-58175000D01*
X171642936Y-59645000D02*
X172097064Y-59645000D01*
%TO.C,CSMALL13*%
X153350000Y-84138748D02*
X153350000Y-85561252D01*
X151530000Y-84138748D02*
X151530000Y-85561252D01*
%TO.C,CSMALL12*%
X156850000Y-84098748D02*
X156850000Y-85521252D01*
X155030000Y-84098748D02*
X155030000Y-85521252D01*
%TO.C,CSMALL11*%
X121280000Y-65671252D02*
X121280000Y-64248748D01*
X123100000Y-65671252D02*
X123100000Y-64248748D01*
%TO.C,CSMALL10*%
X154278748Y-68110000D02*
X155701252Y-68110000D01*
X154278748Y-69930000D02*
X155701252Y-69930000D01*
%TO.C,CSMALL9*%
X154308748Y-65730000D02*
X155731252Y-65730000D01*
X154308748Y-67550000D02*
X155731252Y-67550000D01*
%TO.C,CSMALL8*%
X154308748Y-63320000D02*
X155731252Y-63320000D01*
X154308748Y-65140000D02*
X155731252Y-65140000D01*
%TO.C,CSMALL7*%
X154308748Y-60990000D02*
X155731252Y-60990000D01*
X154308748Y-62810000D02*
X155731252Y-62810000D01*
%TO.C,CSMALL6*%
X154308748Y-58610000D02*
X155731252Y-58610000D01*
X154308748Y-60430000D02*
X155731252Y-60430000D01*
%TO.C,R10*%
X146090000Y-68207064D02*
X146090000Y-66752936D01*
X147910000Y-68207064D02*
X147910000Y-66752936D01*
%TO.C,R9*%
X148870000Y-68207064D02*
X148870000Y-66752936D01*
X150690000Y-68207064D02*
X150690000Y-66752936D01*
%TO.C,J9*%
X98080000Y-110285000D02*
X118080000Y-110285000D01*
X118080000Y-110285000D02*
X118080000Y-145285000D01*
X118080000Y-145285000D02*
X98080000Y-145285000D01*
X98080000Y-145285000D02*
X98080000Y-110285000D01*
%TO.C,U7*%
X115850000Y-95090000D02*
X115850000Y-94345000D01*
X121370000Y-95090000D02*
X121370000Y-94345000D01*
X118610000Y-88670000D02*
X121370000Y-88670000D01*
X118610000Y-95090000D02*
X115850000Y-95090000D01*
X118610000Y-88670000D02*
X115850000Y-88670000D01*
X121370000Y-88670000D02*
X121370000Y-89415000D01*
X118610000Y-95090000D02*
X121370000Y-95090000D01*
X115850000Y-88670000D02*
X115850000Y-89415000D01*
X121370000Y-94345000D02*
X123060000Y-94345000D01*
%TO.C,U6*%
X99700000Y-96500000D02*
X99700000Y-102510000D01*
X92880000Y-98750000D02*
X92880000Y-102510000D01*
X92880000Y-102510000D02*
X94140000Y-102510000D01*
X99700000Y-102510000D02*
X98440000Y-102510000D01*
%TO.C,R15*%
X116487064Y-66890000D02*
X115032936Y-66890000D01*
X116487064Y-65070000D02*
X115032936Y-65070000D01*
%TO.C,R14*%
X114807064Y-64340000D02*
X113352936Y-64340000D01*
X114807064Y-62520000D02*
X113352936Y-62520000D01*
%TO.C,R11*%
X121440000Y-70977064D02*
X121440000Y-69522936D01*
X123260000Y-70977064D02*
X123260000Y-69522936D01*
%TO.C,R8*%
X123880000Y-93357064D02*
X123880000Y-91902936D01*
X125700000Y-93357064D02*
X125700000Y-91902936D01*
%TO.C,R7*%
X126270000Y-93357064D02*
X126270000Y-91902936D01*
X128090000Y-93357064D02*
X128090000Y-91902936D01*
%TO.C,R6*%
X126597064Y-89890000D02*
X125142936Y-89890000D01*
X126597064Y-88070000D02*
X125142936Y-88070000D01*
%TO.C,R5*%
X164137064Y-111510000D02*
X162682936Y-111510000D01*
X164137064Y-109690000D02*
X162682936Y-109690000D01*
%TO.C,Q4*%
X120270000Y-115200000D02*
X119620000Y-115200000D01*
X120270000Y-112080000D02*
X119620000Y-112080000D01*
X120270000Y-115200000D02*
X121945000Y-115200000D01*
X120270000Y-112080000D02*
X120920000Y-112080000D01*
%TO.C,Q3*%
X132560000Y-92030000D02*
X132560000Y-92680000D01*
X129440000Y-92030000D02*
X129440000Y-92680000D01*
X132560000Y-92030000D02*
X132560000Y-90355000D01*
X129440000Y-92030000D02*
X129440000Y-91380000D01*
%TO.C,Q2*%
X137740000Y-92110000D02*
X137740000Y-92760000D01*
X134620000Y-92110000D02*
X134620000Y-92760000D01*
X137740000Y-92110000D02*
X137740000Y-90435000D01*
X134620000Y-92110000D02*
X134620000Y-91460000D01*
%TO.C,Q1*%
X96180000Y-106730000D02*
X96830000Y-106730000D01*
X96180000Y-109850000D02*
X96830000Y-109850000D01*
X96180000Y-106730000D02*
X94505000Y-106730000D01*
X96180000Y-109850000D02*
X95530000Y-109850000D01*
%TO.C,U8*%
X153010000Y-109210000D02*
X152285000Y-109210000D01*
X153010000Y-108485000D02*
X153010000Y-109210000D01*
X147790000Y-103990000D02*
X148515000Y-103990000D01*
X147790000Y-108485000D02*
X147790000Y-109210000D01*
X147790000Y-104715000D02*
X147790000Y-103990000D01*
X153010000Y-104715000D02*
X153010000Y-103990000D01*
X153010000Y-103990000D02*
X152285000Y-103990000D01*
%TO.C,SW2*%
X166000000Y-111400000D02*
X156000000Y-111400000D01*
X156000000Y-111400000D02*
X156000000Y-115400000D01*
X156000000Y-115400000D02*
X166000000Y-115400000D01*
X166000000Y-115400000D02*
X166000000Y-111400000D01*
%TO.C,SW1*%
X135620000Y-115830000D02*
X145620000Y-115830000D01*
X145620000Y-115830000D02*
X145620000Y-111830000D01*
X145620000Y-111830000D02*
X135620000Y-111830000D01*
X135620000Y-111830000D02*
X135620000Y-115830000D01*
%TO.C,R13*%
X148427064Y-99210000D02*
X146972936Y-99210000D01*
X148427064Y-97390000D02*
X146972936Y-97390000D01*
%TO.C,R12*%
X151972936Y-97390000D02*
X153427064Y-97390000D01*
X151972936Y-99210000D02*
X153427064Y-99210000D01*
%TO.C,Q6*%
X152400000Y-102960000D02*
X151750000Y-102960000D01*
X152400000Y-99840000D02*
X151750000Y-99840000D01*
X152400000Y-102960000D02*
X154075000Y-102960000D01*
X152400000Y-99840000D02*
X153050000Y-99840000D01*
%TO.C,Q5*%
X147800000Y-99840000D02*
X148450000Y-99840000D01*
X147800000Y-102960000D02*
X148450000Y-102960000D01*
X147800000Y-99840000D02*
X146125000Y-99840000D01*
X147800000Y-102960000D02*
X147150000Y-102960000D01*
%TO.C,CSMALL1*%
X111610000Y-91888748D02*
X111610000Y-93311252D01*
X109790000Y-91888748D02*
X109790000Y-93311252D01*
%TO.C,J8*%
X146800000Y-111537500D02*
X147250000Y-111537500D01*
X149000000Y-110987500D02*
X149000000Y-111437500D01*
X146800000Y-113387500D02*
X146800000Y-111537500D01*
X154600000Y-115937500D02*
X154600000Y-115687500D01*
X149000000Y-110987500D02*
X149450000Y-110987500D01*
X154600000Y-113387500D02*
X154600000Y-111537500D01*
X154600000Y-111537500D02*
X154150000Y-111537500D01*
X146800000Y-115937500D02*
X146800000Y-115687500D01*
%TO.C,RB2*%
X103690000Y-93427064D02*
X103690000Y-91972936D01*
X105510000Y-93427064D02*
X105510000Y-91972936D01*
%TO.C,COUT1*%
X97040000Y-74711252D02*
X97040000Y-73288748D01*
X99760000Y-74711252D02*
X99760000Y-73288748D01*
%TO.C,COUT2*%
X108311252Y-65340000D02*
X106888748Y-65340000D01*
X108311252Y-68060000D02*
X106888748Y-68060000D01*
%TO.C,CFF1*%
X95511252Y-76990000D02*
X94088748Y-76990000D01*
X95511252Y-78810000D02*
X94088748Y-78810000D01*
%TO.C,U2*%
X99870000Y-82820000D02*
X100970000Y-82820000D01*
X99870000Y-82350000D02*
X99870000Y-82820000D01*
X99870000Y-88780000D02*
X102700000Y-88780000D01*
X98370000Y-82350000D02*
X99870000Y-82350000D01*
X99870000Y-89250000D02*
X99870000Y-88780000D01*
X98370000Y-89250000D02*
X99870000Y-89250000D01*
%TO.C,L1*%
X111000000Y-86200000D02*
X108700000Y-86200000D01*
X111000000Y-78800000D02*
X111000000Y-86200000D01*
X105900000Y-86200000D02*
X103600000Y-86200000D01*
X103600000Y-78800000D02*
X105900000Y-78800000D01*
X108700000Y-78800000D02*
X111000000Y-78800000D01*
X103600000Y-86200000D02*
X103600000Y-78800000D01*
%TO.C,U5*%
X118610000Y-84410000D02*
X117350000Y-84410000D01*
X111790000Y-80650000D02*
X111790000Y-84410000D01*
X118610000Y-78400000D02*
X118610000Y-84410000D01*
X111790000Y-84410000D02*
X113050000Y-84410000D01*
%TO.C,CIN1*%
X95360000Y-93011252D02*
X95360000Y-91588748D01*
X92640000Y-93011252D02*
X92640000Y-91588748D01*
%TO.C,J1*%
X156000000Y-97650000D02*
X174000000Y-97650000D01*
X174000000Y-97650000D02*
X174000000Y-111150000D01*
X174000000Y-111150000D02*
X156000000Y-111150000D01*
X156000000Y-111150000D02*
X156000000Y-97650000D01*
%TO.C,CFF2*%
X107690000Y-58288748D02*
X107690000Y-59711252D01*
X109510000Y-58288748D02*
X109510000Y-59711252D01*
%TO.C,L2*%
X96700000Y-59000000D02*
X96700000Y-56700000D01*
X104100000Y-61800000D02*
X104100000Y-64100000D01*
X96700000Y-64100000D02*
X96700000Y-61800000D01*
X104100000Y-64100000D02*
X96700000Y-64100000D01*
X104100000Y-56700000D02*
X104100000Y-59000000D01*
X96700000Y-56700000D02*
X104100000Y-56700000D01*
%TO.C,U1*%
X125500000Y-60340000D02*
X143740000Y-60340000D01*
X125500000Y-66755000D02*
X125120000Y-66755000D01*
X143740000Y-86080000D02*
X142740000Y-86080000D01*
X125500000Y-86080000D02*
X126500000Y-86080000D01*
X143740000Y-85300000D02*
X143740000Y-86080000D01*
X125500000Y-85300000D02*
X125500000Y-86080000D01*
X143740000Y-60340000D02*
X143740000Y-66755000D01*
X125500000Y-60340000D02*
X125500000Y-66755000D01*
%TO.C,R1*%
X94072936Y-79590000D02*
X95527064Y-79590000D01*
X94072936Y-81410000D02*
X95527064Y-81410000D01*
%TO.C,R4*%
X103172936Y-76110000D02*
X104627064Y-76110000D01*
X103172936Y-74290000D02*
X104627064Y-74290000D01*
%TO.C,COUT3*%
X92540000Y-74711252D02*
X92540000Y-73288748D01*
X95260000Y-74711252D02*
X95260000Y-73288748D01*
%TO.C,U3*%
X100070000Y-70680000D02*
X102900000Y-70680000D01*
X98570000Y-71150000D02*
X100070000Y-71150000D01*
X100070000Y-71150000D02*
X100070000Y-70680000D01*
X98570000Y-64250000D02*
X100070000Y-64250000D01*
X100070000Y-64720000D02*
X101170000Y-64720000D01*
X100070000Y-64250000D02*
X100070000Y-64720000D01*
%TO.C,RB1*%
X109110000Y-93427064D02*
X109110000Y-91972936D01*
X107290000Y-93427064D02*
X107290000Y-91972936D01*
%TO.C,U4*%
X114010000Y-75110000D02*
X112750000Y-75110000D01*
X107190000Y-71350000D02*
X107190000Y-75110000D01*
X107190000Y-75110000D02*
X108450000Y-75110000D01*
X114010000Y-69100000D02*
X114010000Y-75110000D01*
%TO.C,R2*%
X99872936Y-81410000D02*
X101327064Y-81410000D01*
X99872936Y-79590000D02*
X101327064Y-79590000D01*
%TO.C,CIN3*%
X101880000Y-93031252D02*
X101880000Y-91608748D01*
X99160000Y-93031252D02*
X99160000Y-91608748D01*
%TO.C,COUT4*%
X108311252Y-62040000D02*
X106888748Y-62040000D01*
X108311252Y-64760000D02*
X106888748Y-64760000D01*
%TO.C,R3*%
X105290000Y-59727064D02*
X105290000Y-58272936D01*
X107110000Y-59727064D02*
X107110000Y-58272936D01*
%TO.C,CIN2*%
X95900000Y-93021252D02*
X95900000Y-91598748D01*
X98620000Y-93021252D02*
X98620000Y-91598748D01*
%TD*%
M02*
