M48
; DRILL file {KiCad (6.0.10)} date Tue Apr 25 21:53:56 2023
; FORMAT={-:-/ absolute / inch / decimal}
; #@! TF.CreationDate,2023-04-25T21:53:56+02:00
; #@! TF.GenerationSoftware,Kicad,Pcbnew,(6.0.10)
; #@! TF.FileFunction,MixedPlating,1,2
FMAT,2
INCH
; #@! TA.AperFunction,Plated,PTH,ViaDrill
T1C0.0079
; #@! TA.AperFunction,Plated,PTH,ComponentDrill
T2C0.0079
; #@! TA.AperFunction,Plated,PTH,ViaDrill
T3C0.0157
; #@! TA.AperFunction,Plated,PTH,ComponentDrill
T4C0.0236
; #@! TA.AperFunction,Plated,PTH,ComponentDrill
T5C0.0335
; #@! TA.AperFunction,Plated,PTH,ComponentDrill
T6C0.0433
; #@! TA.AperFunction,Plated,PTH,ComponentDrill
T7C0.0748
%
G90
G05
T1
X4.9559Y-2.7756
X5.0945Y-2.813
X5.1665Y-2.6815
X5.6476Y-2.876
X5.6496Y-2.8268
X5.7531Y-4.1925
X5.7575Y-3.3551
X5.7744Y-4.3217
X5.7754Y-4.1758
X5.8236Y-4.2933
X5.8327Y-3.4193
X5.8382Y-3.3579
X5.8551Y-3.9941
X5.8764Y-3.8728
X5.8819Y-4.4457
X5.9054Y-4.3612
X5.9429Y-4.3287
X5.9476Y-3.9921
X5.9807Y-4.3303
X6.0366Y-4.0299
X6.0803Y-3.9799
T2
X5.2132Y-2.9342
X5.2132Y-2.9942
X5.2432Y-2.9041
X5.2432Y-2.9642
X5.2432Y-3.0242
X5.2732Y-2.9342
X5.2732Y-2.9942
X5.3032Y-2.9041
X5.3032Y-2.9642
X5.3032Y-3.0242
X5.3333Y-2.9342
X5.3333Y-2.9942
T3
X3.7008Y-3.8382
X3.7563Y-3.3839
X3.824Y-4.2638
X3.8811Y-3.8386
X3.9287Y-4.1957
X4.0472Y-2.8937
X4.0823Y-4.4484
X4.0945Y-2.622
X4.1417Y-2.7551
X4.2598Y-3.7106
X4.3386Y-2.2953
X4.3543Y-2.8189
X4.3543Y-2.9488
X4.411Y-2.3949
X4.4598Y-3.6744
X4.5073Y-4.3545
X4.5354Y-3.126
X4.5354Y-3.3504
X4.5402Y-2.7654
X4.5728Y-3.7736
X4.7024Y-3.8047
X4.7719Y-4.5114
X4.9116Y-3.7065
X4.9555Y-2.7252
X4.9555Y-3.1752
X4.9567Y-2.9252
X4.9567Y-2.9764
X5.0165Y-3.5031
X5.0354Y-3.1929
X5.0364Y-2.9656
X5.0382Y-3.7717
X5.0689Y-3.3012
X5.1764Y-2.8256
X5.1791Y-3.8087
X5.1949Y-3.5863
X5.261Y-3.7724
X5.3614Y-3.6685
X5.5654Y-4.3441
X5.6413Y-3.2752
X5.7283Y-3.022
X5.7303Y-2.6874
X5.7658Y-3.3941
X5.924Y-3.4441
X6.1417Y-2.8043
X6.202Y-4.0213
X6.3181Y-2.7909
X6.3417Y-2.3815
X6.3748Y-4.3567
X6.985Y-3.3256
T5
X5.7736Y-2.3161
X5.7736Y-2.4815
X5.8346Y-4.4031
X5.9094Y-2.315
X5.9094Y-2.4803
X6.0315Y-4.4031
T6
X6.9921Y-3.4882
X6.9921Y-3.6772
X6.9921Y-3.8661
X6.9921Y-4.0551
X6.9921Y-4.2441
X6.9921Y-4.4331
T7
X4.1093Y-3.9124
X4.1093Y-4.0748
X4.1093Y-4.2372
X4.2717Y-3.9124
X4.2717Y-4.0748
X4.2717Y-4.2372
X4.4341Y-3.9124
X4.4341Y-4.0748
X4.4341Y-4.2372
X4.5965Y-3.9124
X4.5965Y-4.0748
X4.5965Y-4.2372
X4.7589Y-3.9124
X4.7589Y-4.0748
X4.7589Y-4.2372
X4.9213Y-3.9124
X4.9213Y-4.0748
X4.9213Y-4.2372
X5.0837Y-3.9124
X5.0837Y-4.0748
X5.0837Y-4.2372
X5.2461Y-3.9124
X5.2461Y-4.0748
X5.2461Y-4.2372
X5.4085Y-3.9124
X5.4085Y-4.0748
X5.4085Y-4.2372
X5.5709Y-3.9124
X5.5709Y-4.0748
X5.5709Y-4.2372
X6.3189Y-4.0217
X6.3189Y-4.1988
X6.4961Y-4.0217
X6.4961Y-4.1988
X6.6732Y-4.0217
X6.6732Y-4.1988
T4
G00X5.7953Y-4.5231
M15
G01X5.7953Y-4.4956
M16
G05
G00X6.0709Y-4.4956
M15
G01X6.0709Y-4.5231
M16
G05
T0
M30
