%TF.GenerationSoftware,KiCad,Pcbnew,(6.0.10)*%
%TF.CreationDate,2023-04-25T21:53:56+02:00*%
%TF.ProjectId,sabvoton-controller,73616276-6f74-46f6-9e2d-636f6e74726f,rev?*%
%TF.SameCoordinates,Original*%
%TF.FileFunction,Drillmap*%
%TF.FilePolarity,Positive*%
%FSLAX45Y45*%
G04 Gerber Fmt 4.5, Leading zero omitted, Abs format (unit mm)*
G04 Created by KiCad (PCBNEW (6.0.10)) date 2023-04-25 21:53:56*
%MOMM*%
%LPD*%
G01*
G04 APERTURE LIST*
%ADD10C,0.200000*%
%ADD11C,0.020000*%
%ADD12C,0.040000*%
%ADD13C,0.060000*%
%ADD14C,0.085000*%
%ADD15C,0.110000*%
%ADD16C,0.190000*%
G04 APERTURE END LIST*
D10*
X9100000Y-5600000D02*
X18100000Y-5600000D01*
X18100000Y-5600000D02*
X18100000Y-11600000D01*
X18100000Y-11600000D02*
X9100000Y-11600000D01*
X9100000Y-11600000D02*
X9100000Y-5600000D01*
D11*
X12578000Y-7040000D02*
X12598000Y-7060000D01*
X12598000Y-7040000D02*
X12578000Y-7060000D01*
X12930000Y-7135000D02*
X12950000Y-7155000D01*
X12950000Y-7135000D02*
X12930000Y-7155000D01*
X13113000Y-6801000D02*
X13133000Y-6821000D01*
X13133000Y-6801000D02*
X13113000Y-6821000D01*
X14335000Y-7295000D02*
X14355000Y-7315000D01*
X14355000Y-7295000D02*
X14335000Y-7315000D01*
X14340000Y-7170000D02*
X14360000Y-7190000D01*
X14360000Y-7170000D02*
X14340000Y-7190000D01*
X14603000Y-10639000D02*
X14623000Y-10659000D01*
X14623000Y-10639000D02*
X14603000Y-10659000D01*
X14614000Y-8512000D02*
X14634000Y-8532000D01*
X14634000Y-8512000D02*
X14614000Y-8532000D01*
X14657000Y-10967000D02*
X14677000Y-10987000D01*
X14677000Y-10967000D02*
X14657000Y-10987000D01*
X14659550Y-10596626D02*
X14679550Y-10616626D01*
X14679550Y-10596626D02*
X14659550Y-10616626D01*
X14782000Y-10895000D02*
X14802000Y-10915000D01*
X14802000Y-10895000D02*
X14782000Y-10915000D01*
X14805000Y-8675000D02*
X14825000Y-8695000D01*
X14825000Y-8675000D02*
X14805000Y-8695000D01*
X14819000Y-8519000D02*
X14839000Y-8539000D01*
X14839000Y-8519000D02*
X14819000Y-8539000D01*
X14862000Y-10135000D02*
X14882000Y-10155000D01*
X14882000Y-10135000D02*
X14862000Y-10155000D01*
X14916000Y-9827000D02*
X14936000Y-9847000D01*
X14936000Y-9827000D02*
X14916000Y-9847000D01*
X14930000Y-11282000D02*
X14950000Y-11302000D01*
X14950000Y-11282000D02*
X14930000Y-11302000D01*
X14989782Y-11067444D02*
X15009782Y-11087444D01*
X15009782Y-11067444D02*
X14989782Y-11087444D01*
X15084950Y-10985000D02*
X15104950Y-11005000D01*
X15104950Y-10985000D02*
X15084950Y-11005000D01*
X15097000Y-10130000D02*
X15117000Y-10150000D01*
X15117000Y-10130000D02*
X15097000Y-10150000D01*
X15181000Y-10989000D02*
X15201000Y-11009000D01*
X15201000Y-10989000D02*
X15181000Y-11009000D01*
X15323000Y-10226000D02*
X15343000Y-10246000D01*
X15343000Y-10226000D02*
X15323000Y-10246000D01*
X15434000Y-10099000D02*
X15454000Y-10119000D01*
X15454000Y-10099000D02*
X15434000Y-10119000D01*
X13251500Y-7452750D02*
G75*
G03*
X13251500Y-7452750I-10000J0D01*
G01*
X13251500Y-7605250D02*
G75*
G03*
X13251500Y-7605250I-10000J0D01*
G01*
X13327750Y-7376500D02*
G75*
G03*
X13327750Y-7376500I-10000J0D01*
G01*
X13327750Y-7529000D02*
G75*
G03*
X13327750Y-7529000I-10000J0D01*
G01*
X13327750Y-7681500D02*
G75*
G03*
X13327750Y-7681500I-10000J0D01*
G01*
X13404000Y-7452750D02*
G75*
G03*
X13404000Y-7452750I-10000J0D01*
G01*
X13404000Y-7605250D02*
G75*
G03*
X13404000Y-7605250I-10000J0D01*
G01*
X13480250Y-7376500D02*
G75*
G03*
X13480250Y-7376500I-10000J0D01*
G01*
X13480250Y-7529000D02*
G75*
G03*
X13480250Y-7529000I-10000J0D01*
G01*
X13480250Y-7681500D02*
G75*
G03*
X13480250Y-7681500I-10000J0D01*
G01*
X13556500Y-7452750D02*
G75*
G03*
X13556500Y-7452750I-10000J0D01*
G01*
X13556500Y-7605250D02*
G75*
G03*
X13556500Y-7605250I-10000J0D01*
G01*
D12*
X9400000Y-9729000D02*
X9400000Y-9769000D01*
X9380000Y-9749000D02*
X9420000Y-9749000D01*
X9541000Y-8575000D02*
X9541000Y-8615000D01*
X9521000Y-8595000D02*
X9561000Y-8595000D01*
X9713000Y-10810000D02*
X9713000Y-10850000D01*
X9693000Y-10830000D02*
X9733000Y-10830000D01*
X9858000Y-9730000D02*
X9858000Y-9770000D01*
X9838000Y-9750000D02*
X9878000Y-9750000D01*
X9979000Y-10637000D02*
X9979000Y-10677000D01*
X9959000Y-10657000D02*
X9999000Y-10657000D01*
X10280000Y-7330000D02*
X10280000Y-7370000D01*
X10260000Y-7350000D02*
X10300000Y-7350000D01*
X10369000Y-11279000D02*
X10369000Y-11319000D01*
X10349000Y-11299000D02*
X10389000Y-11299000D01*
X10400000Y-6640000D02*
X10400000Y-6680000D01*
X10380000Y-6660000D02*
X10420000Y-6660000D01*
X10520000Y-6978000D02*
X10520000Y-7018000D01*
X10500000Y-6998000D02*
X10540000Y-6998000D01*
X10820000Y-9405000D02*
X10820000Y-9445000D01*
X10800000Y-9425000D02*
X10840000Y-9425000D01*
X11020000Y-5810000D02*
X11020000Y-5850000D01*
X11000000Y-5830000D02*
X11040000Y-5830000D01*
X11060000Y-7140000D02*
X11060000Y-7180000D01*
X11040000Y-7160000D02*
X11080000Y-7160000D01*
X11060000Y-7470000D02*
X11060000Y-7510000D01*
X11040000Y-7490000D02*
X11080000Y-7490000D01*
X11204000Y-6063000D02*
X11204000Y-6103000D01*
X11184000Y-6083000D02*
X11224000Y-6083000D01*
X11328000Y-9313000D02*
X11328000Y-9353000D01*
X11308000Y-9333000D02*
X11348000Y-9333000D01*
X11448500Y-11040500D02*
X11448500Y-11080500D01*
X11428500Y-11060500D02*
X11468500Y-11060500D01*
X11520000Y-7920000D02*
X11520000Y-7960000D01*
X11500000Y-7940000D02*
X11540000Y-7940000D01*
X11520000Y-8490000D02*
X11520000Y-8530000D01*
X11500000Y-8510000D02*
X11540000Y-8510000D01*
X11532000Y-7004000D02*
X11532000Y-7044000D01*
X11512000Y-7024000D02*
X11552000Y-7024000D01*
X11615000Y-9565000D02*
X11615000Y-9605000D01*
X11595000Y-9585000D02*
X11635000Y-9585000D01*
X11944000Y-9644000D02*
X11944000Y-9684000D01*
X11924000Y-9664000D02*
X11964000Y-9664000D01*
X12120750Y-11439000D02*
X12120750Y-11479000D01*
X12100750Y-11459000D02*
X12140750Y-11459000D01*
X12475500Y-9394500D02*
X12475500Y-9434500D01*
X12455500Y-9414500D02*
X12495500Y-9414500D01*
X12587000Y-6902000D02*
X12587000Y-6942000D01*
X12567000Y-6922000D02*
X12607000Y-6922000D01*
X12587000Y-8045000D02*
X12587000Y-8085000D01*
X12567000Y-8065000D02*
X12607000Y-8065000D01*
X12590000Y-7410000D02*
X12590000Y-7450000D01*
X12570000Y-7430000D02*
X12610000Y-7430000D01*
X12590000Y-7540000D02*
X12590000Y-7580000D01*
X12570000Y-7560000D02*
X12610000Y-7560000D01*
X12742000Y-8878000D02*
X12742000Y-8918000D01*
X12722000Y-8898000D02*
X12762000Y-8898000D01*
X12790000Y-8090000D02*
X12790000Y-8130000D01*
X12770000Y-8110000D02*
X12810000Y-8110000D01*
X12792500Y-7512500D02*
X12792500Y-7552500D01*
X12772500Y-7532500D02*
X12812500Y-7532500D01*
X12797000Y-9560000D02*
X12797000Y-9600000D01*
X12777000Y-9580000D02*
X12817000Y-9580000D01*
X12875000Y-8365000D02*
X12875000Y-8405000D01*
X12855000Y-8385000D02*
X12895000Y-8385000D01*
X13148000Y-7157000D02*
X13148000Y-7197000D01*
X13128000Y-7177000D02*
X13168000Y-7177000D01*
X13155000Y-9654000D02*
X13155000Y-9694000D01*
X13135000Y-9674000D02*
X13175000Y-9674000D01*
X13195000Y-9089250D02*
X13195000Y-9129250D01*
X13175000Y-9109250D02*
X13215000Y-9109250D01*
X13363000Y-9562000D02*
X13363000Y-9602000D01*
X13343000Y-9582000D02*
X13383000Y-9582000D01*
X13618000Y-9298000D02*
X13618000Y-9338000D01*
X13598000Y-9318000D02*
X13638000Y-9318000D01*
X14136000Y-11014000D02*
X14136000Y-11054000D01*
X14116000Y-11034000D02*
X14156000Y-11034000D01*
X14329000Y-8299000D02*
X14329000Y-8339000D01*
X14309000Y-8319000D02*
X14349000Y-8319000D01*
X14550000Y-7656000D02*
X14550000Y-7696000D01*
X14530000Y-7676000D02*
X14570000Y-7676000D01*
X14555000Y-6806000D02*
X14555000Y-6846000D01*
X14535000Y-6826000D02*
X14575000Y-6826000D01*
X14645109Y-8600891D02*
X14645109Y-8640891D01*
X14625109Y-8620891D02*
X14665109Y-8620891D01*
X15047000Y-8728000D02*
X15047000Y-8768000D01*
X15027000Y-8748000D02*
X15067000Y-8748000D01*
X15600000Y-7103000D02*
X15600000Y-7143000D01*
X15580000Y-7123000D02*
X15620000Y-7123000D01*
X15753000Y-10194000D02*
X15753000Y-10234000D01*
X15733000Y-10214000D02*
X15773000Y-10214000D01*
X16048000Y-7069000D02*
X16048000Y-7109000D01*
X16028000Y-7089000D02*
X16068000Y-7089000D01*
X16108000Y-6029000D02*
X16108000Y-6069000D01*
X16088000Y-6049000D02*
X16128000Y-6049000D01*
X16192000Y-11046000D02*
X16192000Y-11086000D01*
X16172000Y-11066000D02*
X16212000Y-11066000D01*
X17742000Y-8427000D02*
X17742000Y-8467000D01*
X17722000Y-8447000D02*
X17762000Y-8447000D01*
D13*
X14741213Y-11474963D02*
X14741213Y-11432537D01*
X14698787Y-11432537D01*
X14698787Y-11474963D01*
X14741213Y-11474963D01*
D10*
X14750000Y-11488750D02*
X14750000Y-11418750D01*
X14690000Y-11488750D02*
X14690000Y-11418750D01*
X14750000Y-11418750D02*
G75*
G03*
X14690000Y-11418750I-30000J0D01*
G01*
X14690000Y-11488750D02*
G75*
G03*
X14750000Y-11488750I30000J0D01*
G01*
D13*
X15441213Y-11474963D02*
X15441213Y-11432537D01*
X15398787Y-11432537D01*
X15398787Y-11474963D01*
X15441213Y-11474963D01*
D10*
X15390000Y-11418750D02*
X15390000Y-11488750D01*
X15450000Y-11418750D02*
X15450000Y-11488750D01*
X15390000Y-11488750D02*
G75*
G03*
X15450000Y-11488750I30000J0D01*
G01*
X15450000Y-11418750D02*
G75*
G03*
X15390000Y-11418750I-30000J0D01*
G01*
D14*
X14665000Y-5925500D02*
X14707500Y-5883000D01*
X14665000Y-5840500D01*
X14622500Y-5883000D01*
X14665000Y-5925500D01*
X14665000Y-6345500D02*
X14707500Y-6303000D01*
X14665000Y-6260500D01*
X14622500Y-6303000D01*
X14665000Y-6345500D01*
X14820000Y-11226250D02*
X14862500Y-11183750D01*
X14820000Y-11141250D01*
X14777500Y-11183750D01*
X14820000Y-11226250D01*
X15010000Y-5922500D02*
X15052500Y-5880000D01*
X15010000Y-5837500D01*
X14967500Y-5880000D01*
X15010000Y-5922500D01*
X15010000Y-6342500D02*
X15052500Y-6300000D01*
X15010000Y-6257500D01*
X14967500Y-6300000D01*
X15010000Y-6342500D01*
X15320000Y-11226250D02*
X15362500Y-11183750D01*
X15320000Y-11141250D01*
X15277500Y-11183750D01*
X15320000Y-11226250D01*
D15*
X17705000Y-8805000D02*
X17815000Y-8915000D01*
X17815000Y-8805000D02*
X17705000Y-8915000D01*
X17815000Y-8860000D02*
G75*
G03*
X17815000Y-8860000I-55000J0D01*
G01*
X17705000Y-9285000D02*
X17815000Y-9395000D01*
X17815000Y-9285000D02*
X17705000Y-9395000D01*
X17815000Y-9340000D02*
G75*
G03*
X17815000Y-9340000I-55000J0D01*
G01*
X17705000Y-9765000D02*
X17815000Y-9875000D01*
X17815000Y-9765000D02*
X17705000Y-9875000D01*
X17815000Y-9820000D02*
G75*
G03*
X17815000Y-9820000I-55000J0D01*
G01*
X17705000Y-10245000D02*
X17815000Y-10355000D01*
X17815000Y-10245000D02*
X17705000Y-10355000D01*
X17815000Y-10300000D02*
G75*
G03*
X17815000Y-10300000I-55000J0D01*
G01*
X17705000Y-10725000D02*
X17815000Y-10835000D01*
X17815000Y-10725000D02*
X17705000Y-10835000D01*
X17815000Y-10780000D02*
G75*
G03*
X17815000Y-10780000I-55000J0D01*
G01*
X17705000Y-11205000D02*
X17815000Y-11315000D01*
X17815000Y-11205000D02*
X17705000Y-11315000D01*
X17815000Y-11260000D02*
G75*
G03*
X17815000Y-11260000I-55000J0D01*
G01*
D16*
X10342500Y-9842500D02*
X10532500Y-10032500D01*
X10532500Y-9842500D02*
X10342500Y-10032500D01*
X10437500Y-9842500D02*
X10437500Y-10032500D01*
X10342500Y-9937500D02*
X10532500Y-9937500D01*
X10342500Y-10255000D02*
X10532500Y-10445000D01*
X10532500Y-10255000D02*
X10342500Y-10445000D01*
X10437500Y-10255000D02*
X10437500Y-10445000D01*
X10342500Y-10350000D02*
X10532500Y-10350000D01*
X10342500Y-10667500D02*
X10532500Y-10857500D01*
X10532500Y-10667500D02*
X10342500Y-10857500D01*
X10437500Y-10667500D02*
X10437500Y-10857500D01*
X10342500Y-10762500D02*
X10532500Y-10762500D01*
X10755000Y-9842500D02*
X10945000Y-10032500D01*
X10945000Y-9842500D02*
X10755000Y-10032500D01*
X10850000Y-9842500D02*
X10850000Y-10032500D01*
X10755000Y-9937500D02*
X10945000Y-9937500D01*
X10755000Y-10255000D02*
X10945000Y-10445000D01*
X10945000Y-10255000D02*
X10755000Y-10445000D01*
X10850000Y-10255000D02*
X10850000Y-10445000D01*
X10755000Y-10350000D02*
X10945000Y-10350000D01*
X10755000Y-10667500D02*
X10945000Y-10857500D01*
X10945000Y-10667500D02*
X10755000Y-10857500D01*
X10850000Y-10667500D02*
X10850000Y-10857500D01*
X10755000Y-10762500D02*
X10945000Y-10762500D01*
X11167500Y-9842500D02*
X11357500Y-10032500D01*
X11357500Y-9842500D02*
X11167500Y-10032500D01*
X11262500Y-9842500D02*
X11262500Y-10032500D01*
X11167500Y-9937500D02*
X11357500Y-9937500D01*
X11167500Y-10255000D02*
X11357500Y-10445000D01*
X11357500Y-10255000D02*
X11167500Y-10445000D01*
X11262500Y-10255000D02*
X11262500Y-10445000D01*
X11167500Y-10350000D02*
X11357500Y-10350000D01*
X11167500Y-10667500D02*
X11357500Y-10857500D01*
X11357500Y-10667500D02*
X11167500Y-10857500D01*
X11262500Y-10667500D02*
X11262500Y-10857500D01*
X11167500Y-10762500D02*
X11357500Y-10762500D01*
X11580000Y-9842500D02*
X11770000Y-10032500D01*
X11770000Y-9842500D02*
X11580000Y-10032500D01*
X11675000Y-9842500D02*
X11675000Y-10032500D01*
X11580000Y-9937500D02*
X11770000Y-9937500D01*
X11580000Y-10255000D02*
X11770000Y-10445000D01*
X11770000Y-10255000D02*
X11580000Y-10445000D01*
X11675000Y-10255000D02*
X11675000Y-10445000D01*
X11580000Y-10350000D02*
X11770000Y-10350000D01*
X11580000Y-10667500D02*
X11770000Y-10857500D01*
X11770000Y-10667500D02*
X11580000Y-10857500D01*
X11675000Y-10667500D02*
X11675000Y-10857500D01*
X11580000Y-10762500D02*
X11770000Y-10762500D01*
X11992500Y-9842500D02*
X12182500Y-10032500D01*
X12182500Y-9842500D02*
X11992500Y-10032500D01*
X12087500Y-9842500D02*
X12087500Y-10032500D01*
X11992500Y-9937500D02*
X12182500Y-9937500D01*
X11992500Y-10255000D02*
X12182500Y-10445000D01*
X12182500Y-10255000D02*
X11992500Y-10445000D01*
X12087500Y-10255000D02*
X12087500Y-10445000D01*
X11992500Y-10350000D02*
X12182500Y-10350000D01*
X11992500Y-10667500D02*
X12182500Y-10857500D01*
X12182500Y-10667500D02*
X11992500Y-10857500D01*
X12087500Y-10667500D02*
X12087500Y-10857500D01*
X11992500Y-10762500D02*
X12182500Y-10762500D01*
X12405000Y-9842500D02*
X12595000Y-10032500D01*
X12595000Y-9842500D02*
X12405000Y-10032500D01*
X12500000Y-9842500D02*
X12500000Y-10032500D01*
X12405000Y-9937500D02*
X12595000Y-9937500D01*
X12405000Y-10255000D02*
X12595000Y-10445000D01*
X12595000Y-10255000D02*
X12405000Y-10445000D01*
X12500000Y-10255000D02*
X12500000Y-10445000D01*
X12405000Y-10350000D02*
X12595000Y-10350000D01*
X12405000Y-10667500D02*
X12595000Y-10857500D01*
X12595000Y-10667500D02*
X12405000Y-10857500D01*
X12500000Y-10667500D02*
X12500000Y-10857500D01*
X12405000Y-10762500D02*
X12595000Y-10762500D01*
X12817500Y-9842500D02*
X13007500Y-10032500D01*
X13007500Y-9842500D02*
X12817500Y-10032500D01*
X12912500Y-9842500D02*
X12912500Y-10032500D01*
X12817500Y-9937500D02*
X13007500Y-9937500D01*
X12817500Y-10255000D02*
X13007500Y-10445000D01*
X13007500Y-10255000D02*
X12817500Y-10445000D01*
X12912500Y-10255000D02*
X12912500Y-10445000D01*
X12817500Y-10350000D02*
X13007500Y-10350000D01*
X12817500Y-10667500D02*
X13007500Y-10857500D01*
X13007500Y-10667500D02*
X12817500Y-10857500D01*
X12912500Y-10667500D02*
X12912500Y-10857500D01*
X12817500Y-10762500D02*
X13007500Y-10762500D01*
X13230000Y-9842500D02*
X13420000Y-10032500D01*
X13420000Y-9842500D02*
X13230000Y-10032500D01*
X13325000Y-9842500D02*
X13325000Y-10032500D01*
X13230000Y-9937500D02*
X13420000Y-9937500D01*
X13230000Y-10255000D02*
X13420000Y-10445000D01*
X13420000Y-10255000D02*
X13230000Y-10445000D01*
X13325000Y-10255000D02*
X13325000Y-10445000D01*
X13230000Y-10350000D02*
X13420000Y-10350000D01*
X13230000Y-10667500D02*
X13420000Y-10857500D01*
X13420000Y-10667500D02*
X13230000Y-10857500D01*
X13325000Y-10667500D02*
X13325000Y-10857500D01*
X13230000Y-10762500D02*
X13420000Y-10762500D01*
X13642500Y-9842500D02*
X13832500Y-10032500D01*
X13832500Y-9842500D02*
X13642500Y-10032500D01*
X13737500Y-9842500D02*
X13737500Y-10032500D01*
X13642500Y-9937500D02*
X13832500Y-9937500D01*
X13642500Y-10255000D02*
X13832500Y-10445000D01*
X13832500Y-10255000D02*
X13642500Y-10445000D01*
X13737500Y-10255000D02*
X13737500Y-10445000D01*
X13642500Y-10350000D02*
X13832500Y-10350000D01*
X13642500Y-10667500D02*
X13832500Y-10857500D01*
X13832500Y-10667500D02*
X13642500Y-10857500D01*
X13737500Y-10667500D02*
X13737500Y-10857500D01*
X13642500Y-10762500D02*
X13832500Y-10762500D01*
X14055000Y-9842500D02*
X14245000Y-10032500D01*
X14245000Y-9842500D02*
X14055000Y-10032500D01*
X14150000Y-9842500D02*
X14150000Y-10032500D01*
X14055000Y-9937500D02*
X14245000Y-9937500D01*
X14055000Y-10255000D02*
X14245000Y-10445000D01*
X14245000Y-10255000D02*
X14055000Y-10445000D01*
X14150000Y-10255000D02*
X14150000Y-10445000D01*
X14055000Y-10350000D02*
X14245000Y-10350000D01*
X14055000Y-10667500D02*
X14245000Y-10857500D01*
X14245000Y-10667500D02*
X14055000Y-10857500D01*
X14150000Y-10667500D02*
X14150000Y-10857500D01*
X14055000Y-10762500D02*
X14245000Y-10762500D01*
X15955000Y-10120000D02*
X16145000Y-10310000D01*
X16145000Y-10120000D02*
X15955000Y-10310000D01*
X16050000Y-10120000D02*
X16050000Y-10310000D01*
X15955000Y-10215000D02*
X16145000Y-10215000D01*
X15955000Y-10570000D02*
X16145000Y-10760000D01*
X16145000Y-10570000D02*
X15955000Y-10760000D01*
X16050000Y-10570000D02*
X16050000Y-10760000D01*
X15955000Y-10665000D02*
X16145000Y-10665000D01*
X16405000Y-10120000D02*
X16595000Y-10310000D01*
X16595000Y-10120000D02*
X16405000Y-10310000D01*
X16500000Y-10120000D02*
X16500000Y-10310000D01*
X16405000Y-10215000D02*
X16595000Y-10215000D01*
X16405000Y-10570000D02*
X16595000Y-10760000D01*
X16595000Y-10570000D02*
X16405000Y-10760000D01*
X16500000Y-10570000D02*
X16500000Y-10760000D01*
X16405000Y-10665000D02*
X16595000Y-10665000D01*
X16855000Y-10120000D02*
X17045000Y-10310000D01*
X17045000Y-10120000D02*
X16855000Y-10310000D01*
X16950000Y-10120000D02*
X16950000Y-10310000D01*
X16855000Y-10215000D02*
X17045000Y-10215000D01*
X16855000Y-10570000D02*
X17045000Y-10760000D01*
X17045000Y-10570000D02*
X16855000Y-10760000D01*
X16950000Y-10570000D02*
X16950000Y-10760000D01*
X16855000Y-10665000D02*
X17045000Y-10665000D01*
D10*
X9347619Y-11920476D02*
X9347619Y-11720476D01*
X9395238Y-11720476D01*
X9423810Y-11730000D01*
X9442857Y-11749048D01*
X9452381Y-11768095D01*
X9461905Y-11806190D01*
X9461905Y-11834762D01*
X9452381Y-11872857D01*
X9442857Y-11891905D01*
X9423810Y-11910952D01*
X9395238Y-11920476D01*
X9347619Y-11920476D01*
X9547619Y-11920476D02*
X9547619Y-11787143D01*
X9547619Y-11825238D02*
X9557143Y-11806190D01*
X9566667Y-11796667D01*
X9585714Y-11787143D01*
X9604762Y-11787143D01*
X9671429Y-11920476D02*
X9671429Y-11787143D01*
X9671429Y-11720476D02*
X9661905Y-11730000D01*
X9671429Y-11739524D01*
X9680952Y-11730000D01*
X9671429Y-11720476D01*
X9671429Y-11739524D01*
X9795238Y-11920476D02*
X9776190Y-11910952D01*
X9766667Y-11891905D01*
X9766667Y-11720476D01*
X9900000Y-11920476D02*
X9880952Y-11910952D01*
X9871429Y-11891905D01*
X9871429Y-11720476D01*
X10128571Y-11920476D02*
X10128571Y-11720476D01*
X10195238Y-11863333D01*
X10261905Y-11720476D01*
X10261905Y-11920476D01*
X10442857Y-11920476D02*
X10442857Y-11815714D01*
X10433333Y-11796667D01*
X10414286Y-11787143D01*
X10376190Y-11787143D01*
X10357143Y-11796667D01*
X10442857Y-11910952D02*
X10423810Y-11920476D01*
X10376190Y-11920476D01*
X10357143Y-11910952D01*
X10347619Y-11891905D01*
X10347619Y-11872857D01*
X10357143Y-11853809D01*
X10376190Y-11844286D01*
X10423810Y-11844286D01*
X10442857Y-11834762D01*
X10538095Y-11787143D02*
X10538095Y-11987143D01*
X10538095Y-11796667D02*
X10557143Y-11787143D01*
X10595238Y-11787143D01*
X10614286Y-11796667D01*
X10623810Y-11806190D01*
X10633333Y-11825238D01*
X10633333Y-11882381D01*
X10623810Y-11901428D01*
X10614286Y-11910952D01*
X10595238Y-11920476D01*
X10557143Y-11920476D01*
X10538095Y-11910952D01*
X10719048Y-11901428D02*
X10728571Y-11910952D01*
X10719048Y-11920476D01*
X10709524Y-11910952D01*
X10719048Y-11901428D01*
X10719048Y-11920476D01*
X10719048Y-11796667D02*
X10728571Y-11806190D01*
X10719048Y-11815714D01*
X10709524Y-11806190D01*
X10719048Y-11796667D01*
X10719048Y-11815714D01*
D11*
X9070000Y-12240000D02*
X9090000Y-12260000D01*
X9090000Y-12240000D02*
X9070000Y-12260000D01*
D10*
X9385714Y-12140476D02*
X9404762Y-12140476D01*
X9423810Y-12150000D01*
X9433333Y-12159524D01*
X9442857Y-12178571D01*
X9452381Y-12216667D01*
X9452381Y-12264286D01*
X9442857Y-12302381D01*
X9433333Y-12321428D01*
X9423810Y-12330952D01*
X9404762Y-12340476D01*
X9385714Y-12340476D01*
X9366667Y-12330952D01*
X9357143Y-12321428D01*
X9347619Y-12302381D01*
X9338095Y-12264286D01*
X9338095Y-12216667D01*
X9347619Y-12178571D01*
X9357143Y-12159524D01*
X9366667Y-12150000D01*
X9385714Y-12140476D01*
X9538095Y-12321428D02*
X9547619Y-12330952D01*
X9538095Y-12340476D01*
X9528571Y-12330952D01*
X9538095Y-12321428D01*
X9538095Y-12340476D01*
X9623810Y-12159524D02*
X9633333Y-12150000D01*
X9652381Y-12140476D01*
X9700000Y-12140476D01*
X9719048Y-12150000D01*
X9728571Y-12159524D01*
X9738095Y-12178571D01*
X9738095Y-12197619D01*
X9728571Y-12226190D01*
X9614286Y-12340476D01*
X9738095Y-12340476D01*
X9861905Y-12140476D02*
X9880952Y-12140476D01*
X9900000Y-12150000D01*
X9909524Y-12159524D01*
X9919048Y-12178571D01*
X9928571Y-12216667D01*
X9928571Y-12264286D01*
X9919048Y-12302381D01*
X9909524Y-12321428D01*
X9900000Y-12330952D01*
X9880952Y-12340476D01*
X9861905Y-12340476D01*
X9842857Y-12330952D01*
X9833333Y-12321428D01*
X9823810Y-12302381D01*
X9814286Y-12264286D01*
X9814286Y-12216667D01*
X9823810Y-12178571D01*
X9833333Y-12159524D01*
X9842857Y-12150000D01*
X9861905Y-12140476D01*
X10052381Y-12140476D02*
X10071429Y-12140476D01*
X10090476Y-12150000D01*
X10100000Y-12159524D01*
X10109524Y-12178571D01*
X10119048Y-12216667D01*
X10119048Y-12264286D01*
X10109524Y-12302381D01*
X10100000Y-12321428D01*
X10090476Y-12330952D01*
X10071429Y-12340476D01*
X10052381Y-12340476D01*
X10033333Y-12330952D01*
X10023810Y-12321428D01*
X10014286Y-12302381D01*
X10004762Y-12264286D01*
X10004762Y-12216667D01*
X10014286Y-12178571D01*
X10023810Y-12159524D01*
X10033333Y-12150000D01*
X10052381Y-12140476D01*
X10204762Y-12340476D02*
X10204762Y-12207143D01*
X10204762Y-12226190D02*
X10214286Y-12216667D01*
X10233333Y-12207143D01*
X10261905Y-12207143D01*
X10280952Y-12216667D01*
X10290476Y-12235714D01*
X10290476Y-12340476D01*
X10290476Y-12235714D02*
X10300000Y-12216667D01*
X10319048Y-12207143D01*
X10347619Y-12207143D01*
X10366667Y-12216667D01*
X10376190Y-12235714D01*
X10376190Y-12340476D01*
X10471429Y-12340476D02*
X10471429Y-12207143D01*
X10471429Y-12226190D02*
X10480952Y-12216667D01*
X10500000Y-12207143D01*
X10528571Y-12207143D01*
X10547619Y-12216667D01*
X10557143Y-12235714D01*
X10557143Y-12340476D01*
X10557143Y-12235714D02*
X10566667Y-12216667D01*
X10585714Y-12207143D01*
X10614286Y-12207143D01*
X10633333Y-12216667D01*
X10642857Y-12235714D01*
X10642857Y-12340476D01*
X11033333Y-12130952D02*
X10861905Y-12388095D01*
X11290476Y-12140476D02*
X11309524Y-12140476D01*
X11328571Y-12150000D01*
X11338095Y-12159524D01*
X11347619Y-12178571D01*
X11357143Y-12216667D01*
X11357143Y-12264286D01*
X11347619Y-12302381D01*
X11338095Y-12321428D01*
X11328571Y-12330952D01*
X11309524Y-12340476D01*
X11290476Y-12340476D01*
X11271428Y-12330952D01*
X11261905Y-12321428D01*
X11252381Y-12302381D01*
X11242857Y-12264286D01*
X11242857Y-12216667D01*
X11252381Y-12178571D01*
X11261905Y-12159524D01*
X11271428Y-12150000D01*
X11290476Y-12140476D01*
X11442857Y-12321428D02*
X11452381Y-12330952D01*
X11442857Y-12340476D01*
X11433333Y-12330952D01*
X11442857Y-12321428D01*
X11442857Y-12340476D01*
X11576190Y-12140476D02*
X11595238Y-12140476D01*
X11614286Y-12150000D01*
X11623809Y-12159524D01*
X11633333Y-12178571D01*
X11642857Y-12216667D01*
X11642857Y-12264286D01*
X11633333Y-12302381D01*
X11623809Y-12321428D01*
X11614286Y-12330952D01*
X11595238Y-12340476D01*
X11576190Y-12340476D01*
X11557143Y-12330952D01*
X11547619Y-12321428D01*
X11538095Y-12302381D01*
X11528571Y-12264286D01*
X11528571Y-12216667D01*
X11538095Y-12178571D01*
X11547619Y-12159524D01*
X11557143Y-12150000D01*
X11576190Y-12140476D01*
X11766667Y-12140476D02*
X11785714Y-12140476D01*
X11804762Y-12150000D01*
X11814286Y-12159524D01*
X11823809Y-12178571D01*
X11833333Y-12216667D01*
X11833333Y-12264286D01*
X11823809Y-12302381D01*
X11814286Y-12321428D01*
X11804762Y-12330952D01*
X11785714Y-12340476D01*
X11766667Y-12340476D01*
X11747619Y-12330952D01*
X11738095Y-12321428D01*
X11728571Y-12302381D01*
X11719048Y-12264286D01*
X11719048Y-12216667D01*
X11728571Y-12178571D01*
X11738095Y-12159524D01*
X11747619Y-12150000D01*
X11766667Y-12140476D01*
X11900000Y-12140476D02*
X12033333Y-12140476D01*
X11947619Y-12340476D01*
X12119048Y-12340476D02*
X12157143Y-12340476D01*
X12176190Y-12330952D01*
X12185714Y-12321428D01*
X12204762Y-12292857D01*
X12214286Y-12254762D01*
X12214286Y-12178571D01*
X12204762Y-12159524D01*
X12195238Y-12150000D01*
X12176190Y-12140476D01*
X12138095Y-12140476D01*
X12119048Y-12150000D01*
X12109524Y-12159524D01*
X12100000Y-12178571D01*
X12100000Y-12226190D01*
X12109524Y-12245238D01*
X12119048Y-12254762D01*
X12138095Y-12264286D01*
X12176190Y-12264286D01*
X12195238Y-12254762D01*
X12204762Y-12245238D01*
X12214286Y-12226190D01*
X12290476Y-12140476D02*
X12290476Y-12178571D01*
X12366667Y-12140476D02*
X12366667Y-12178571D01*
X12661905Y-12416667D02*
X12652381Y-12407143D01*
X12633333Y-12378571D01*
X12623809Y-12359524D01*
X12614286Y-12330952D01*
X12604762Y-12283333D01*
X12604762Y-12245238D01*
X12614286Y-12197619D01*
X12623809Y-12169048D01*
X12633333Y-12150000D01*
X12652381Y-12121428D01*
X12661905Y-12111905D01*
X12728571Y-12159524D02*
X12738095Y-12150000D01*
X12757143Y-12140476D01*
X12804762Y-12140476D01*
X12823809Y-12150000D01*
X12833333Y-12159524D01*
X12842857Y-12178571D01*
X12842857Y-12197619D01*
X12833333Y-12226190D01*
X12719048Y-12340476D01*
X12842857Y-12340476D01*
X13033333Y-12340476D02*
X12919048Y-12340476D01*
X12976190Y-12340476D02*
X12976190Y-12140476D01*
X12957143Y-12169048D01*
X12938095Y-12188095D01*
X12919048Y-12197619D01*
X13271428Y-12340476D02*
X13271428Y-12140476D01*
X13357143Y-12340476D02*
X13357143Y-12235714D01*
X13347619Y-12216667D01*
X13328571Y-12207143D01*
X13300000Y-12207143D01*
X13280952Y-12216667D01*
X13271428Y-12226190D01*
X13480952Y-12340476D02*
X13461905Y-12330952D01*
X13452381Y-12321428D01*
X13442857Y-12302381D01*
X13442857Y-12245238D01*
X13452381Y-12226190D01*
X13461905Y-12216667D01*
X13480952Y-12207143D01*
X13509524Y-12207143D01*
X13528571Y-12216667D01*
X13538095Y-12226190D01*
X13547619Y-12245238D01*
X13547619Y-12302381D01*
X13538095Y-12321428D01*
X13528571Y-12330952D01*
X13509524Y-12340476D01*
X13480952Y-12340476D01*
X13661905Y-12340476D02*
X13642857Y-12330952D01*
X13633333Y-12311905D01*
X13633333Y-12140476D01*
X13814286Y-12330952D02*
X13795238Y-12340476D01*
X13757143Y-12340476D01*
X13738095Y-12330952D01*
X13728571Y-12311905D01*
X13728571Y-12235714D01*
X13738095Y-12216667D01*
X13757143Y-12207143D01*
X13795238Y-12207143D01*
X13814286Y-12216667D01*
X13823809Y-12235714D01*
X13823809Y-12254762D01*
X13728571Y-12273809D01*
X13900000Y-12330952D02*
X13919048Y-12340476D01*
X13957143Y-12340476D01*
X13976190Y-12330952D01*
X13985714Y-12311905D01*
X13985714Y-12302381D01*
X13976190Y-12283333D01*
X13957143Y-12273809D01*
X13928571Y-12273809D01*
X13909524Y-12264286D01*
X13900000Y-12245238D01*
X13900000Y-12235714D01*
X13909524Y-12216667D01*
X13928571Y-12207143D01*
X13957143Y-12207143D01*
X13976190Y-12216667D01*
X14052381Y-12416667D02*
X14061905Y-12407143D01*
X14080952Y-12378571D01*
X14090476Y-12359524D01*
X14100000Y-12330952D01*
X14109524Y-12283333D01*
X14109524Y-12245238D01*
X14100000Y-12197619D01*
X14090476Y-12169048D01*
X14080952Y-12150000D01*
X14061905Y-12121428D01*
X14052381Y-12111905D01*
D11*
X9090000Y-12514000D02*
G75*
G03*
X9090000Y-12514000I-10000J0D01*
G01*
D10*
X9385714Y-12404476D02*
X9404762Y-12404476D01*
X9423810Y-12414000D01*
X9433333Y-12423524D01*
X9442857Y-12442571D01*
X9452381Y-12480667D01*
X9452381Y-12528286D01*
X9442857Y-12566381D01*
X9433333Y-12585428D01*
X9423810Y-12594952D01*
X9404762Y-12604476D01*
X9385714Y-12604476D01*
X9366667Y-12594952D01*
X9357143Y-12585428D01*
X9347619Y-12566381D01*
X9338095Y-12528286D01*
X9338095Y-12480667D01*
X9347619Y-12442571D01*
X9357143Y-12423524D01*
X9366667Y-12414000D01*
X9385714Y-12404476D01*
X9538095Y-12585428D02*
X9547619Y-12594952D01*
X9538095Y-12604476D01*
X9528571Y-12594952D01*
X9538095Y-12585428D01*
X9538095Y-12604476D01*
X9623810Y-12423524D02*
X9633333Y-12414000D01*
X9652381Y-12404476D01*
X9700000Y-12404476D01*
X9719048Y-12414000D01*
X9728571Y-12423524D01*
X9738095Y-12442571D01*
X9738095Y-12461619D01*
X9728571Y-12490190D01*
X9614286Y-12604476D01*
X9738095Y-12604476D01*
X9861905Y-12404476D02*
X9880952Y-12404476D01*
X9900000Y-12414000D01*
X9909524Y-12423524D01*
X9919048Y-12442571D01*
X9928571Y-12480667D01*
X9928571Y-12528286D01*
X9919048Y-12566381D01*
X9909524Y-12585428D01*
X9900000Y-12594952D01*
X9880952Y-12604476D01*
X9861905Y-12604476D01*
X9842857Y-12594952D01*
X9833333Y-12585428D01*
X9823810Y-12566381D01*
X9814286Y-12528286D01*
X9814286Y-12480667D01*
X9823810Y-12442571D01*
X9833333Y-12423524D01*
X9842857Y-12414000D01*
X9861905Y-12404476D01*
X10052381Y-12404476D02*
X10071429Y-12404476D01*
X10090476Y-12414000D01*
X10100000Y-12423524D01*
X10109524Y-12442571D01*
X10119048Y-12480667D01*
X10119048Y-12528286D01*
X10109524Y-12566381D01*
X10100000Y-12585428D01*
X10090476Y-12594952D01*
X10071429Y-12604476D01*
X10052381Y-12604476D01*
X10033333Y-12594952D01*
X10023810Y-12585428D01*
X10014286Y-12566381D01*
X10004762Y-12528286D01*
X10004762Y-12480667D01*
X10014286Y-12442571D01*
X10023810Y-12423524D01*
X10033333Y-12414000D01*
X10052381Y-12404476D01*
X10204762Y-12604476D02*
X10204762Y-12471143D01*
X10204762Y-12490190D02*
X10214286Y-12480667D01*
X10233333Y-12471143D01*
X10261905Y-12471143D01*
X10280952Y-12480667D01*
X10290476Y-12499714D01*
X10290476Y-12604476D01*
X10290476Y-12499714D02*
X10300000Y-12480667D01*
X10319048Y-12471143D01*
X10347619Y-12471143D01*
X10366667Y-12480667D01*
X10376190Y-12499714D01*
X10376190Y-12604476D01*
X10471429Y-12604476D02*
X10471429Y-12471143D01*
X10471429Y-12490190D02*
X10480952Y-12480667D01*
X10500000Y-12471143D01*
X10528571Y-12471143D01*
X10547619Y-12480667D01*
X10557143Y-12499714D01*
X10557143Y-12604476D01*
X10557143Y-12499714D02*
X10566667Y-12480667D01*
X10585714Y-12471143D01*
X10614286Y-12471143D01*
X10633333Y-12480667D01*
X10642857Y-12499714D01*
X10642857Y-12604476D01*
X11033333Y-12394952D02*
X10861905Y-12652095D01*
X11290476Y-12404476D02*
X11309524Y-12404476D01*
X11328571Y-12414000D01*
X11338095Y-12423524D01*
X11347619Y-12442571D01*
X11357143Y-12480667D01*
X11357143Y-12528286D01*
X11347619Y-12566381D01*
X11338095Y-12585428D01*
X11328571Y-12594952D01*
X11309524Y-12604476D01*
X11290476Y-12604476D01*
X11271428Y-12594952D01*
X11261905Y-12585428D01*
X11252381Y-12566381D01*
X11242857Y-12528286D01*
X11242857Y-12480667D01*
X11252381Y-12442571D01*
X11261905Y-12423524D01*
X11271428Y-12414000D01*
X11290476Y-12404476D01*
X11442857Y-12585428D02*
X11452381Y-12594952D01*
X11442857Y-12604476D01*
X11433333Y-12594952D01*
X11442857Y-12585428D01*
X11442857Y-12604476D01*
X11576190Y-12404476D02*
X11595238Y-12404476D01*
X11614286Y-12414000D01*
X11623809Y-12423524D01*
X11633333Y-12442571D01*
X11642857Y-12480667D01*
X11642857Y-12528286D01*
X11633333Y-12566381D01*
X11623809Y-12585428D01*
X11614286Y-12594952D01*
X11595238Y-12604476D01*
X11576190Y-12604476D01*
X11557143Y-12594952D01*
X11547619Y-12585428D01*
X11538095Y-12566381D01*
X11528571Y-12528286D01*
X11528571Y-12480667D01*
X11538095Y-12442571D01*
X11547619Y-12423524D01*
X11557143Y-12414000D01*
X11576190Y-12404476D01*
X11766667Y-12404476D02*
X11785714Y-12404476D01*
X11804762Y-12414000D01*
X11814286Y-12423524D01*
X11823809Y-12442571D01*
X11833333Y-12480667D01*
X11833333Y-12528286D01*
X11823809Y-12566381D01*
X11814286Y-12585428D01*
X11804762Y-12594952D01*
X11785714Y-12604476D01*
X11766667Y-12604476D01*
X11747619Y-12594952D01*
X11738095Y-12585428D01*
X11728571Y-12566381D01*
X11719048Y-12528286D01*
X11719048Y-12480667D01*
X11728571Y-12442571D01*
X11738095Y-12423524D01*
X11747619Y-12414000D01*
X11766667Y-12404476D01*
X11900000Y-12404476D02*
X12033333Y-12404476D01*
X11947619Y-12604476D01*
X12119048Y-12604476D02*
X12157143Y-12604476D01*
X12176190Y-12594952D01*
X12185714Y-12585428D01*
X12204762Y-12556857D01*
X12214286Y-12518762D01*
X12214286Y-12442571D01*
X12204762Y-12423524D01*
X12195238Y-12414000D01*
X12176190Y-12404476D01*
X12138095Y-12404476D01*
X12119048Y-12414000D01*
X12109524Y-12423524D01*
X12100000Y-12442571D01*
X12100000Y-12490190D01*
X12109524Y-12509238D01*
X12119048Y-12518762D01*
X12138095Y-12528286D01*
X12176190Y-12528286D01*
X12195238Y-12518762D01*
X12204762Y-12509238D01*
X12214286Y-12490190D01*
X12290476Y-12404476D02*
X12290476Y-12442571D01*
X12366667Y-12404476D02*
X12366667Y-12442571D01*
X12661905Y-12680667D02*
X12652381Y-12671143D01*
X12633333Y-12642571D01*
X12623809Y-12623524D01*
X12614286Y-12594952D01*
X12604762Y-12547333D01*
X12604762Y-12509238D01*
X12614286Y-12461619D01*
X12623809Y-12433048D01*
X12633333Y-12414000D01*
X12652381Y-12385428D01*
X12661905Y-12375905D01*
X12842857Y-12604476D02*
X12728571Y-12604476D01*
X12785714Y-12604476D02*
X12785714Y-12404476D01*
X12766667Y-12433048D01*
X12747619Y-12452095D01*
X12728571Y-12461619D01*
X12919048Y-12423524D02*
X12928571Y-12414000D01*
X12947619Y-12404476D01*
X12995238Y-12404476D01*
X13014286Y-12414000D01*
X13023809Y-12423524D01*
X13033333Y-12442571D01*
X13033333Y-12461619D01*
X13023809Y-12490190D01*
X12909524Y-12604476D01*
X13033333Y-12604476D01*
X13271428Y-12604476D02*
X13271428Y-12404476D01*
X13357143Y-12604476D02*
X13357143Y-12499714D01*
X13347619Y-12480667D01*
X13328571Y-12471143D01*
X13300000Y-12471143D01*
X13280952Y-12480667D01*
X13271428Y-12490190D01*
X13480952Y-12604476D02*
X13461905Y-12594952D01*
X13452381Y-12585428D01*
X13442857Y-12566381D01*
X13442857Y-12509238D01*
X13452381Y-12490190D01*
X13461905Y-12480667D01*
X13480952Y-12471143D01*
X13509524Y-12471143D01*
X13528571Y-12480667D01*
X13538095Y-12490190D01*
X13547619Y-12509238D01*
X13547619Y-12566381D01*
X13538095Y-12585428D01*
X13528571Y-12594952D01*
X13509524Y-12604476D01*
X13480952Y-12604476D01*
X13661905Y-12604476D02*
X13642857Y-12594952D01*
X13633333Y-12575905D01*
X13633333Y-12404476D01*
X13814286Y-12594952D02*
X13795238Y-12604476D01*
X13757143Y-12604476D01*
X13738095Y-12594952D01*
X13728571Y-12575905D01*
X13728571Y-12499714D01*
X13738095Y-12480667D01*
X13757143Y-12471143D01*
X13795238Y-12471143D01*
X13814286Y-12480667D01*
X13823809Y-12499714D01*
X13823809Y-12518762D01*
X13728571Y-12537809D01*
X13900000Y-12594952D02*
X13919048Y-12604476D01*
X13957143Y-12604476D01*
X13976190Y-12594952D01*
X13985714Y-12575905D01*
X13985714Y-12566381D01*
X13976190Y-12547333D01*
X13957143Y-12537809D01*
X13928571Y-12537809D01*
X13909524Y-12528286D01*
X13900000Y-12509238D01*
X13900000Y-12499714D01*
X13909524Y-12480667D01*
X13928571Y-12471143D01*
X13957143Y-12471143D01*
X13976190Y-12480667D01*
X14052381Y-12680667D02*
X14061905Y-12671143D01*
X14080952Y-12642571D01*
X14090476Y-12623524D01*
X14100000Y-12594952D01*
X14109524Y-12547333D01*
X14109524Y-12509238D01*
X14100000Y-12461619D01*
X14090476Y-12433048D01*
X14080952Y-12414000D01*
X14061905Y-12385428D01*
X14052381Y-12375905D01*
D12*
X9070000Y-12758000D02*
X9070000Y-12798000D01*
X9050000Y-12778000D02*
X9090000Y-12778000D01*
D10*
X9385714Y-12668476D02*
X9404762Y-12668476D01*
X9423810Y-12678000D01*
X9433333Y-12687524D01*
X9442857Y-12706571D01*
X9452381Y-12744667D01*
X9452381Y-12792286D01*
X9442857Y-12830381D01*
X9433333Y-12849428D01*
X9423810Y-12858952D01*
X9404762Y-12868476D01*
X9385714Y-12868476D01*
X9366667Y-12858952D01*
X9357143Y-12849428D01*
X9347619Y-12830381D01*
X9338095Y-12792286D01*
X9338095Y-12744667D01*
X9347619Y-12706571D01*
X9357143Y-12687524D01*
X9366667Y-12678000D01*
X9385714Y-12668476D01*
X9538095Y-12849428D02*
X9547619Y-12858952D01*
X9538095Y-12868476D01*
X9528571Y-12858952D01*
X9538095Y-12849428D01*
X9538095Y-12868476D01*
X9719048Y-12735143D02*
X9719048Y-12868476D01*
X9671429Y-12658952D02*
X9623810Y-12801809D01*
X9747619Y-12801809D01*
X9861905Y-12668476D02*
X9880952Y-12668476D01*
X9900000Y-12678000D01*
X9909524Y-12687524D01*
X9919048Y-12706571D01*
X9928571Y-12744667D01*
X9928571Y-12792286D01*
X9919048Y-12830381D01*
X9909524Y-12849428D01*
X9900000Y-12858952D01*
X9880952Y-12868476D01*
X9861905Y-12868476D01*
X9842857Y-12858952D01*
X9833333Y-12849428D01*
X9823810Y-12830381D01*
X9814286Y-12792286D01*
X9814286Y-12744667D01*
X9823810Y-12706571D01*
X9833333Y-12687524D01*
X9842857Y-12678000D01*
X9861905Y-12668476D01*
X10052381Y-12668476D02*
X10071429Y-12668476D01*
X10090476Y-12678000D01*
X10100000Y-12687524D01*
X10109524Y-12706571D01*
X10119048Y-12744667D01*
X10119048Y-12792286D01*
X10109524Y-12830381D01*
X10100000Y-12849428D01*
X10090476Y-12858952D01*
X10071429Y-12868476D01*
X10052381Y-12868476D01*
X10033333Y-12858952D01*
X10023810Y-12849428D01*
X10014286Y-12830381D01*
X10004762Y-12792286D01*
X10004762Y-12744667D01*
X10014286Y-12706571D01*
X10023810Y-12687524D01*
X10033333Y-12678000D01*
X10052381Y-12668476D01*
X10204762Y-12868476D02*
X10204762Y-12735143D01*
X10204762Y-12754190D02*
X10214286Y-12744667D01*
X10233333Y-12735143D01*
X10261905Y-12735143D01*
X10280952Y-12744667D01*
X10290476Y-12763714D01*
X10290476Y-12868476D01*
X10290476Y-12763714D02*
X10300000Y-12744667D01*
X10319048Y-12735143D01*
X10347619Y-12735143D01*
X10366667Y-12744667D01*
X10376190Y-12763714D01*
X10376190Y-12868476D01*
X10471429Y-12868476D02*
X10471429Y-12735143D01*
X10471429Y-12754190D02*
X10480952Y-12744667D01*
X10500000Y-12735143D01*
X10528571Y-12735143D01*
X10547619Y-12744667D01*
X10557143Y-12763714D01*
X10557143Y-12868476D01*
X10557143Y-12763714D02*
X10566667Y-12744667D01*
X10585714Y-12735143D01*
X10614286Y-12735143D01*
X10633333Y-12744667D01*
X10642857Y-12763714D01*
X10642857Y-12868476D01*
X11033333Y-12658952D02*
X10861905Y-12916095D01*
X11290476Y-12668476D02*
X11309524Y-12668476D01*
X11328571Y-12678000D01*
X11338095Y-12687524D01*
X11347619Y-12706571D01*
X11357143Y-12744667D01*
X11357143Y-12792286D01*
X11347619Y-12830381D01*
X11338095Y-12849428D01*
X11328571Y-12858952D01*
X11309524Y-12868476D01*
X11290476Y-12868476D01*
X11271428Y-12858952D01*
X11261905Y-12849428D01*
X11252381Y-12830381D01*
X11242857Y-12792286D01*
X11242857Y-12744667D01*
X11252381Y-12706571D01*
X11261905Y-12687524D01*
X11271428Y-12678000D01*
X11290476Y-12668476D01*
X11442857Y-12849428D02*
X11452381Y-12858952D01*
X11442857Y-12868476D01*
X11433333Y-12858952D01*
X11442857Y-12849428D01*
X11442857Y-12868476D01*
X11576190Y-12668476D02*
X11595238Y-12668476D01*
X11614286Y-12678000D01*
X11623809Y-12687524D01*
X11633333Y-12706571D01*
X11642857Y-12744667D01*
X11642857Y-12792286D01*
X11633333Y-12830381D01*
X11623809Y-12849428D01*
X11614286Y-12858952D01*
X11595238Y-12868476D01*
X11576190Y-12868476D01*
X11557143Y-12858952D01*
X11547619Y-12849428D01*
X11538095Y-12830381D01*
X11528571Y-12792286D01*
X11528571Y-12744667D01*
X11538095Y-12706571D01*
X11547619Y-12687524D01*
X11557143Y-12678000D01*
X11576190Y-12668476D01*
X11833333Y-12868476D02*
X11719048Y-12868476D01*
X11776190Y-12868476D02*
X11776190Y-12668476D01*
X11757143Y-12697048D01*
X11738095Y-12716095D01*
X11719048Y-12725619D01*
X12014286Y-12668476D02*
X11919048Y-12668476D01*
X11909524Y-12763714D01*
X11919048Y-12754190D01*
X11938095Y-12744667D01*
X11985714Y-12744667D01*
X12004762Y-12754190D01*
X12014286Y-12763714D01*
X12023809Y-12782762D01*
X12023809Y-12830381D01*
X12014286Y-12849428D01*
X12004762Y-12858952D01*
X11985714Y-12868476D01*
X11938095Y-12868476D01*
X11919048Y-12858952D01*
X11909524Y-12849428D01*
X12090476Y-12668476D02*
X12223809Y-12668476D01*
X12138095Y-12868476D01*
X12290476Y-12668476D02*
X12290476Y-12706571D01*
X12366667Y-12668476D02*
X12366667Y-12706571D01*
X12661905Y-12944667D02*
X12652381Y-12935143D01*
X12633333Y-12906571D01*
X12623809Y-12887524D01*
X12614286Y-12858952D01*
X12604762Y-12811333D01*
X12604762Y-12773238D01*
X12614286Y-12725619D01*
X12623809Y-12697048D01*
X12633333Y-12678000D01*
X12652381Y-12649428D01*
X12661905Y-12639905D01*
X12823809Y-12735143D02*
X12823809Y-12868476D01*
X12776190Y-12658952D02*
X12728571Y-12801809D01*
X12852381Y-12801809D01*
X12938095Y-12868476D02*
X12976190Y-12868476D01*
X12995238Y-12858952D01*
X13004762Y-12849428D01*
X13023809Y-12820857D01*
X13033333Y-12782762D01*
X13033333Y-12706571D01*
X13023809Y-12687524D01*
X13014286Y-12678000D01*
X12995238Y-12668476D01*
X12957143Y-12668476D01*
X12938095Y-12678000D01*
X12928571Y-12687524D01*
X12919048Y-12706571D01*
X12919048Y-12754190D01*
X12928571Y-12773238D01*
X12938095Y-12782762D01*
X12957143Y-12792286D01*
X12995238Y-12792286D01*
X13014286Y-12782762D01*
X13023809Y-12773238D01*
X13033333Y-12754190D01*
X13271428Y-12868476D02*
X13271428Y-12668476D01*
X13357143Y-12868476D02*
X13357143Y-12763714D01*
X13347619Y-12744667D01*
X13328571Y-12735143D01*
X13300000Y-12735143D01*
X13280952Y-12744667D01*
X13271428Y-12754190D01*
X13480952Y-12868476D02*
X13461905Y-12858952D01*
X13452381Y-12849428D01*
X13442857Y-12830381D01*
X13442857Y-12773238D01*
X13452381Y-12754190D01*
X13461905Y-12744667D01*
X13480952Y-12735143D01*
X13509524Y-12735143D01*
X13528571Y-12744667D01*
X13538095Y-12754190D01*
X13547619Y-12773238D01*
X13547619Y-12830381D01*
X13538095Y-12849428D01*
X13528571Y-12858952D01*
X13509524Y-12868476D01*
X13480952Y-12868476D01*
X13661905Y-12868476D02*
X13642857Y-12858952D01*
X13633333Y-12839905D01*
X13633333Y-12668476D01*
X13814286Y-12858952D02*
X13795238Y-12868476D01*
X13757143Y-12868476D01*
X13738095Y-12858952D01*
X13728571Y-12839905D01*
X13728571Y-12763714D01*
X13738095Y-12744667D01*
X13757143Y-12735143D01*
X13795238Y-12735143D01*
X13814286Y-12744667D01*
X13823809Y-12763714D01*
X13823809Y-12782762D01*
X13728571Y-12801809D01*
X13900000Y-12858952D02*
X13919048Y-12868476D01*
X13957143Y-12868476D01*
X13976190Y-12858952D01*
X13985714Y-12839905D01*
X13985714Y-12830381D01*
X13976190Y-12811333D01*
X13957143Y-12801809D01*
X13928571Y-12801809D01*
X13909524Y-12792286D01*
X13900000Y-12773238D01*
X13900000Y-12763714D01*
X13909524Y-12744667D01*
X13928571Y-12735143D01*
X13957143Y-12735143D01*
X13976190Y-12744667D01*
X14052381Y-12944667D02*
X14061905Y-12935143D01*
X14080952Y-12906571D01*
X14090476Y-12887524D01*
X14100000Y-12858952D01*
X14109524Y-12811333D01*
X14109524Y-12773238D01*
X14100000Y-12725619D01*
X14090476Y-12697048D01*
X14080952Y-12678000D01*
X14061905Y-12649428D01*
X14052381Y-12639905D01*
D13*
X9081213Y-13063213D02*
X9081213Y-13020787D01*
X9038787Y-13020787D01*
X9038787Y-13063213D01*
X9081213Y-13063213D01*
D10*
X9385714Y-12932476D02*
X9404762Y-12932476D01*
X9423810Y-12942000D01*
X9433333Y-12951524D01*
X9442857Y-12970571D01*
X9452381Y-13008667D01*
X9452381Y-13056286D01*
X9442857Y-13094381D01*
X9433333Y-13113428D01*
X9423810Y-13122952D01*
X9404762Y-13132476D01*
X9385714Y-13132476D01*
X9366667Y-13122952D01*
X9357143Y-13113428D01*
X9347619Y-13094381D01*
X9338095Y-13056286D01*
X9338095Y-13008667D01*
X9347619Y-12970571D01*
X9357143Y-12951524D01*
X9366667Y-12942000D01*
X9385714Y-12932476D01*
X9538095Y-13113428D02*
X9547619Y-13122952D01*
X9538095Y-13132476D01*
X9528571Y-13122952D01*
X9538095Y-13113428D01*
X9538095Y-13132476D01*
X9719048Y-12932476D02*
X9680952Y-12932476D01*
X9661905Y-12942000D01*
X9652381Y-12951524D01*
X9633333Y-12980095D01*
X9623810Y-13018190D01*
X9623810Y-13094381D01*
X9633333Y-13113428D01*
X9642857Y-13122952D01*
X9661905Y-13132476D01*
X9700000Y-13132476D01*
X9719048Y-13122952D01*
X9728571Y-13113428D01*
X9738095Y-13094381D01*
X9738095Y-13046762D01*
X9728571Y-13027714D01*
X9719048Y-13018190D01*
X9700000Y-13008667D01*
X9661905Y-13008667D01*
X9642857Y-13018190D01*
X9633333Y-13027714D01*
X9623810Y-13046762D01*
X9861905Y-12932476D02*
X9880952Y-12932476D01*
X9900000Y-12942000D01*
X9909524Y-12951524D01*
X9919048Y-12970571D01*
X9928571Y-13008667D01*
X9928571Y-13056286D01*
X9919048Y-13094381D01*
X9909524Y-13113428D01*
X9900000Y-13122952D01*
X9880952Y-13132476D01*
X9861905Y-13132476D01*
X9842857Y-13122952D01*
X9833333Y-13113428D01*
X9823810Y-13094381D01*
X9814286Y-13056286D01*
X9814286Y-13008667D01*
X9823810Y-12970571D01*
X9833333Y-12951524D01*
X9842857Y-12942000D01*
X9861905Y-12932476D01*
X10052381Y-12932476D02*
X10071429Y-12932476D01*
X10090476Y-12942000D01*
X10100000Y-12951524D01*
X10109524Y-12970571D01*
X10119048Y-13008667D01*
X10119048Y-13056286D01*
X10109524Y-13094381D01*
X10100000Y-13113428D01*
X10090476Y-13122952D01*
X10071429Y-13132476D01*
X10052381Y-13132476D01*
X10033333Y-13122952D01*
X10023810Y-13113428D01*
X10014286Y-13094381D01*
X10004762Y-13056286D01*
X10004762Y-13008667D01*
X10014286Y-12970571D01*
X10023810Y-12951524D01*
X10033333Y-12942000D01*
X10052381Y-12932476D01*
X10204762Y-13132476D02*
X10204762Y-12999143D01*
X10204762Y-13018190D02*
X10214286Y-13008667D01*
X10233333Y-12999143D01*
X10261905Y-12999143D01*
X10280952Y-13008667D01*
X10290476Y-13027714D01*
X10290476Y-13132476D01*
X10290476Y-13027714D02*
X10300000Y-13008667D01*
X10319048Y-12999143D01*
X10347619Y-12999143D01*
X10366667Y-13008667D01*
X10376190Y-13027714D01*
X10376190Y-13132476D01*
X10471429Y-13132476D02*
X10471429Y-12999143D01*
X10471429Y-13018190D02*
X10480952Y-13008667D01*
X10500000Y-12999143D01*
X10528571Y-12999143D01*
X10547619Y-13008667D01*
X10557143Y-13027714D01*
X10557143Y-13132476D01*
X10557143Y-13027714D02*
X10566667Y-13008667D01*
X10585714Y-12999143D01*
X10614286Y-12999143D01*
X10633333Y-13008667D01*
X10642857Y-13027714D01*
X10642857Y-13132476D01*
X11033333Y-12922952D02*
X10861905Y-13180095D01*
X11290476Y-12932476D02*
X11309524Y-12932476D01*
X11328571Y-12942000D01*
X11338095Y-12951524D01*
X11347619Y-12970571D01*
X11357143Y-13008667D01*
X11357143Y-13056286D01*
X11347619Y-13094381D01*
X11338095Y-13113428D01*
X11328571Y-13122952D01*
X11309524Y-13132476D01*
X11290476Y-13132476D01*
X11271428Y-13122952D01*
X11261905Y-13113428D01*
X11252381Y-13094381D01*
X11242857Y-13056286D01*
X11242857Y-13008667D01*
X11252381Y-12970571D01*
X11261905Y-12951524D01*
X11271428Y-12942000D01*
X11290476Y-12932476D01*
X11442857Y-13113428D02*
X11452381Y-13122952D01*
X11442857Y-13132476D01*
X11433333Y-13122952D01*
X11442857Y-13113428D01*
X11442857Y-13132476D01*
X11576190Y-12932476D02*
X11595238Y-12932476D01*
X11614286Y-12942000D01*
X11623809Y-12951524D01*
X11633333Y-12970571D01*
X11642857Y-13008667D01*
X11642857Y-13056286D01*
X11633333Y-13094381D01*
X11623809Y-13113428D01*
X11614286Y-13122952D01*
X11595238Y-13132476D01*
X11576190Y-13132476D01*
X11557143Y-13122952D01*
X11547619Y-13113428D01*
X11538095Y-13094381D01*
X11528571Y-13056286D01*
X11528571Y-13008667D01*
X11538095Y-12970571D01*
X11547619Y-12951524D01*
X11557143Y-12942000D01*
X11576190Y-12932476D01*
X11719048Y-12951524D02*
X11728571Y-12942000D01*
X11747619Y-12932476D01*
X11795238Y-12932476D01*
X11814286Y-12942000D01*
X11823809Y-12951524D01*
X11833333Y-12970571D01*
X11833333Y-12989619D01*
X11823809Y-13018190D01*
X11709524Y-13132476D01*
X11833333Y-13132476D01*
X11900000Y-12932476D02*
X12023809Y-12932476D01*
X11957143Y-13008667D01*
X11985714Y-13008667D01*
X12004762Y-13018190D01*
X12014286Y-13027714D01*
X12023809Y-13046762D01*
X12023809Y-13094381D01*
X12014286Y-13113428D01*
X12004762Y-13122952D01*
X11985714Y-13132476D01*
X11928571Y-13132476D01*
X11909524Y-13122952D01*
X11900000Y-13113428D01*
X12195238Y-12932476D02*
X12157143Y-12932476D01*
X12138095Y-12942000D01*
X12128571Y-12951524D01*
X12109524Y-12980095D01*
X12100000Y-13018190D01*
X12100000Y-13094381D01*
X12109524Y-13113428D01*
X12119048Y-13122952D01*
X12138095Y-13132476D01*
X12176190Y-13132476D01*
X12195238Y-13122952D01*
X12204762Y-13113428D01*
X12214286Y-13094381D01*
X12214286Y-13046762D01*
X12204762Y-13027714D01*
X12195238Y-13018190D01*
X12176190Y-13008667D01*
X12138095Y-13008667D01*
X12119048Y-13018190D01*
X12109524Y-13027714D01*
X12100000Y-13046762D01*
X12290476Y-12932476D02*
X12290476Y-12970571D01*
X12366667Y-12932476D02*
X12366667Y-12970571D01*
X12661905Y-13208667D02*
X12652381Y-13199143D01*
X12633333Y-13170571D01*
X12623809Y-13151524D01*
X12614286Y-13122952D01*
X12604762Y-13075333D01*
X12604762Y-13037238D01*
X12614286Y-12989619D01*
X12623809Y-12961048D01*
X12633333Y-12942000D01*
X12652381Y-12913428D01*
X12661905Y-12903905D01*
X12776190Y-12932476D02*
X12795238Y-12932476D01*
X12814286Y-12942000D01*
X12823809Y-12951524D01*
X12833333Y-12970571D01*
X12842857Y-13008667D01*
X12842857Y-13056286D01*
X12833333Y-13094381D01*
X12823809Y-13113428D01*
X12814286Y-13122952D01*
X12795238Y-13132476D01*
X12776190Y-13132476D01*
X12757143Y-13122952D01*
X12747619Y-13113428D01*
X12738095Y-13094381D01*
X12728571Y-13056286D01*
X12728571Y-13008667D01*
X12738095Y-12970571D01*
X12747619Y-12951524D01*
X12757143Y-12942000D01*
X12776190Y-12932476D01*
X13080952Y-13132476D02*
X13080952Y-12932476D01*
X13166667Y-13132476D02*
X13166667Y-13027714D01*
X13157143Y-13008667D01*
X13138095Y-12999143D01*
X13109524Y-12999143D01*
X13090476Y-13008667D01*
X13080952Y-13018190D01*
X13290476Y-13132476D02*
X13271428Y-13122952D01*
X13261905Y-13113428D01*
X13252381Y-13094381D01*
X13252381Y-13037238D01*
X13261905Y-13018190D01*
X13271428Y-13008667D01*
X13290476Y-12999143D01*
X13319048Y-12999143D01*
X13338095Y-13008667D01*
X13347619Y-13018190D01*
X13357143Y-13037238D01*
X13357143Y-13094381D01*
X13347619Y-13113428D01*
X13338095Y-13122952D01*
X13319048Y-13132476D01*
X13290476Y-13132476D01*
X13471428Y-13132476D02*
X13452381Y-13122952D01*
X13442857Y-13103905D01*
X13442857Y-12932476D01*
X13623809Y-13122952D02*
X13604762Y-13132476D01*
X13566667Y-13132476D01*
X13547619Y-13122952D01*
X13538095Y-13103905D01*
X13538095Y-13027714D01*
X13547619Y-13008667D01*
X13566667Y-12999143D01*
X13604762Y-12999143D01*
X13623809Y-13008667D01*
X13633333Y-13027714D01*
X13633333Y-13046762D01*
X13538095Y-13065809D01*
X13709524Y-13122952D02*
X13728571Y-13132476D01*
X13766667Y-13132476D01*
X13785714Y-13122952D01*
X13795238Y-13103905D01*
X13795238Y-13094381D01*
X13785714Y-13075333D01*
X13766667Y-13065809D01*
X13738095Y-13065809D01*
X13719048Y-13056286D01*
X13709524Y-13037238D01*
X13709524Y-13027714D01*
X13719048Y-13008667D01*
X13738095Y-12999143D01*
X13766667Y-12999143D01*
X13785714Y-13008667D01*
X14033333Y-13056286D02*
X14185714Y-13056286D01*
X14109524Y-13132476D02*
X14109524Y-12980095D01*
X14423809Y-12951524D02*
X14433333Y-12942000D01*
X14452381Y-12932476D01*
X14500000Y-12932476D01*
X14519048Y-12942000D01*
X14528571Y-12951524D01*
X14538095Y-12970571D01*
X14538095Y-12989619D01*
X14528571Y-13018190D01*
X14414286Y-13132476D01*
X14538095Y-13132476D01*
X14766667Y-13122952D02*
X14785714Y-13132476D01*
X14823809Y-13132476D01*
X14842857Y-13122952D01*
X14852381Y-13103905D01*
X14852381Y-13094381D01*
X14842857Y-13075333D01*
X14823809Y-13065809D01*
X14795238Y-13065809D01*
X14776190Y-13056286D01*
X14766667Y-13037238D01*
X14766667Y-13027714D01*
X14776190Y-13008667D01*
X14795238Y-12999143D01*
X14823809Y-12999143D01*
X14842857Y-13008667D01*
X14966667Y-13132476D02*
X14947619Y-13122952D01*
X14938095Y-13103905D01*
X14938095Y-12932476D01*
X15071428Y-13132476D02*
X15052381Y-13122952D01*
X15042857Y-13113428D01*
X15033333Y-13094381D01*
X15033333Y-13037238D01*
X15042857Y-13018190D01*
X15052381Y-13008667D01*
X15071428Y-12999143D01*
X15100000Y-12999143D01*
X15119048Y-13008667D01*
X15128571Y-13018190D01*
X15138095Y-13037238D01*
X15138095Y-13094381D01*
X15128571Y-13113428D01*
X15119048Y-13122952D01*
X15100000Y-13132476D01*
X15071428Y-13132476D01*
X15195238Y-12999143D02*
X15271428Y-12999143D01*
X15223809Y-12932476D02*
X15223809Y-13103905D01*
X15233333Y-13122952D01*
X15252381Y-13132476D01*
X15271428Y-13132476D01*
X15328571Y-13122952D02*
X15347619Y-13132476D01*
X15385714Y-13132476D01*
X15404762Y-13122952D01*
X15414286Y-13103905D01*
X15414286Y-13094381D01*
X15404762Y-13075333D01*
X15385714Y-13065809D01*
X15357143Y-13065809D01*
X15338095Y-13056286D01*
X15328571Y-13037238D01*
X15328571Y-13027714D01*
X15338095Y-13008667D01*
X15357143Y-12999143D01*
X15385714Y-12999143D01*
X15404762Y-13008667D01*
X15480952Y-13208667D02*
X15490476Y-13199143D01*
X15509524Y-13170571D01*
X15519048Y-13151524D01*
X15528571Y-13122952D01*
X15538095Y-13075333D01*
X15538095Y-13037238D01*
X15528571Y-12989619D01*
X15519048Y-12961048D01*
X15509524Y-12942000D01*
X15490476Y-12913428D01*
X15480952Y-12903905D01*
D14*
X9047500Y-13348500D02*
X9090000Y-13306000D01*
X9047500Y-13263500D01*
X9005000Y-13306000D01*
X9047500Y-13348500D01*
D10*
X9385714Y-13196476D02*
X9404762Y-13196476D01*
X9423810Y-13206000D01*
X9433333Y-13215524D01*
X9442857Y-13234571D01*
X9452381Y-13272667D01*
X9452381Y-13320286D01*
X9442857Y-13358381D01*
X9433333Y-13377428D01*
X9423810Y-13386952D01*
X9404762Y-13396476D01*
X9385714Y-13396476D01*
X9366667Y-13386952D01*
X9357143Y-13377428D01*
X9347619Y-13358381D01*
X9338095Y-13320286D01*
X9338095Y-13272667D01*
X9347619Y-13234571D01*
X9357143Y-13215524D01*
X9366667Y-13206000D01*
X9385714Y-13196476D01*
X9538095Y-13377428D02*
X9547619Y-13386952D01*
X9538095Y-13396476D01*
X9528571Y-13386952D01*
X9538095Y-13377428D01*
X9538095Y-13396476D01*
X9661905Y-13282190D02*
X9642857Y-13272667D01*
X9633333Y-13263143D01*
X9623810Y-13244095D01*
X9623810Y-13234571D01*
X9633333Y-13215524D01*
X9642857Y-13206000D01*
X9661905Y-13196476D01*
X9700000Y-13196476D01*
X9719048Y-13206000D01*
X9728571Y-13215524D01*
X9738095Y-13234571D01*
X9738095Y-13244095D01*
X9728571Y-13263143D01*
X9719048Y-13272667D01*
X9700000Y-13282190D01*
X9661905Y-13282190D01*
X9642857Y-13291714D01*
X9633333Y-13301238D01*
X9623810Y-13320286D01*
X9623810Y-13358381D01*
X9633333Y-13377428D01*
X9642857Y-13386952D01*
X9661905Y-13396476D01*
X9700000Y-13396476D01*
X9719048Y-13386952D01*
X9728571Y-13377428D01*
X9738095Y-13358381D01*
X9738095Y-13320286D01*
X9728571Y-13301238D01*
X9719048Y-13291714D01*
X9700000Y-13282190D01*
X9919048Y-13196476D02*
X9823810Y-13196476D01*
X9814286Y-13291714D01*
X9823810Y-13282190D01*
X9842857Y-13272667D01*
X9890476Y-13272667D01*
X9909524Y-13282190D01*
X9919048Y-13291714D01*
X9928571Y-13310762D01*
X9928571Y-13358381D01*
X9919048Y-13377428D01*
X9909524Y-13386952D01*
X9890476Y-13396476D01*
X9842857Y-13396476D01*
X9823810Y-13386952D01*
X9814286Y-13377428D01*
X10052381Y-13196476D02*
X10071429Y-13196476D01*
X10090476Y-13206000D01*
X10100000Y-13215524D01*
X10109524Y-13234571D01*
X10119048Y-13272667D01*
X10119048Y-13320286D01*
X10109524Y-13358381D01*
X10100000Y-13377428D01*
X10090476Y-13386952D01*
X10071429Y-13396476D01*
X10052381Y-13396476D01*
X10033333Y-13386952D01*
X10023810Y-13377428D01*
X10014286Y-13358381D01*
X10004762Y-13320286D01*
X10004762Y-13272667D01*
X10014286Y-13234571D01*
X10023810Y-13215524D01*
X10033333Y-13206000D01*
X10052381Y-13196476D01*
X10204762Y-13396476D02*
X10204762Y-13263143D01*
X10204762Y-13282190D02*
X10214286Y-13272667D01*
X10233333Y-13263143D01*
X10261905Y-13263143D01*
X10280952Y-13272667D01*
X10290476Y-13291714D01*
X10290476Y-13396476D01*
X10290476Y-13291714D02*
X10300000Y-13272667D01*
X10319048Y-13263143D01*
X10347619Y-13263143D01*
X10366667Y-13272667D01*
X10376190Y-13291714D01*
X10376190Y-13396476D01*
X10471429Y-13396476D02*
X10471429Y-13263143D01*
X10471429Y-13282190D02*
X10480952Y-13272667D01*
X10500000Y-13263143D01*
X10528571Y-13263143D01*
X10547619Y-13272667D01*
X10557143Y-13291714D01*
X10557143Y-13396476D01*
X10557143Y-13291714D02*
X10566667Y-13272667D01*
X10585714Y-13263143D01*
X10614286Y-13263143D01*
X10633333Y-13272667D01*
X10642857Y-13291714D01*
X10642857Y-13396476D01*
X11033333Y-13186952D02*
X10861905Y-13444095D01*
X11290476Y-13196476D02*
X11309524Y-13196476D01*
X11328571Y-13206000D01*
X11338095Y-13215524D01*
X11347619Y-13234571D01*
X11357143Y-13272667D01*
X11357143Y-13320286D01*
X11347619Y-13358381D01*
X11338095Y-13377428D01*
X11328571Y-13386952D01*
X11309524Y-13396476D01*
X11290476Y-13396476D01*
X11271428Y-13386952D01*
X11261905Y-13377428D01*
X11252381Y-13358381D01*
X11242857Y-13320286D01*
X11242857Y-13272667D01*
X11252381Y-13234571D01*
X11261905Y-13215524D01*
X11271428Y-13206000D01*
X11290476Y-13196476D01*
X11442857Y-13377428D02*
X11452381Y-13386952D01*
X11442857Y-13396476D01*
X11433333Y-13386952D01*
X11442857Y-13377428D01*
X11442857Y-13396476D01*
X11576190Y-13196476D02*
X11595238Y-13196476D01*
X11614286Y-13206000D01*
X11623809Y-13215524D01*
X11633333Y-13234571D01*
X11642857Y-13272667D01*
X11642857Y-13320286D01*
X11633333Y-13358381D01*
X11623809Y-13377428D01*
X11614286Y-13386952D01*
X11595238Y-13396476D01*
X11576190Y-13396476D01*
X11557143Y-13386952D01*
X11547619Y-13377428D01*
X11538095Y-13358381D01*
X11528571Y-13320286D01*
X11528571Y-13272667D01*
X11538095Y-13234571D01*
X11547619Y-13215524D01*
X11557143Y-13206000D01*
X11576190Y-13196476D01*
X11709524Y-13196476D02*
X11833333Y-13196476D01*
X11766667Y-13272667D01*
X11795238Y-13272667D01*
X11814286Y-13282190D01*
X11823809Y-13291714D01*
X11833333Y-13310762D01*
X11833333Y-13358381D01*
X11823809Y-13377428D01*
X11814286Y-13386952D01*
X11795238Y-13396476D01*
X11738095Y-13396476D01*
X11719048Y-13386952D01*
X11709524Y-13377428D01*
X11900000Y-13196476D02*
X12023809Y-13196476D01*
X11957143Y-13272667D01*
X11985714Y-13272667D01*
X12004762Y-13282190D01*
X12014286Y-13291714D01*
X12023809Y-13310762D01*
X12023809Y-13358381D01*
X12014286Y-13377428D01*
X12004762Y-13386952D01*
X11985714Y-13396476D01*
X11928571Y-13396476D01*
X11909524Y-13386952D01*
X11900000Y-13377428D01*
X12204762Y-13196476D02*
X12109524Y-13196476D01*
X12100000Y-13291714D01*
X12109524Y-13282190D01*
X12128571Y-13272667D01*
X12176190Y-13272667D01*
X12195238Y-13282190D01*
X12204762Y-13291714D01*
X12214286Y-13310762D01*
X12214286Y-13358381D01*
X12204762Y-13377428D01*
X12195238Y-13386952D01*
X12176190Y-13396476D01*
X12128571Y-13396476D01*
X12109524Y-13386952D01*
X12100000Y-13377428D01*
X12290476Y-13196476D02*
X12290476Y-13234571D01*
X12366667Y-13196476D02*
X12366667Y-13234571D01*
X12661905Y-13472667D02*
X12652381Y-13463143D01*
X12633333Y-13434571D01*
X12623809Y-13415524D01*
X12614286Y-13386952D01*
X12604762Y-13339333D01*
X12604762Y-13301238D01*
X12614286Y-13253619D01*
X12623809Y-13225048D01*
X12633333Y-13206000D01*
X12652381Y-13177428D01*
X12661905Y-13167905D01*
X12823809Y-13196476D02*
X12785714Y-13196476D01*
X12766667Y-13206000D01*
X12757143Y-13215524D01*
X12738095Y-13244095D01*
X12728571Y-13282190D01*
X12728571Y-13358381D01*
X12738095Y-13377428D01*
X12747619Y-13386952D01*
X12766667Y-13396476D01*
X12804762Y-13396476D01*
X12823809Y-13386952D01*
X12833333Y-13377428D01*
X12842857Y-13358381D01*
X12842857Y-13310762D01*
X12833333Y-13291714D01*
X12823809Y-13282190D01*
X12804762Y-13272667D01*
X12766667Y-13272667D01*
X12747619Y-13282190D01*
X12738095Y-13291714D01*
X12728571Y-13310762D01*
X13080952Y-13396476D02*
X13080952Y-13196476D01*
X13166667Y-13396476D02*
X13166667Y-13291714D01*
X13157143Y-13272667D01*
X13138095Y-13263143D01*
X13109524Y-13263143D01*
X13090476Y-13272667D01*
X13080952Y-13282190D01*
X13290476Y-13396476D02*
X13271428Y-13386952D01*
X13261905Y-13377428D01*
X13252381Y-13358381D01*
X13252381Y-13301238D01*
X13261905Y-13282190D01*
X13271428Y-13272667D01*
X13290476Y-13263143D01*
X13319048Y-13263143D01*
X13338095Y-13272667D01*
X13347619Y-13282190D01*
X13357143Y-13301238D01*
X13357143Y-13358381D01*
X13347619Y-13377428D01*
X13338095Y-13386952D01*
X13319048Y-13396476D01*
X13290476Y-13396476D01*
X13471428Y-13396476D02*
X13452381Y-13386952D01*
X13442857Y-13367905D01*
X13442857Y-13196476D01*
X13623809Y-13386952D02*
X13604762Y-13396476D01*
X13566667Y-13396476D01*
X13547619Y-13386952D01*
X13538095Y-13367905D01*
X13538095Y-13291714D01*
X13547619Y-13272667D01*
X13566667Y-13263143D01*
X13604762Y-13263143D01*
X13623809Y-13272667D01*
X13633333Y-13291714D01*
X13633333Y-13310762D01*
X13538095Y-13329809D01*
X13709524Y-13386952D02*
X13728571Y-13396476D01*
X13766667Y-13396476D01*
X13785714Y-13386952D01*
X13795238Y-13367905D01*
X13795238Y-13358381D01*
X13785714Y-13339333D01*
X13766667Y-13329809D01*
X13738095Y-13329809D01*
X13719048Y-13320286D01*
X13709524Y-13301238D01*
X13709524Y-13291714D01*
X13719048Y-13272667D01*
X13738095Y-13263143D01*
X13766667Y-13263143D01*
X13785714Y-13272667D01*
X13861905Y-13472667D02*
X13871428Y-13463143D01*
X13890476Y-13434571D01*
X13900000Y-13415524D01*
X13909524Y-13386952D01*
X13919048Y-13339333D01*
X13919048Y-13301238D01*
X13909524Y-13253619D01*
X13900000Y-13225048D01*
X13890476Y-13206000D01*
X13871428Y-13177428D01*
X13861905Y-13167905D01*
D15*
X8980000Y-13515000D02*
X9090000Y-13625000D01*
X9090000Y-13515000D02*
X8980000Y-13625000D01*
X9090000Y-13570000D02*
G75*
G03*
X9090000Y-13570000I-55000J0D01*
G01*
D10*
X9452381Y-13660476D02*
X9338095Y-13660476D01*
X9395238Y-13660476D02*
X9395238Y-13460476D01*
X9376190Y-13489048D01*
X9357143Y-13508095D01*
X9338095Y-13517619D01*
X9538095Y-13641428D02*
X9547619Y-13650952D01*
X9538095Y-13660476D01*
X9528571Y-13650952D01*
X9538095Y-13641428D01*
X9538095Y-13660476D01*
X9738095Y-13660476D02*
X9623810Y-13660476D01*
X9680952Y-13660476D02*
X9680952Y-13460476D01*
X9661905Y-13489048D01*
X9642857Y-13508095D01*
X9623810Y-13517619D01*
X9861905Y-13460476D02*
X9880952Y-13460476D01*
X9900000Y-13470000D01*
X9909524Y-13479524D01*
X9919048Y-13498571D01*
X9928571Y-13536667D01*
X9928571Y-13584286D01*
X9919048Y-13622381D01*
X9909524Y-13641428D01*
X9900000Y-13650952D01*
X9880952Y-13660476D01*
X9861905Y-13660476D01*
X9842857Y-13650952D01*
X9833333Y-13641428D01*
X9823810Y-13622381D01*
X9814286Y-13584286D01*
X9814286Y-13536667D01*
X9823810Y-13498571D01*
X9833333Y-13479524D01*
X9842857Y-13470000D01*
X9861905Y-13460476D01*
X10052381Y-13460476D02*
X10071429Y-13460476D01*
X10090476Y-13470000D01*
X10100000Y-13479524D01*
X10109524Y-13498571D01*
X10119048Y-13536667D01*
X10119048Y-13584286D01*
X10109524Y-13622381D01*
X10100000Y-13641428D01*
X10090476Y-13650952D01*
X10071429Y-13660476D01*
X10052381Y-13660476D01*
X10033333Y-13650952D01*
X10023810Y-13641428D01*
X10014286Y-13622381D01*
X10004762Y-13584286D01*
X10004762Y-13536667D01*
X10014286Y-13498571D01*
X10023810Y-13479524D01*
X10033333Y-13470000D01*
X10052381Y-13460476D01*
X10204762Y-13660476D02*
X10204762Y-13527143D01*
X10204762Y-13546190D02*
X10214286Y-13536667D01*
X10233333Y-13527143D01*
X10261905Y-13527143D01*
X10280952Y-13536667D01*
X10290476Y-13555714D01*
X10290476Y-13660476D01*
X10290476Y-13555714D02*
X10300000Y-13536667D01*
X10319048Y-13527143D01*
X10347619Y-13527143D01*
X10366667Y-13536667D01*
X10376190Y-13555714D01*
X10376190Y-13660476D01*
X10471429Y-13660476D02*
X10471429Y-13527143D01*
X10471429Y-13546190D02*
X10480952Y-13536667D01*
X10500000Y-13527143D01*
X10528571Y-13527143D01*
X10547619Y-13536667D01*
X10557143Y-13555714D01*
X10557143Y-13660476D01*
X10557143Y-13555714D02*
X10566667Y-13536667D01*
X10585714Y-13527143D01*
X10614286Y-13527143D01*
X10633333Y-13536667D01*
X10642857Y-13555714D01*
X10642857Y-13660476D01*
X11033333Y-13450952D02*
X10861905Y-13708095D01*
X11290476Y-13460476D02*
X11309524Y-13460476D01*
X11328571Y-13470000D01*
X11338095Y-13479524D01*
X11347619Y-13498571D01*
X11357143Y-13536667D01*
X11357143Y-13584286D01*
X11347619Y-13622381D01*
X11338095Y-13641428D01*
X11328571Y-13650952D01*
X11309524Y-13660476D01*
X11290476Y-13660476D01*
X11271428Y-13650952D01*
X11261905Y-13641428D01*
X11252381Y-13622381D01*
X11242857Y-13584286D01*
X11242857Y-13536667D01*
X11252381Y-13498571D01*
X11261905Y-13479524D01*
X11271428Y-13470000D01*
X11290476Y-13460476D01*
X11442857Y-13641428D02*
X11452381Y-13650952D01*
X11442857Y-13660476D01*
X11433333Y-13650952D01*
X11442857Y-13641428D01*
X11442857Y-13660476D01*
X11576190Y-13460476D02*
X11595238Y-13460476D01*
X11614286Y-13470000D01*
X11623809Y-13479524D01*
X11633333Y-13498571D01*
X11642857Y-13536667D01*
X11642857Y-13584286D01*
X11633333Y-13622381D01*
X11623809Y-13641428D01*
X11614286Y-13650952D01*
X11595238Y-13660476D01*
X11576190Y-13660476D01*
X11557143Y-13650952D01*
X11547619Y-13641428D01*
X11538095Y-13622381D01*
X11528571Y-13584286D01*
X11528571Y-13536667D01*
X11538095Y-13498571D01*
X11547619Y-13479524D01*
X11557143Y-13470000D01*
X11576190Y-13460476D01*
X11814286Y-13527143D02*
X11814286Y-13660476D01*
X11766667Y-13450952D02*
X11719048Y-13593809D01*
X11842857Y-13593809D01*
X11900000Y-13460476D02*
X12023809Y-13460476D01*
X11957143Y-13536667D01*
X11985714Y-13536667D01*
X12004762Y-13546190D01*
X12014286Y-13555714D01*
X12023809Y-13574762D01*
X12023809Y-13622381D01*
X12014286Y-13641428D01*
X12004762Y-13650952D01*
X11985714Y-13660476D01*
X11928571Y-13660476D01*
X11909524Y-13650952D01*
X11900000Y-13641428D01*
X12090476Y-13460476D02*
X12214286Y-13460476D01*
X12147619Y-13536667D01*
X12176190Y-13536667D01*
X12195238Y-13546190D01*
X12204762Y-13555714D01*
X12214286Y-13574762D01*
X12214286Y-13622381D01*
X12204762Y-13641428D01*
X12195238Y-13650952D01*
X12176190Y-13660476D01*
X12119048Y-13660476D01*
X12100000Y-13650952D01*
X12090476Y-13641428D01*
X12290476Y-13460476D02*
X12290476Y-13498571D01*
X12366667Y-13460476D02*
X12366667Y-13498571D01*
X12661905Y-13736667D02*
X12652381Y-13727143D01*
X12633333Y-13698571D01*
X12623809Y-13679524D01*
X12614286Y-13650952D01*
X12604762Y-13603333D01*
X12604762Y-13565238D01*
X12614286Y-13517619D01*
X12623809Y-13489048D01*
X12633333Y-13470000D01*
X12652381Y-13441428D01*
X12661905Y-13431905D01*
X12823809Y-13460476D02*
X12785714Y-13460476D01*
X12766667Y-13470000D01*
X12757143Y-13479524D01*
X12738095Y-13508095D01*
X12728571Y-13546190D01*
X12728571Y-13622381D01*
X12738095Y-13641428D01*
X12747619Y-13650952D01*
X12766667Y-13660476D01*
X12804762Y-13660476D01*
X12823809Y-13650952D01*
X12833333Y-13641428D01*
X12842857Y-13622381D01*
X12842857Y-13574762D01*
X12833333Y-13555714D01*
X12823809Y-13546190D01*
X12804762Y-13536667D01*
X12766667Y-13536667D01*
X12747619Y-13546190D01*
X12738095Y-13555714D01*
X12728571Y-13574762D01*
X13080952Y-13660476D02*
X13080952Y-13460476D01*
X13166667Y-13660476D02*
X13166667Y-13555714D01*
X13157143Y-13536667D01*
X13138095Y-13527143D01*
X13109524Y-13527143D01*
X13090476Y-13536667D01*
X13080952Y-13546190D01*
X13290476Y-13660476D02*
X13271428Y-13650952D01*
X13261905Y-13641428D01*
X13252381Y-13622381D01*
X13252381Y-13565238D01*
X13261905Y-13546190D01*
X13271428Y-13536667D01*
X13290476Y-13527143D01*
X13319048Y-13527143D01*
X13338095Y-13536667D01*
X13347619Y-13546190D01*
X13357143Y-13565238D01*
X13357143Y-13622381D01*
X13347619Y-13641428D01*
X13338095Y-13650952D01*
X13319048Y-13660476D01*
X13290476Y-13660476D01*
X13471428Y-13660476D02*
X13452381Y-13650952D01*
X13442857Y-13631905D01*
X13442857Y-13460476D01*
X13623809Y-13650952D02*
X13604762Y-13660476D01*
X13566667Y-13660476D01*
X13547619Y-13650952D01*
X13538095Y-13631905D01*
X13538095Y-13555714D01*
X13547619Y-13536667D01*
X13566667Y-13527143D01*
X13604762Y-13527143D01*
X13623809Y-13536667D01*
X13633333Y-13555714D01*
X13633333Y-13574762D01*
X13538095Y-13593809D01*
X13709524Y-13650952D02*
X13728571Y-13660476D01*
X13766667Y-13660476D01*
X13785714Y-13650952D01*
X13795238Y-13631905D01*
X13795238Y-13622381D01*
X13785714Y-13603333D01*
X13766667Y-13593809D01*
X13738095Y-13593809D01*
X13719048Y-13584286D01*
X13709524Y-13565238D01*
X13709524Y-13555714D01*
X13719048Y-13536667D01*
X13738095Y-13527143D01*
X13766667Y-13527143D01*
X13785714Y-13536667D01*
X13861905Y-13736667D02*
X13871428Y-13727143D01*
X13890476Y-13698571D01*
X13900000Y-13679524D01*
X13909524Y-13650952D01*
X13919048Y-13603333D01*
X13919048Y-13565238D01*
X13909524Y-13517619D01*
X13900000Y-13489048D01*
X13890476Y-13470000D01*
X13871428Y-13441428D01*
X13861905Y-13431905D01*
D16*
X8900000Y-13739000D02*
X9090000Y-13929000D01*
X9090000Y-13739000D02*
X8900000Y-13929000D01*
X8995000Y-13739000D02*
X8995000Y-13929000D01*
X8900000Y-13834000D02*
X9090000Y-13834000D01*
D10*
X9452381Y-13924476D02*
X9338095Y-13924476D01*
X9395238Y-13924476D02*
X9395238Y-13724476D01*
X9376190Y-13753048D01*
X9357143Y-13772095D01*
X9338095Y-13781619D01*
X9538095Y-13905428D02*
X9547619Y-13914952D01*
X9538095Y-13924476D01*
X9528571Y-13914952D01*
X9538095Y-13905428D01*
X9538095Y-13924476D01*
X9642857Y-13924476D02*
X9680952Y-13924476D01*
X9700000Y-13914952D01*
X9709524Y-13905428D01*
X9728571Y-13876857D01*
X9738095Y-13838762D01*
X9738095Y-13762571D01*
X9728571Y-13743524D01*
X9719048Y-13734000D01*
X9700000Y-13724476D01*
X9661905Y-13724476D01*
X9642857Y-13734000D01*
X9633333Y-13743524D01*
X9623810Y-13762571D01*
X9623810Y-13810190D01*
X9633333Y-13829238D01*
X9642857Y-13838762D01*
X9661905Y-13848286D01*
X9700000Y-13848286D01*
X9719048Y-13838762D01*
X9728571Y-13829238D01*
X9738095Y-13810190D01*
X9861905Y-13724476D02*
X9880952Y-13724476D01*
X9900000Y-13734000D01*
X9909524Y-13743524D01*
X9919048Y-13762571D01*
X9928571Y-13800667D01*
X9928571Y-13848286D01*
X9919048Y-13886381D01*
X9909524Y-13905428D01*
X9900000Y-13914952D01*
X9880952Y-13924476D01*
X9861905Y-13924476D01*
X9842857Y-13914952D01*
X9833333Y-13905428D01*
X9823810Y-13886381D01*
X9814286Y-13848286D01*
X9814286Y-13800667D01*
X9823810Y-13762571D01*
X9833333Y-13743524D01*
X9842857Y-13734000D01*
X9861905Y-13724476D01*
X10052381Y-13724476D02*
X10071429Y-13724476D01*
X10090476Y-13734000D01*
X10100000Y-13743524D01*
X10109524Y-13762571D01*
X10119048Y-13800667D01*
X10119048Y-13848286D01*
X10109524Y-13886381D01*
X10100000Y-13905428D01*
X10090476Y-13914952D01*
X10071429Y-13924476D01*
X10052381Y-13924476D01*
X10033333Y-13914952D01*
X10023810Y-13905428D01*
X10014286Y-13886381D01*
X10004762Y-13848286D01*
X10004762Y-13800667D01*
X10014286Y-13762571D01*
X10023810Y-13743524D01*
X10033333Y-13734000D01*
X10052381Y-13724476D01*
X10204762Y-13924476D02*
X10204762Y-13791143D01*
X10204762Y-13810190D02*
X10214286Y-13800667D01*
X10233333Y-13791143D01*
X10261905Y-13791143D01*
X10280952Y-13800667D01*
X10290476Y-13819714D01*
X10290476Y-13924476D01*
X10290476Y-13819714D02*
X10300000Y-13800667D01*
X10319048Y-13791143D01*
X10347619Y-13791143D01*
X10366667Y-13800667D01*
X10376190Y-13819714D01*
X10376190Y-13924476D01*
X10471429Y-13924476D02*
X10471429Y-13791143D01*
X10471429Y-13810190D02*
X10480952Y-13800667D01*
X10500000Y-13791143D01*
X10528571Y-13791143D01*
X10547619Y-13800667D01*
X10557143Y-13819714D01*
X10557143Y-13924476D01*
X10557143Y-13819714D02*
X10566667Y-13800667D01*
X10585714Y-13791143D01*
X10614286Y-13791143D01*
X10633333Y-13800667D01*
X10642857Y-13819714D01*
X10642857Y-13924476D01*
X11033333Y-13714952D02*
X10861905Y-13972095D01*
X11290476Y-13724476D02*
X11309524Y-13724476D01*
X11328571Y-13734000D01*
X11338095Y-13743524D01*
X11347619Y-13762571D01*
X11357143Y-13800667D01*
X11357143Y-13848286D01*
X11347619Y-13886381D01*
X11338095Y-13905428D01*
X11328571Y-13914952D01*
X11309524Y-13924476D01*
X11290476Y-13924476D01*
X11271428Y-13914952D01*
X11261905Y-13905428D01*
X11252381Y-13886381D01*
X11242857Y-13848286D01*
X11242857Y-13800667D01*
X11252381Y-13762571D01*
X11261905Y-13743524D01*
X11271428Y-13734000D01*
X11290476Y-13724476D01*
X11442857Y-13905428D02*
X11452381Y-13914952D01*
X11442857Y-13924476D01*
X11433333Y-13914952D01*
X11442857Y-13905428D01*
X11442857Y-13924476D01*
X11576190Y-13724476D02*
X11595238Y-13724476D01*
X11614286Y-13734000D01*
X11623809Y-13743524D01*
X11633333Y-13762571D01*
X11642857Y-13800667D01*
X11642857Y-13848286D01*
X11633333Y-13886381D01*
X11623809Y-13905428D01*
X11614286Y-13914952D01*
X11595238Y-13924476D01*
X11576190Y-13924476D01*
X11557143Y-13914952D01*
X11547619Y-13905428D01*
X11538095Y-13886381D01*
X11528571Y-13848286D01*
X11528571Y-13800667D01*
X11538095Y-13762571D01*
X11547619Y-13743524D01*
X11557143Y-13734000D01*
X11576190Y-13724476D01*
X11709524Y-13724476D02*
X11842857Y-13724476D01*
X11757143Y-13924476D01*
X12004762Y-13791143D02*
X12004762Y-13924476D01*
X11957143Y-13714952D02*
X11909524Y-13857809D01*
X12033333Y-13857809D01*
X12138095Y-13810190D02*
X12119048Y-13800667D01*
X12109524Y-13791143D01*
X12100000Y-13772095D01*
X12100000Y-13762571D01*
X12109524Y-13743524D01*
X12119048Y-13734000D01*
X12138095Y-13724476D01*
X12176190Y-13724476D01*
X12195238Y-13734000D01*
X12204762Y-13743524D01*
X12214286Y-13762571D01*
X12214286Y-13772095D01*
X12204762Y-13791143D01*
X12195238Y-13800667D01*
X12176190Y-13810190D01*
X12138095Y-13810190D01*
X12119048Y-13819714D01*
X12109524Y-13829238D01*
X12100000Y-13848286D01*
X12100000Y-13886381D01*
X12109524Y-13905428D01*
X12119048Y-13914952D01*
X12138095Y-13924476D01*
X12176190Y-13924476D01*
X12195238Y-13914952D01*
X12204762Y-13905428D01*
X12214286Y-13886381D01*
X12214286Y-13848286D01*
X12204762Y-13829238D01*
X12195238Y-13819714D01*
X12176190Y-13810190D01*
X12290476Y-13724476D02*
X12290476Y-13762571D01*
X12366667Y-13724476D02*
X12366667Y-13762571D01*
X12661905Y-14000667D02*
X12652381Y-13991143D01*
X12633333Y-13962571D01*
X12623809Y-13943524D01*
X12614286Y-13914952D01*
X12604762Y-13867333D01*
X12604762Y-13829238D01*
X12614286Y-13781619D01*
X12623809Y-13753048D01*
X12633333Y-13734000D01*
X12652381Y-13705428D01*
X12661905Y-13695905D01*
X12719048Y-13724476D02*
X12842857Y-13724476D01*
X12776190Y-13800667D01*
X12804762Y-13800667D01*
X12823809Y-13810190D01*
X12833333Y-13819714D01*
X12842857Y-13838762D01*
X12842857Y-13886381D01*
X12833333Y-13905428D01*
X12823809Y-13914952D01*
X12804762Y-13924476D01*
X12747619Y-13924476D01*
X12728571Y-13914952D01*
X12719048Y-13905428D01*
X13014286Y-13724476D02*
X12976190Y-13724476D01*
X12957143Y-13734000D01*
X12947619Y-13743524D01*
X12928571Y-13772095D01*
X12919048Y-13810190D01*
X12919048Y-13886381D01*
X12928571Y-13905428D01*
X12938095Y-13914952D01*
X12957143Y-13924476D01*
X12995238Y-13924476D01*
X13014286Y-13914952D01*
X13023809Y-13905428D01*
X13033333Y-13886381D01*
X13033333Y-13838762D01*
X13023809Y-13819714D01*
X13014286Y-13810190D01*
X12995238Y-13800667D01*
X12957143Y-13800667D01*
X12938095Y-13810190D01*
X12928571Y-13819714D01*
X12919048Y-13838762D01*
X13271428Y-13924476D02*
X13271428Y-13724476D01*
X13357143Y-13924476D02*
X13357143Y-13819714D01*
X13347619Y-13800667D01*
X13328571Y-13791143D01*
X13300000Y-13791143D01*
X13280952Y-13800667D01*
X13271428Y-13810190D01*
X13480952Y-13924476D02*
X13461905Y-13914952D01*
X13452381Y-13905428D01*
X13442857Y-13886381D01*
X13442857Y-13829238D01*
X13452381Y-13810190D01*
X13461905Y-13800667D01*
X13480952Y-13791143D01*
X13509524Y-13791143D01*
X13528571Y-13800667D01*
X13538095Y-13810190D01*
X13547619Y-13829238D01*
X13547619Y-13886381D01*
X13538095Y-13905428D01*
X13528571Y-13914952D01*
X13509524Y-13924476D01*
X13480952Y-13924476D01*
X13661905Y-13924476D02*
X13642857Y-13914952D01*
X13633333Y-13895905D01*
X13633333Y-13724476D01*
X13814286Y-13914952D02*
X13795238Y-13924476D01*
X13757143Y-13924476D01*
X13738095Y-13914952D01*
X13728571Y-13895905D01*
X13728571Y-13819714D01*
X13738095Y-13800667D01*
X13757143Y-13791143D01*
X13795238Y-13791143D01*
X13814286Y-13800667D01*
X13823809Y-13819714D01*
X13823809Y-13838762D01*
X13728571Y-13857809D01*
X13900000Y-13914952D02*
X13919048Y-13924476D01*
X13957143Y-13924476D01*
X13976190Y-13914952D01*
X13985714Y-13895905D01*
X13985714Y-13886381D01*
X13976190Y-13867333D01*
X13957143Y-13857809D01*
X13928571Y-13857809D01*
X13909524Y-13848286D01*
X13900000Y-13829238D01*
X13900000Y-13819714D01*
X13909524Y-13800667D01*
X13928571Y-13791143D01*
X13957143Y-13791143D01*
X13976190Y-13800667D01*
X14052381Y-14000667D02*
X14061905Y-13991143D01*
X14080952Y-13962571D01*
X14090476Y-13943524D01*
X14100000Y-13914952D01*
X14109524Y-13867333D01*
X14109524Y-13829238D01*
X14100000Y-13781619D01*
X14090476Y-13753048D01*
X14080952Y-13734000D01*
X14061905Y-13705428D01*
X14052381Y-13695905D01*
M02*
